G04*
G04 #@! TF.GenerationSoftware,Altium Limited,Altium Designer,24.0.1 (36)*
G04*
G04 Layer_Color=16711935*
%FSLAX44Y44*%
%MOMM*%
G71*
G04*
G04 #@! TF.SameCoordinates,CE8C76C4-CE90-42B1-9663-5FE915DE4DC9*
G04*
G04*
G04 #@! TF.FilePolarity,Negative*
G04*
G01*
G75*
%ADD15R,0.6500X0.7000*%
%ADD32C,1.1500*%
%ADD33C,1.6500*%
%ADD34C,0.7500*%
%ADD35C,1.4200*%
D15*
X153440Y19555D02*
D03*
X139940D02*
D03*
D32*
X347000Y129300D02*
D03*
Y142000D02*
D03*
Y154700D02*
D03*
Y167400D02*
D03*
Y180100D02*
D03*
X-54000Y181061D02*
D03*
Y168361D02*
D03*
Y155661D02*
D03*
Y142961D02*
D03*
Y130261D02*
D03*
X121290Y5000D02*
D03*
X133990D02*
D03*
X146690D02*
D03*
X159390D02*
D03*
X172090D02*
D03*
Y299346D02*
D03*
X159390D02*
D03*
X146690D02*
D03*
X133990D02*
D03*
X121290D02*
D03*
D33*
X36939Y104361D02*
D03*
Y64361D02*
D03*
Y84361D02*
D03*
Y164361D02*
D03*
Y124361D02*
D03*
Y144361D02*
D03*
Y224361D02*
D03*
Y184361D02*
D03*
Y204361D02*
D03*
Y244361D02*
D03*
X256903Y104361D02*
D03*
Y64361D02*
D03*
Y84361D02*
D03*
Y164361D02*
D03*
Y124361D02*
D03*
Y144361D02*
D03*
Y224361D02*
D03*
Y184361D02*
D03*
Y204361D02*
D03*
Y244361D02*
D03*
D34*
X122661Y40895D02*
D03*
X-19500Y124361D02*
D03*
X190346Y21084D02*
D03*
X177164Y15274D02*
D03*
X306000Y102838D02*
D03*
X326000Y135000D02*
D03*
X203176Y288225D02*
D03*
X67390Y52439D02*
D03*
X72636Y62570D02*
D03*
X110140Y39648D02*
D03*
X5444Y97304D02*
D03*
X237213Y39665D02*
D03*
X129945Y90804D02*
D03*
X43439Y44620D02*
D03*
X102510Y69602D02*
D03*
X155190Y31102D02*
D03*
X160968Y21084D02*
D03*
X61215Y99188D02*
D03*
X232250Y117058D02*
D03*
X205083Y97304D02*
D03*
X72140Y96393D02*
D03*
X111140Y69602D02*
D03*
X216511Y81826D02*
D03*
X181086Y76304D02*
D03*
X148688Y71916D02*
D03*
X146690Y31102D02*
D03*
Y39416D02*
D03*
Y47162D02*
D03*
X136968Y31102D02*
D03*
X137268Y39416D02*
D03*
Y47162D02*
D03*
X228408Y39665D02*
D03*
D35*
X16000Y125908D02*
D03*
X283878Y98069D02*
D03*
X276774Y144361D02*
D03*
X14000Y167628D02*
D03*
X202377Y275000D02*
D03*
X112390D02*
D03*
X14000Y204361D02*
D03*
X276774Y181138D02*
D03*
X237213Y205000D02*
D03*
M02*
