G04*
G04 #@! TF.GenerationSoftware,Altium Limited,Altium Designer,24.0.1 (36)*
G04*
G04 Layer_Color=32768*
%FSLAX44Y44*%
%MOMM*%
G71*
G04*
G04 #@! TF.SameCoordinates,CE8C76C4-CE90-42B1-9663-5FE915DE4DC9*
G04*
G04*
G04 #@! TF.FilePolarity,Positive*
G04*
G01*
G75*
%ADD48C,0.1000*%
%ADD50C,0.0500*%
D48*
X195346Y57245D02*
Y67245D01*
X190346Y62245D02*
X200346D01*
X186583Y86804D02*
X196583D01*
X191583Y81804D02*
Y91804D01*
X51250Y37120D02*
X60750D01*
X56000Y32370D02*
Y41870D01*
X51250Y63004D02*
X60750D01*
X56000Y58253D02*
Y67754D01*
D50*
X183846Y76215D02*
X206846D01*
X183846Y48275D02*
Y76215D01*
X206846Y48275D02*
Y76215D01*
X183846Y48275D02*
X206846D01*
X208583Y76304D02*
Y97304D01*
X174583Y76304D02*
Y97304D01*
Y76304D02*
X208583D01*
X174583Y97304D02*
X208583D01*
X159445Y82054D02*
Y91554D01*
X154695Y86804D02*
X164195D01*
X144445Y79304D02*
X174445D01*
X144445Y94304D02*
X174445D01*
Y79304D02*
Y94304D01*
X144445Y79304D02*
Y94304D01*
X63500Y22120D02*
Y52120D01*
X48500Y22120D02*
Y52120D01*
X63500D01*
X48500Y22120D02*
X63500D01*
X48500Y48004D02*
Y78004D01*
X63500Y48004D02*
Y78004D01*
X48500Y48004D02*
X63500D01*
X48500Y78004D02*
X63500D01*
M02*
