G04*
G04 #@! TF.GenerationSoftware,Altium Limited,Altium Designer,24.0.1 (36)*
G04*
G04 Layer_Color=16711935*
%FSLAX44Y44*%
%MOMM*%
G71*
G04*
G04 #@! TF.SameCoordinates,CE8C76C4-CE90-42B1-9663-5FE915DE4DC9*
G04*
G04*
G04 #@! TF.FilePolarity,Positive*
G04*
G01*
G75*
%ADD12C,0.2000*%
D12*
X171210Y274350D02*
X188210D01*
X171210D02*
Y283350D01*
X188210D01*
Y274350D02*
Y283350D01*
X119890Y32625D02*
Y76625D01*
X69890Y32625D02*
X119890D01*
X69890D02*
Y76625D01*
X119890D01*
X196086Y27375D02*
Y39875D01*
X176086D02*
X196086D01*
X176086Y27375D02*
Y39875D01*
Y27375D02*
X196086D01*
X154968Y51666D02*
X168968D01*
Y73166D01*
X154968D02*
X168968D01*
X154968Y51666D02*
Y73166D01*
X213262Y75115D02*
X218762D01*
X213262Y64615D02*
Y75115D01*
Y64615D02*
X218762D01*
Y75115D01*
X212615Y37666D02*
X221615D01*
Y54666D01*
X212615D02*
X221615D01*
X212615Y37666D02*
Y54666D01*
X295000Y112558D02*
Y121558D01*
Y112558D02*
X312000D01*
Y121558D01*
X295000D02*
X312000D01*
X-2500Y189500D02*
Y198500D01*
X-19500D02*
X-2500D01*
X-19500Y189500D02*
Y198500D01*
Y189500D02*
X-2500D01*
X127195Y74554D02*
X132695D01*
Y85054D01*
X127195D02*
X132695D01*
X127195Y74554D02*
Y85054D01*
M02*
