G04*
G04 #@! TF.GenerationSoftware,Altium Limited,Altium Designer,24.0.1 (36)*
G04*
G04 Layer_Color=255*
%FSLAX44Y44*%
%MOMM*%
G71*
G04*
G04 #@! TF.SameCoordinates,CE8C76C4-CE90-42B1-9663-5FE915DE4DC9*
G04*
G04*
G04 #@! TF.FilePolarity,Positive*
G04*
G01*
G75*
%ADD15R,0.6500X0.7000*%
%ADD16R,0.3808X1.6554*%
G04:AMPARAMS|DCode=17|XSize=1.6554mm|YSize=0.3808mm|CornerRadius=0.1904mm|HoleSize=0mm|Usage=FLASHONLY|Rotation=270.000|XOffset=0mm|YOffset=0mm|HoleType=Round|Shape=RoundedRectangle|*
%AMROUNDEDRECTD17*
21,1,1.6554,0.0000,0,0,270.0*
21,1,1.2747,0.3808,0,0,270.0*
1,1,0.3808,0.0000,-0.6373*
1,1,0.3808,0.0000,0.6373*
1,1,0.3808,0.0000,0.6373*
1,1,0.3808,0.0000,-0.6373*
%
%ADD17ROUNDEDRECTD17*%
%ADD18R,0.3000X0.7000*%
%ADD19R,1.4061X1.5082*%
%ADD20R,1.0000X1.1000*%
%ADD21R,1.3000X0.7000*%
%ADD22R,0.5000X0.4000*%
%ADD23R,0.7000X0.6500*%
%ADD24R,0.9000X1.0000*%
%ADD25R,0.9500X0.9500*%
%ADD26R,2.1000X0.8500*%
%ADD38C,1.0000*%
%ADD39C,1.5000*%
D15*
X186460Y278850D02*
D03*
X172960D02*
D03*
X310250Y117058D02*
D03*
X296750D02*
D03*
X-17750Y194000D02*
D03*
X-4250D02*
D03*
D16*
X117640Y82879D02*
D03*
D17*
X111140D02*
D03*
X104640D02*
D03*
X98140D02*
D03*
X91640D02*
D03*
X85140D02*
D03*
X78640D02*
D03*
X72140D02*
D03*
Y26371D02*
D03*
X78640D02*
D03*
X85140D02*
D03*
X91640D02*
D03*
X98140D02*
D03*
X104640D02*
D03*
X111140D02*
D03*
X117640D02*
D03*
D18*
X190266Y54625D02*
D03*
X195346D02*
D03*
X200426D02*
D03*
Y69865D02*
D03*
X195346D02*
D03*
X190266D02*
D03*
D19*
X176825Y33625D02*
D03*
X195346D02*
D03*
D20*
X198583Y86804D02*
D03*
X184583D02*
D03*
D21*
X161968Y71916D02*
D03*
Y52916D02*
D03*
D22*
X216012Y65865D02*
D03*
Y73865D02*
D03*
X129945Y83804D02*
D03*
Y75804D02*
D03*
D23*
X217115Y52916D02*
D03*
Y39416D02*
D03*
D24*
X167445Y86804D02*
D03*
X151445D02*
D03*
D25*
X56000Y44620D02*
D03*
Y29620D02*
D03*
Y55504D02*
D03*
Y70504D02*
D03*
D26*
X52439Y244361D02*
D03*
Y204361D02*
D03*
Y164361D02*
D03*
Y124361D02*
D03*
Y84361D02*
D03*
X21439Y224361D02*
D03*
Y184361D02*
D03*
Y104361D02*
D03*
Y64361D02*
D03*
Y144361D02*
D03*
X272404Y244361D02*
D03*
Y204361D02*
D03*
Y164361D02*
D03*
Y124361D02*
D03*
Y84361D02*
D03*
X241404Y224361D02*
D03*
Y184361D02*
D03*
Y104361D02*
D03*
Y64361D02*
D03*
Y144361D02*
D03*
D38*
X347000Y129300D02*
D03*
Y142000D02*
D03*
Y154700D02*
D03*
Y167400D02*
D03*
Y180100D02*
D03*
X-54000Y181061D02*
D03*
Y168361D02*
D03*
Y155661D02*
D03*
Y142961D02*
D03*
Y130261D02*
D03*
X121290Y5000D02*
D03*
X133990D02*
D03*
X146690D02*
D03*
X159390D02*
D03*
X172090D02*
D03*
Y299346D02*
D03*
X159390D02*
D03*
X146690D02*
D03*
X133990D02*
D03*
X121290D02*
D03*
D39*
X36939Y104361D02*
D03*
Y64361D02*
D03*
Y84361D02*
D03*
Y164361D02*
D03*
Y124361D02*
D03*
Y144361D02*
D03*
Y224361D02*
D03*
Y184361D02*
D03*
Y204361D02*
D03*
Y244361D02*
D03*
X256903Y104361D02*
D03*
Y64361D02*
D03*
Y84361D02*
D03*
Y164361D02*
D03*
Y124361D02*
D03*
Y144361D02*
D03*
Y224361D02*
D03*
Y184361D02*
D03*
Y204361D02*
D03*
Y244361D02*
D03*
M02*
