G04*
G04 #@! TF.GenerationSoftware,Altium Limited,Altium Designer,24.0.1 (36)*
G04*
G04 Layer_Physical_Order=2*
G04 Layer_Color=32768*
%FSLAX44Y44*%
%MOMM*%
G71*
G04*
G04 #@! TF.SameCoordinates,CE8C76C4-CE90-42B1-9663-5FE915DE4DC9*
G04*
G04*
G04 #@! TF.FilePolarity,Negative*
G04*
G01*
G75*
%ADD42C,1.0160*%
%ADD43C,1.0000*%
%ADD44C,1.3000*%
%ADD45C,0.7000*%
%ADD46C,1.1112*%
G36*
X317000Y178000D02*
Y134750D01*
X316466Y132000D01*
X290646D01*
X290000Y134750D01*
Y178000D01*
X290556Y182000D01*
X316444D01*
X317000Y178000D01*
D02*
G37*
G36*
X0D02*
Y134750D01*
X-534Y132000D01*
X-26354D01*
X-27000Y134750D01*
Y178000D01*
X-26444Y182000D01*
X-556D01*
X0Y178000D01*
D02*
G37*
G36*
X219762Y257787D02*
Y110000D01*
X75000D01*
Y257836D01*
X80164Y263000D01*
X214548D01*
X219762Y257787D01*
D02*
G37*
D42*
X316444Y182000D02*
X317000Y178000D01*
Y134750D02*
Y178000D01*
X316466Y132000D02*
X317000Y134750D01*
X290646Y132000D02*
X316466D01*
X290000Y134750D02*
X290646Y132000D01*
X290000Y134750D02*
Y178000D01*
X290556Y182000D01*
X316444D01*
X-556D02*
X0Y178000D01*
X-27000D02*
X-26444Y182000D01*
X-556D01*
X-534Y132000D02*
X0Y134750D01*
X-26354Y132000D02*
X-534D01*
X-27000Y134750D02*
X-26354Y132000D01*
X-27000Y134750D02*
Y178000D01*
X0Y134750D02*
Y178000D01*
X219762Y110000D02*
Y257787D01*
X75000Y110000D02*
X219762D01*
X75000D02*
Y257836D01*
X214548Y263000D02*
X219762Y257787D01*
X75000Y257836D02*
X80164Y263000D01*
X214548D01*
X189000Y313000D02*
X246843Y265560D01*
X105000Y313000D02*
X189000D01*
X47000Y265560D02*
X105000Y313000D01*
X18561Y265560D02*
X47000D01*
X0Y247000D02*
X18561Y265560D01*
X0Y230000D02*
Y247000D01*
X-30000Y200000D02*
X0Y230000D01*
X-64000Y200000D02*
X-30000Y200000D01*
X-64000Y110000D02*
Y200000D01*
Y110000D02*
X-31000Y110000D01*
X0Y79000D01*
Y64000D02*
Y79000D01*
Y64000D02*
X22000Y42000D01*
X27000D01*
X69000Y-5000D01*
X224904D01*
X266903Y42000D01*
X271903Y42000D01*
X294000Y64096D01*
Y79000D01*
X325000Y110000D01*
X358000D01*
Y200000D01*
X323999Y200000D02*
X358000Y200000D01*
X294000Y230000D02*
X323999Y200000D01*
X294000Y230000D02*
Y247000D01*
X275439Y265560D02*
X294000Y247000D01*
X246843Y265560D02*
X275439D01*
D43*
X347000Y142000D02*
D03*
Y154700D02*
D03*
Y167400D02*
D03*
Y180100D02*
D03*
X-54000Y168361D02*
D03*
Y155661D02*
D03*
Y142961D02*
D03*
Y130261D02*
D03*
X133990Y5000D02*
D03*
X146690D02*
D03*
X159390D02*
D03*
X172090D02*
D03*
X159390Y299346D02*
D03*
X146690D02*
D03*
X133990D02*
D03*
X121290D02*
D03*
D44*
X36939Y104361D02*
D03*
Y64361D02*
D03*
Y84361D02*
D03*
Y164361D02*
D03*
Y124361D02*
D03*
Y144361D02*
D03*
Y224361D02*
D03*
Y184361D02*
D03*
Y204361D02*
D03*
Y244361D02*
D03*
X256903Y104361D02*
D03*
Y64361D02*
D03*
Y84361D02*
D03*
Y164361D02*
D03*
Y124361D02*
D03*
Y144361D02*
D03*
Y224361D02*
D03*
Y184361D02*
D03*
Y204361D02*
D03*
Y244361D02*
D03*
D45*
X122661Y40895D02*
D03*
X-19500Y124361D02*
D03*
X190346Y21084D02*
D03*
X177164Y15274D02*
D03*
X306000Y102838D02*
D03*
X326000Y135000D02*
D03*
X203176Y288225D02*
D03*
X67390Y52439D02*
D03*
X72636Y62570D02*
D03*
X110140Y39648D02*
D03*
X5444Y97304D02*
D03*
X237213Y39665D02*
D03*
X102510Y69602D02*
D03*
X160968Y21084D02*
D03*
X61215Y99188D02*
D03*
X232250Y117058D02*
D03*
X205083Y97304D02*
D03*
X72140Y96393D02*
D03*
X111140Y69602D02*
D03*
X216511Y81826D02*
D03*
X148688Y71916D02*
D03*
X228408Y39665D02*
D03*
D46*
X16000Y125908D02*
D03*
X283878Y98069D02*
D03*
X276774Y144361D02*
D03*
X14000Y167628D02*
D03*
X202377Y275000D02*
D03*
X112390D02*
D03*
X14000Y204361D02*
D03*
X276774Y181138D02*
D03*
X237213Y205000D02*
D03*
M02*
