G04*
G04 #@! TF.GenerationSoftware,Altium Limited,Altium Designer,24.0.1 (36)*
G04*
G04 Layer_Color=65535*
%FSLAX44Y44*%
%MOMM*%
G71*
G04*
G04 #@! TF.SameCoordinates,CE8C76C4-CE90-42B1-9663-5FE915DE4DC9*
G04*
G04*
G04 #@! TF.FilePolarity,Positive*
G04*
G01*
G75*
%ADD10C,0.5000*%
%ADD11C,0.2500*%
%ADD12C,0.2000*%
%ADD13C,0.3000*%
%ADD14C,0.2540*%
G36*
X278339Y237148D02*
X278533D01*
X278755Y237134D01*
X278977Y237120D01*
X279476Y237078D01*
X279962Y237009D01*
X280198Y236982D01*
X280433Y236926D01*
X280641Y236870D01*
X280822Y236815D01*
X280835D01*
X280863Y236801D01*
X280905Y236773D01*
X280974Y236746D01*
X281057Y236704D01*
X281141Y236663D01*
X281362Y236538D01*
X281598Y236357D01*
X281834Y236149D01*
X282084Y235886D01*
X282306Y235581D01*
Y235567D01*
X282333Y235539D01*
X282361Y235497D01*
X282389Y235428D01*
X282444Y235345D01*
X282486Y235248D01*
X282541Y235123D01*
X282597Y234998D01*
X282694Y234707D01*
X282791Y234360D01*
X282846Y233986D01*
X282874Y233570D01*
Y233556D01*
Y233500D01*
Y233431D01*
X282860Y233334D01*
X282846Y233209D01*
X282833Y233071D01*
X282805Y232904D01*
X282763Y232738D01*
X282666Y232349D01*
X282597Y232155D01*
X282514Y231961D01*
X282416Y231753D01*
X282306Y231559D01*
X282181Y231365D01*
X282028Y231185D01*
X282014Y231171D01*
X281987Y231143D01*
X281945Y231101D01*
X281876Y231032D01*
X281779Y230963D01*
X281668Y230879D01*
X281543Y230782D01*
X281390Y230685D01*
X281224Y230574D01*
X281043Y230477D01*
X280835Y230380D01*
X280600Y230283D01*
X280350Y230200D01*
X280087Y230117D01*
X279795Y230047D01*
X279490Y229992D01*
X279504D01*
X279532Y229964D01*
X279573Y229950D01*
X279629Y229909D01*
X279781Y229811D01*
X279976Y229673D01*
X280198Y229520D01*
X280433Y229340D01*
X280669Y229132D01*
X280877Y228924D01*
X280905Y228896D01*
X280933Y228855D01*
X280974Y228813D01*
X281030Y228744D01*
X281099Y228660D01*
X281182Y228563D01*
X281265Y228452D01*
X281362Y228314D01*
X281473Y228161D01*
X281598Y227995D01*
X281723Y227801D01*
X281862Y227593D01*
X282014Y227357D01*
X282181Y227121D01*
X282347Y226844D01*
X283914Y224361D01*
X280822D01*
X278949Y227149D01*
X278936Y227163D01*
X278908Y227218D01*
X278852Y227288D01*
X278783Y227384D01*
X278714Y227509D01*
X278617Y227634D01*
X278409Y227939D01*
X278173Y228258D01*
X277951Y228563D01*
X277840Y228702D01*
X277743Y228827D01*
X277660Y228938D01*
X277576Y229021D01*
X277563Y229035D01*
X277521Y229090D01*
X277438Y229146D01*
X277341Y229229D01*
X277230Y229326D01*
X277091Y229409D01*
X276952Y229492D01*
X276800Y229548D01*
X276786Y229562D01*
X276717Y229576D01*
X276619Y229604D01*
X276481Y229631D01*
X276301Y229659D01*
X276079Y229673D01*
X275815Y229701D01*
X274983D01*
Y224361D01*
X272404D01*
Y237162D01*
X278173D01*
X278339Y237148D01*
D02*
G37*
G36*
X16580Y235265D02*
X23001D01*
Y233101D01*
X14000D01*
Y245791D01*
X16580D01*
Y235265D01*
D02*
G37*
%LPC*%
G36*
X277757Y234998D02*
X274983D01*
Y231739D01*
X277341D01*
X277507Y231753D01*
X277882D01*
X278284Y231781D01*
X278658Y231809D01*
X278825Y231822D01*
X278977Y231836D01*
X279116Y231864D01*
X279213Y231892D01*
X279241Y231906D01*
X279296Y231919D01*
X279379Y231961D01*
X279476Y232017D01*
X279601Y232086D01*
X279726Y232183D01*
X279837Y232294D01*
X279948Y232433D01*
X279962Y232446D01*
X279989Y232502D01*
X280031Y232585D01*
X280087Y232696D01*
X280128Y232835D01*
X280170Y233001D01*
X280198Y233195D01*
X280211Y233403D01*
Y233417D01*
Y233431D01*
Y233514D01*
X280198Y233625D01*
X280170Y233778D01*
X280128Y233944D01*
X280059Y234111D01*
X279976Y234277D01*
X279865Y234443D01*
X279851Y234457D01*
X279795Y234513D01*
X279726Y234582D01*
X279615Y234652D01*
X279476Y234749D01*
X279310Y234818D01*
X279102Y234887D01*
X278880Y234943D01*
X278866D01*
X278811Y234957D01*
X278700D01*
X278630Y234970D01*
X278422D01*
X278284Y234984D01*
X277951D01*
X277757Y234998D01*
D02*
G37*
%LPD*%
D10*
X114890Y62102D02*
G03*
X114890Y62102I-2500J0D01*
G01*
X147212Y270560D02*
Y277225D01*
X152211Y280557D02*
X147212Y285556D01*
X142214Y280557D01*
D11*
X119390Y99656D02*
G03*
X119390Y99656I-1250J0D01*
G01*
D12*
X186436Y52085D02*
G03*
X186436Y52085I-1250J0D01*
G01*
X171710Y271600D02*
X187710D01*
X171710Y286100D02*
X187710D01*
X119890Y39648D02*
Y69602D01*
X69890Y39648D02*
X119890D01*
X69890D02*
Y69602D01*
X119890D01*
X169795Y22084D02*
X202377D01*
X169795Y45166D02*
X202377D01*
X168968Y60166D02*
Y64666D01*
X154968Y60166D02*
Y64666D01*
X209762Y64615D02*
Y75115D01*
X222262Y64615D02*
Y75115D01*
X224365Y38166D02*
Y54166D01*
X209865Y38166D02*
Y54166D01*
X158945Y90804D02*
X159945D01*
X158945Y82804D02*
X159945D01*
X295500Y109808D02*
X311500D01*
X295500Y124308D02*
X311500D01*
X-19000Y201250D02*
X-3000D01*
X-19000Y186750D02*
X-3000D01*
X136195Y74554D02*
Y85054D01*
X123695Y74554D02*
Y85054D01*
X26939Y256861D02*
X46940D01*
Y252361D02*
Y256861D01*
X26939Y233101D02*
Y256861D01*
Y51861D02*
X46940D01*
X26939D02*
Y56361D01*
X46940Y51861D02*
Y75621D01*
X246903Y256861D02*
X266903D01*
Y252361D02*
Y256861D01*
X246903Y233101D02*
Y256861D01*
Y51861D02*
X266903D01*
X246903D02*
Y56361D01*
X266903Y51861D02*
Y75621D01*
D13*
X60030Y255961D02*
G03*
X60030Y255961I-1500J0D01*
G01*
X279993D02*
G03*
X279993Y255961I-1500J0D01*
G01*
X336362Y179666D02*
X338028Y181332D01*
Y184664D01*
X336362Y186331D01*
X334696D01*
X333030Y184664D01*
Y181332D01*
X331364Y179666D01*
X329698D01*
X328032Y181332D01*
Y184664D01*
X329698Y186331D01*
X328032Y171336D02*
X338028D01*
X333030Y176334D01*
Y169669D01*
X-43362Y162695D02*
X-45028Y161029D01*
Y157697D01*
X-43362Y156031D01*
X-41696D01*
X-40030Y157697D01*
Y161029D01*
X-38364Y162695D01*
X-36698D01*
X-35032Y161029D01*
Y157697D01*
X-36698Y156031D01*
X-43362Y166027D02*
X-45028Y167694D01*
Y171026D01*
X-43362Y172692D01*
X-41696D01*
X-40030Y171026D01*
Y169360D01*
Y171026D01*
X-38364Y172692D01*
X-36698D01*
X-35032Y171026D01*
Y167694D01*
X-36698Y166027D01*
X190334Y10332D02*
X188668Y11998D01*
X185336D01*
X183669Y10332D01*
Y8666D01*
X185336Y7000D01*
X188668D01*
X190334Y5334D01*
Y3668D01*
X188668Y2002D01*
X185336D01*
X183669Y3668D01*
X200331Y2002D02*
X193666D01*
X200331Y8666D01*
Y10332D01*
X198664Y11998D01*
X195332D01*
X193666Y10332D01*
X103447Y295061D02*
X101781Y296727D01*
X98449D01*
X96783Y295061D01*
Y293395D01*
X98449Y291729D01*
X101781D01*
X103447Y290063D01*
Y288396D01*
X101781Y286730D01*
X98449D01*
X96783Y288396D01*
X106780Y286730D02*
X110112D01*
X108446D01*
Y296727D01*
X106780Y295061D01*
D14*
X99389Y63001D02*
X91891D01*
X90392Y61501D01*
Y58502D01*
X91891Y57003D01*
X99389D01*
X97889Y54004D02*
X99389Y52504D01*
Y49505D01*
X97889Y48006D01*
X96390D01*
X94890Y49505D01*
Y51005D01*
Y49505D01*
X93391Y48006D01*
X91891D01*
X90392Y49505D01*
Y52504D01*
X91891Y54004D01*
X173326Y57751D02*
X179157D01*
X180324Y58917D01*
Y61250D01*
X179157Y62416D01*
X173326D01*
X180324Y64749D02*
Y67082D01*
Y65915D01*
X173326D01*
X174492Y64749D01*
X152546Y96863D02*
Y104860D01*
X156544D01*
X157877Y103527D01*
Y100861D01*
X156544Y99528D01*
X152546D01*
X155211D02*
X157877Y96863D01*
X165875D02*
X160543D01*
X165875Y102194D01*
Y103527D01*
X164542Y104860D01*
X161876D01*
X160543Y103527D01*
X185585Y96363D02*
Y105360D01*
X190083D01*
X191583Y103860D01*
Y100861D01*
X190083Y99362D01*
X185585D01*
X188584D02*
X191583Y96363D01*
X194582D02*
X197581D01*
X196082D01*
Y105360D01*
X194582Y103860D01*
X159141Y29465D02*
X167138D01*
Y34797D01*
Y37463D02*
Y40128D01*
Y38796D01*
X159141D01*
X160474Y37463D01*
X143112Y65082D02*
X141779Y66415D01*
X139113D01*
X137780Y65082D01*
Y59751D01*
X139113Y58418D01*
X141779D01*
X143112Y59751D01*
X145778Y65082D02*
X147110Y66415D01*
X149776D01*
X151109Y65082D01*
Y63749D01*
X149776Y62416D01*
X148443D01*
X149776D01*
X151109Y61083D01*
Y59751D01*
X149776Y58418D01*
X147110D01*
X145778Y59751D01*
X231084Y78051D02*
X229918Y79217D01*
X227585D01*
X226419Y78051D01*
Y73386D01*
X227585Y72220D01*
X229918D01*
X231084Y73386D01*
X238082Y72220D02*
X233417D01*
X238082Y76885D01*
Y78051D01*
X236915Y79217D01*
X234583D01*
X233417Y78051D01*
X214012Y25247D02*
X212513Y23748D01*
Y20749D01*
X214012Y19249D01*
X220010D01*
X221510Y20749D01*
Y23748D01*
X220010Y25247D01*
X221510Y28246D02*
Y31245D01*
Y29746D01*
X212513D01*
X214012Y28246D01*
M02*
