G04*
G04 #@! TF.GenerationSoftware,Altium Limited,Altium Designer,24.0.1 (36)*
G04*
G04 Layer_Color=8388736*
%FSLAX44Y44*%
%MOMM*%
G71*
G04*
G04 #@! TF.SameCoordinates,CE8C76C4-CE90-42B1-9663-5FE915DE4DC9*
G04*
G04*
G04 #@! TF.FilePolarity,Negative*
G04*
G01*
G75*
%ADD15R,0.6500X0.7000*%
%ADD16R,0.3808X1.6554*%
G04:AMPARAMS|DCode=17|XSize=1.6554mm|YSize=0.3808mm|CornerRadius=0.1904mm|HoleSize=0mm|Usage=FLASHONLY|Rotation=270.000|XOffset=0mm|YOffset=0mm|HoleType=Round|Shape=RoundedRectangle|*
%AMROUNDEDRECTD17*
21,1,1.6554,0.0000,0,0,270.0*
21,1,1.2747,0.3808,0,0,270.0*
1,1,0.3808,0.0000,-0.6373*
1,1,0.3808,0.0000,0.6373*
1,1,0.3808,0.0000,0.6373*
1,1,0.3808,0.0000,-0.6373*
%
%ADD17ROUNDEDRECTD17*%
%ADD19R,1.4061X1.5082*%
%ADD21R,1.3000X0.7000*%
%ADD22R,0.5000X0.4000*%
%ADD23R,0.7000X0.6500*%
%ADD27R,0.4500X0.8500*%
%ADD28R,1.1500X1.2500*%
%ADD29R,1.0500X1.1500*%
%ADD30R,1.1000X1.1000*%
%ADD31R,2.2500X1.0000*%
%ADD32C,1.1500*%
%ADD33C,1.6500*%
%ADD34C,0.7500*%
%ADD35C,1.4200*%
D15*
X186460Y278850D02*
D03*
X172960D02*
D03*
X310250Y117058D02*
D03*
X296750D02*
D03*
X-17750Y194000D02*
D03*
X-4250D02*
D03*
D16*
X117640Y82879D02*
D03*
D17*
X111140D02*
D03*
X104640D02*
D03*
X98140D02*
D03*
X91640D02*
D03*
X85140D02*
D03*
X78640D02*
D03*
X72140D02*
D03*
Y26371D02*
D03*
X78640D02*
D03*
X85140D02*
D03*
X91640D02*
D03*
X98140D02*
D03*
X104640D02*
D03*
X111140D02*
D03*
X117640D02*
D03*
D19*
X176825Y33625D02*
D03*
X195346D02*
D03*
D21*
X161968Y71916D02*
D03*
Y52916D02*
D03*
D22*
X216012Y65865D02*
D03*
Y73865D02*
D03*
X129945Y83804D02*
D03*
Y75804D02*
D03*
D23*
X217115Y52916D02*
D03*
Y39416D02*
D03*
D27*
X190266Y54625D02*
D03*
X195346D02*
D03*
X200426D02*
D03*
Y69865D02*
D03*
X195346D02*
D03*
X190266D02*
D03*
D28*
X198583Y86804D02*
D03*
X184583D02*
D03*
D29*
X167445D02*
D03*
X151445D02*
D03*
D30*
X56000Y44620D02*
D03*
Y29620D02*
D03*
Y55504D02*
D03*
Y70504D02*
D03*
D31*
X52439Y244361D02*
D03*
Y204361D02*
D03*
Y164361D02*
D03*
Y124361D02*
D03*
Y84361D02*
D03*
X21439Y224361D02*
D03*
Y184361D02*
D03*
Y104361D02*
D03*
Y64361D02*
D03*
Y144361D02*
D03*
X272404Y244361D02*
D03*
Y204361D02*
D03*
Y164361D02*
D03*
Y124361D02*
D03*
Y84361D02*
D03*
X241404Y224361D02*
D03*
Y184361D02*
D03*
Y104361D02*
D03*
Y64361D02*
D03*
Y144361D02*
D03*
D32*
X347000Y129300D02*
D03*
Y142000D02*
D03*
Y154700D02*
D03*
Y167400D02*
D03*
Y180100D02*
D03*
X-54000Y181061D02*
D03*
Y168361D02*
D03*
Y155661D02*
D03*
Y142961D02*
D03*
Y130261D02*
D03*
X121290Y5000D02*
D03*
X133990D02*
D03*
X146690D02*
D03*
X159390D02*
D03*
X172090D02*
D03*
Y299346D02*
D03*
X159390D02*
D03*
X146690D02*
D03*
X133990D02*
D03*
X121290D02*
D03*
D33*
X36939Y104361D02*
D03*
Y64361D02*
D03*
Y84361D02*
D03*
Y164361D02*
D03*
Y124361D02*
D03*
Y144361D02*
D03*
Y224361D02*
D03*
Y184361D02*
D03*
Y204361D02*
D03*
Y244361D02*
D03*
X256903Y104361D02*
D03*
Y64361D02*
D03*
Y84361D02*
D03*
Y164361D02*
D03*
Y124361D02*
D03*
Y144361D02*
D03*
Y224361D02*
D03*
Y184361D02*
D03*
Y204361D02*
D03*
Y244361D02*
D03*
D34*
X122661Y40895D02*
D03*
X-19500Y124361D02*
D03*
X190346Y21084D02*
D03*
X177164Y15274D02*
D03*
X306000Y102838D02*
D03*
X326000Y135000D02*
D03*
X203176Y288225D02*
D03*
X67390Y52439D02*
D03*
X72636Y62570D02*
D03*
X110140Y39648D02*
D03*
X5444Y97304D02*
D03*
X237213Y39665D02*
D03*
X129945Y90804D02*
D03*
X43439Y44620D02*
D03*
X102510Y69602D02*
D03*
X155190Y31102D02*
D03*
X160968Y21084D02*
D03*
X61215Y99188D02*
D03*
X232250Y117058D02*
D03*
X205083Y97304D02*
D03*
X72140Y96393D02*
D03*
X111140Y69602D02*
D03*
X216511Y81826D02*
D03*
X181086Y76304D02*
D03*
X148688Y71916D02*
D03*
X146690Y31102D02*
D03*
Y39416D02*
D03*
Y47162D02*
D03*
X136968Y31102D02*
D03*
X137268Y39416D02*
D03*
Y47162D02*
D03*
X228408Y39665D02*
D03*
D35*
X16000Y125908D02*
D03*
X283878Y98069D02*
D03*
X276774Y144361D02*
D03*
X14000Y167628D02*
D03*
X202377Y275000D02*
D03*
X112390D02*
D03*
X14000Y204361D02*
D03*
X276774Y181138D02*
D03*
X237213Y205000D02*
D03*
M02*
