G04*
G04 #@! TF.GenerationSoftware,Altium Limited,Altium Designer,24.0.1 (36)*
G04*
G04 Layer_Color=32768*
%FSLAX44Y44*%
%MOMM*%
G71*
G04*
G04 #@! TF.SameCoordinates,CE8C76C4-CE90-42B1-9663-5FE915DE4DC9*
G04*
G04*
G04 #@! TF.FilePolarity,Positive*
G04*
G01*
G75*
%ADD12C,0.2000*%
G36*
X171243Y278843D02*
X171313Y278836D01*
X171396Y278829D01*
X171493Y278808D01*
X171597Y278787D01*
X171715Y278760D01*
X171840Y278718D01*
X171972Y278676D01*
X172103Y278614D01*
X172235Y278545D01*
X172374Y278461D01*
X172499Y278364D01*
X172630Y278253D01*
X172748Y278129D01*
X172755Y278122D01*
X172776Y278094D01*
X172804Y278052D01*
X172845Y277990D01*
X172894Y277914D01*
X172942Y277817D01*
X172998Y277699D01*
X173053Y277560D01*
X173116Y277407D01*
X173171Y277234D01*
X173220Y277040D01*
X173268Y276825D01*
X173310Y276589D01*
X173338Y276333D01*
X173358Y276055D01*
X173365Y275757D01*
Y275750D01*
Y275736D01*
Y275709D01*
Y275674D01*
Y275632D01*
X173358Y275577D01*
Y275521D01*
X173351Y275452D01*
X173345Y275299D01*
X173331Y275126D01*
X173310Y274932D01*
X173282Y274724D01*
X173241Y274502D01*
X173199Y274280D01*
X173144Y274058D01*
X173074Y273836D01*
X172998Y273621D01*
X172908Y273413D01*
X172797Y273226D01*
X172679Y273060D01*
X172672Y273053D01*
X172651Y273025D01*
X172617Y272990D01*
X172568Y272942D01*
X172512Y272886D01*
X172436Y272824D01*
X172353Y272762D01*
X172256Y272692D01*
X172145Y272623D01*
X172020Y272561D01*
X171888Y272498D01*
X171743Y272443D01*
X171590Y272394D01*
X171424Y272359D01*
X171250Y272332D01*
X171063Y272325D01*
X170987D01*
X170938Y272332D01*
X170876Y272339D01*
X170800Y272346D01*
X170716Y272359D01*
X170626Y272380D01*
X170425Y272429D01*
X170328Y272463D01*
X170217Y272505D01*
X170113Y272554D01*
X170016Y272616D01*
X169919Y272678D01*
X169822Y272755D01*
X169815Y272762D01*
X169801Y272775D01*
X169774Y272796D01*
X169746Y272831D01*
X169704Y272873D01*
X169663Y272928D01*
X169614Y272990D01*
X169566Y273060D01*
X169517Y273136D01*
X169468Y273226D01*
X169420Y273323D01*
X169371Y273427D01*
X169330Y273538D01*
X169295Y273656D01*
X169260Y273781D01*
X169240Y273920D01*
X170023Y273982D01*
Y273975D01*
X170030Y273961D01*
X170037Y273940D01*
X170044Y273906D01*
X170065Y273822D01*
X170099Y273725D01*
X170141Y273615D01*
X170196Y273503D01*
X170252Y273400D01*
X170321Y273309D01*
X170328Y273302D01*
X170335Y273295D01*
X170356Y273275D01*
X170377Y273254D01*
X170446Y273198D01*
X170543Y273136D01*
X170654Y273074D01*
X170793Y273025D01*
X170945Y272983D01*
X171029Y272976D01*
X171112Y272970D01*
X171174D01*
X171250Y272983D01*
X171341Y272997D01*
X171445Y273025D01*
X171556Y273060D01*
X171667Y273115D01*
X171777Y273185D01*
X171784D01*
X171791Y273198D01*
X171812Y273212D01*
X171840Y273233D01*
X171902Y273295D01*
X171985Y273386D01*
X172083Y273497D01*
X172180Y273635D01*
X172270Y273795D01*
X172360Y273975D01*
Y273982D01*
X172367Y273996D01*
X172381Y274030D01*
X172395Y274072D01*
X172409Y274121D01*
X172429Y274190D01*
X172450Y274266D01*
X172471Y274349D01*
X172492Y274447D01*
X172506Y274557D01*
X172526Y274682D01*
X172547Y274814D01*
X172561Y274953D01*
X172568Y275105D01*
X172575Y275272D01*
X172582Y275438D01*
X172568Y275424D01*
X172554Y275403D01*
X172533Y275376D01*
X172471Y275299D01*
X172395Y275202D01*
X172291Y275098D01*
X172173Y274994D01*
X172041Y274897D01*
X171895Y274807D01*
X171888D01*
X171875Y274800D01*
X171854Y274786D01*
X171826Y274772D01*
X171784Y274759D01*
X171743Y274738D01*
X171632Y274696D01*
X171500Y274662D01*
X171355Y274627D01*
X171195Y274599D01*
X171029Y274592D01*
X170994D01*
X170952Y274599D01*
X170897D01*
X170828Y274613D01*
X170751Y274620D01*
X170661Y274641D01*
X170564Y274662D01*
X170467Y274696D01*
X170356Y274731D01*
X170245Y274779D01*
X170134Y274835D01*
X170016Y274904D01*
X169905Y274981D01*
X169794Y275071D01*
X169690Y275175D01*
X169683Y275182D01*
X169669Y275202D01*
X169642Y275230D01*
X169600Y275279D01*
X169559Y275334D01*
X169517Y275403D01*
X169461Y275487D01*
X169413Y275577D01*
X169364Y275681D01*
X169309Y275792D01*
X169267Y275917D01*
X169219Y276048D01*
X169184Y276187D01*
X169156Y276340D01*
X169142Y276499D01*
X169136Y276665D01*
Y276672D01*
Y276693D01*
Y276721D01*
X169142Y276770D01*
Y276818D01*
X169149Y276880D01*
X169156Y276957D01*
X169170Y277033D01*
X169198Y277206D01*
X169247Y277394D01*
X169309Y277588D01*
X169399Y277789D01*
Y277796D01*
X169413Y277810D01*
X169427Y277837D01*
X169448Y277872D01*
X169475Y277914D01*
X169503Y277962D01*
X169586Y278080D01*
X169683Y278205D01*
X169808Y278337D01*
X169954Y278468D01*
X170113Y278579D01*
X170120D01*
X170134Y278593D01*
X170162Y278607D01*
X170196Y278621D01*
X170238Y278642D01*
X170287Y278663D01*
X170349Y278690D01*
X170411Y278711D01*
X170564Y278767D01*
X170744Y278808D01*
X170938Y278836D01*
X171147Y278850D01*
X171188D01*
X171243Y278843D01*
D02*
G37*
G36*
X176881D02*
X176964Y278836D01*
X177068Y278829D01*
X177179Y278815D01*
X177304Y278794D01*
X177436Y278773D01*
X177575Y278746D01*
X177713Y278711D01*
X177852Y278676D01*
X177997Y278628D01*
X178136Y278572D01*
X178268Y278510D01*
X178393Y278434D01*
X178400Y278427D01*
X178420Y278413D01*
X178455Y278392D01*
X178497Y278358D01*
X178552Y278309D01*
X178615Y278260D01*
X178684Y278198D01*
X178760Y278122D01*
X178836Y278039D01*
X178920Y277948D01*
X178996Y277851D01*
X179079Y277740D01*
X179162Y277623D01*
X179239Y277498D01*
X179308Y277359D01*
X179377Y277213D01*
X179384Y277206D01*
X179391Y277179D01*
X179405Y277130D01*
X179426Y277075D01*
X179454Y276998D01*
X179481Y276915D01*
X179509Y276811D01*
X179544Y276700D01*
X179571Y276575D01*
X179606Y276444D01*
X179634Y276305D01*
X179655Y276152D01*
X179696Y275833D01*
X179703Y275667D01*
X179710Y275501D01*
Y275487D01*
Y275459D01*
Y275403D01*
X179703Y275334D01*
X179696Y275244D01*
X179689Y275140D01*
X179676Y275029D01*
X179662Y274904D01*
X179641Y274772D01*
X179620Y274634D01*
X179551Y274336D01*
X179502Y274190D01*
X179454Y274044D01*
X179398Y273892D01*
X179329Y273753D01*
X179322Y273746D01*
X179308Y273718D01*
X179287Y273684D01*
X179259Y273628D01*
X179218Y273566D01*
X179169Y273497D01*
X179114Y273420D01*
X179051Y273330D01*
X178975Y273247D01*
X178899Y273150D01*
X178809Y273060D01*
X178712Y272963D01*
X178608Y272873D01*
X178497Y272782D01*
X178372Y272699D01*
X178247Y272623D01*
X178240Y272616D01*
X178212Y272609D01*
X178178Y272588D01*
X178122Y272561D01*
X178060Y272533D01*
X177977Y272498D01*
X177887Y272463D01*
X177789Y272429D01*
X177679Y272394D01*
X177554Y272359D01*
X177429Y272325D01*
X177290Y272297D01*
X177006Y272248D01*
X176853Y272241D01*
X176694Y272235D01*
X176604D01*
X176534Y272241D01*
X176451Y272248D01*
X176354Y272262D01*
X176250Y272276D01*
X176132Y272297D01*
X176007Y272325D01*
X175876Y272353D01*
X175744Y272394D01*
X175605Y272443D01*
X175466Y272498D01*
X175335Y272567D01*
X175203Y272637D01*
X175078Y272727D01*
X175071Y272734D01*
X175050Y272748D01*
X175016Y272775D01*
X174974Y272817D01*
X174919Y272866D01*
X174856Y272928D01*
X174794Y272997D01*
X174718Y273081D01*
X174641Y273171D01*
X174565Y273275D01*
X174489Y273386D01*
X174419Y273510D01*
X174343Y273642D01*
X174281Y273788D01*
X174218Y273940D01*
X174163Y274100D01*
X174995Y274294D01*
Y274287D01*
X175009Y274266D01*
X175016Y274225D01*
X175037Y274176D01*
X175057Y274121D01*
X175092Y274058D01*
X175161Y273906D01*
X175252Y273739D01*
X175369Y273566D01*
X175494Y273407D01*
X175571Y273337D01*
X175647Y273275D01*
X175654Y273268D01*
X175668Y273261D01*
X175688Y273247D01*
X175723Y273226D01*
X175765Y273198D01*
X175813Y273171D01*
X175869Y273143D01*
X175938Y273115D01*
X176014Y273088D01*
X176091Y273060D01*
X176271Y273004D01*
X176479Y272970D01*
X176590Y272956D01*
X176777D01*
X176833Y272963D01*
X176895Y272970D01*
X176971Y272976D01*
X177054Y272983D01*
X177138Y272997D01*
X177339Y273046D01*
X177547Y273108D01*
X177651Y273150D01*
X177755Y273198D01*
X177852Y273254D01*
X177949Y273316D01*
X177956Y273323D01*
X177970Y273330D01*
X177997Y273351D01*
X178032Y273379D01*
X178067Y273413D01*
X178115Y273462D01*
X178164Y273510D01*
X178219Y273566D01*
X178275Y273635D01*
X178337Y273705D01*
X178448Y273864D01*
X178552Y274051D01*
X178642Y274266D01*
Y274273D01*
X178649Y274294D01*
X178663Y274329D01*
X178670Y274370D01*
X178684Y274426D01*
X178705Y274488D01*
X178719Y274564D01*
X178739Y274641D01*
X178760Y274731D01*
X178774Y274828D01*
X178809Y275036D01*
X178830Y275258D01*
X178836Y275494D01*
Y275501D01*
Y275528D01*
Y275570D01*
X178830Y275632D01*
Y275702D01*
X178823Y275785D01*
X178816Y275875D01*
X178809Y275979D01*
X178795Y276090D01*
X178781Y276201D01*
X178739Y276444D01*
X178677Y276686D01*
X178601Y276922D01*
Y276929D01*
X178587Y276950D01*
X178573Y276978D01*
X178559Y277019D01*
X178531Y277075D01*
X178497Y277130D01*
X178420Y277262D01*
X178316Y277414D01*
X178192Y277560D01*
X178039Y277706D01*
X177956Y277768D01*
X177866Y277831D01*
X177859D01*
X177845Y277844D01*
X177817Y277858D01*
X177776Y277879D01*
X177727Y277900D01*
X177672Y277928D01*
X177609Y277948D01*
X177540Y277976D01*
X177380Y278032D01*
X177193Y278080D01*
X176992Y278115D01*
X176888Y278122D01*
X176777Y278129D01*
X176708D01*
X176659Y278122D01*
X176597Y278115D01*
X176527Y278108D01*
X176444Y278094D01*
X176361Y278080D01*
X176167Y278032D01*
X176070Y277997D01*
X175966Y277955D01*
X175862Y277907D01*
X175765Y277851D01*
X175668Y277789D01*
X175571Y277719D01*
X175564Y277713D01*
X175550Y277699D01*
X175522Y277678D01*
X175487Y277643D01*
X175453Y277602D01*
X175404Y277546D01*
X175355Y277484D01*
X175300Y277414D01*
X175245Y277331D01*
X175189Y277241D01*
X175134Y277144D01*
X175078Y277033D01*
X175030Y276915D01*
X174981Y276783D01*
X174932Y276645D01*
X174898Y276499D01*
X174052Y276714D01*
Y276728D01*
X174066Y276763D01*
X174080Y276811D01*
X174107Y276887D01*
X174135Y276971D01*
X174177Y277075D01*
X174218Y277186D01*
X174274Y277304D01*
X174336Y277435D01*
X174405Y277560D01*
X174482Y277699D01*
X174572Y277831D01*
X174669Y277955D01*
X174773Y278080D01*
X174891Y278198D01*
X175016Y278309D01*
X175023Y278316D01*
X175050Y278330D01*
X175085Y278358D01*
X175141Y278392D01*
X175203Y278434D01*
X175286Y278482D01*
X175376Y278531D01*
X175487Y278579D01*
X175605Y278628D01*
X175730Y278676D01*
X175869Y278725D01*
X176021Y278767D01*
X176181Y278801D01*
X176347Y278829D01*
X176521Y278843D01*
X176708Y278850D01*
X176805D01*
X176881Y278843D01*
D02*
G37*
G36*
X101401Y53779D02*
X97705D01*
X97698D01*
X97670D01*
X97629D01*
X97566D01*
X97497Y53772D01*
X97421D01*
X97331Y53765D01*
X97240Y53758D01*
X97039Y53744D01*
X96838Y53717D01*
X96644Y53675D01*
X96554Y53654D01*
X96478Y53626D01*
X96471D01*
X96464Y53620D01*
X96443Y53613D01*
X96415Y53599D01*
X96339Y53557D01*
X96256Y53502D01*
X96152Y53432D01*
X96055Y53342D01*
X95958Y53231D01*
X95868Y53099D01*
Y53093D01*
X95861Y53079D01*
X95847Y53058D01*
X95833Y53030D01*
X95819Y52996D01*
X95805Y52947D01*
X95784Y52898D01*
X95764Y52843D01*
X95729Y52704D01*
X95694Y52545D01*
X95667Y52365D01*
X95660Y52170D01*
Y52080D01*
X95667Y52018D01*
X95673Y51941D01*
X95680Y51851D01*
X95694Y51754D01*
X95715Y51650D01*
X95764Y51435D01*
X95798Y51324D01*
X95840Y51213D01*
X95888Y51109D01*
X95944Y51012D01*
X96006Y50922D01*
X96082Y50839D01*
X96089Y50832D01*
X96103Y50818D01*
X96131Y50804D01*
X96166Y50777D01*
X96214Y50749D01*
X96277Y50714D01*
X96353Y50672D01*
X96443Y50638D01*
X96547Y50603D01*
X96665Y50562D01*
X96797Y50527D01*
X96942Y50499D01*
X97109Y50472D01*
X97289Y50451D01*
X97490Y50444D01*
X97705Y50437D01*
X101401D01*
Y49591D01*
X97705D01*
X97691D01*
X97663D01*
X97615D01*
X97546D01*
X97462Y49598D01*
X97372Y49605D01*
X97268Y49612D01*
X97150Y49619D01*
X96908Y49646D01*
X96651Y49681D01*
X96402Y49736D01*
X96284Y49771D01*
X96173Y49813D01*
X96166D01*
X96145Y49820D01*
X96117Y49833D01*
X96076Y49854D01*
X96027Y49882D01*
X95972Y49910D01*
X95847Y49993D01*
X95771Y50041D01*
X95701Y50097D01*
X95618Y50166D01*
X95542Y50236D01*
X95465Y50319D01*
X95389Y50402D01*
X95320Y50499D01*
X95250Y50603D01*
X95244Y50610D01*
X95237Y50631D01*
X95216Y50659D01*
X95195Y50707D01*
X95167Y50763D01*
X95140Y50832D01*
X95105Y50908D01*
X95077Y51005D01*
X95042Y51102D01*
X95008Y51213D01*
X94980Y51338D01*
X94952Y51470D01*
X94931Y51616D01*
X94911Y51768D01*
X94904Y51928D01*
X94897Y52094D01*
Y52184D01*
X94904Y52247D01*
Y52323D01*
X94911Y52406D01*
X94924Y52510D01*
X94938Y52614D01*
X94973Y52850D01*
X95028Y53099D01*
X95105Y53342D01*
X95146Y53460D01*
X95202Y53571D01*
X95209Y53578D01*
X95216Y53599D01*
X95237Y53626D01*
X95257Y53661D01*
X95292Y53710D01*
X95334Y53765D01*
X95375Y53821D01*
X95431Y53883D01*
X95555Y54022D01*
X95708Y54153D01*
X95888Y54278D01*
X95992Y54334D01*
X96096Y54382D01*
X96103D01*
X96124Y54389D01*
X96159Y54403D01*
X96207Y54417D01*
X96263Y54438D01*
X96339Y54459D01*
X96422Y54479D01*
X96519Y54500D01*
X96630Y54528D01*
X96748Y54549D01*
X96880Y54570D01*
X97026Y54583D01*
X97178Y54604D01*
X97345Y54611D01*
X97518Y54625D01*
X97705D01*
X101401D01*
Y53779D01*
D02*
G37*
G36*
X96797Y47712D02*
X96790D01*
X96769Y47705D01*
X96734Y47698D01*
X96686Y47684D01*
X96630Y47670D01*
X96568Y47656D01*
X96422Y47608D01*
X96263Y47545D01*
X96103Y47469D01*
X95958Y47372D01*
X95895Y47316D01*
X95833Y47261D01*
Y47254D01*
X95819Y47247D01*
X95805Y47226D01*
X95784Y47205D01*
X95743Y47136D01*
X95687Y47039D01*
X95632Y46921D01*
X95590Y46789D01*
X95555Y46630D01*
X95542Y46463D01*
Y46408D01*
X95549Y46366D01*
X95555Y46325D01*
X95562Y46262D01*
X95590Y46138D01*
X95632Y45985D01*
X95701Y45826D01*
X95750Y45749D01*
X95798Y45673D01*
X95854Y45597D01*
X95923Y45520D01*
X95930Y45514D01*
X95944Y45507D01*
X95965Y45486D01*
X95992Y45458D01*
X96027Y45430D01*
X96076Y45403D01*
X96124Y45368D01*
X96187Y45326D01*
X96325Y45257D01*
X96485Y45202D01*
X96672Y45153D01*
X96769Y45146D01*
X96873Y45139D01*
X96880D01*
X96894D01*
X96929D01*
X96963Y45146D01*
X97012Y45153D01*
X97060Y45160D01*
X97185Y45181D01*
X97331Y45229D01*
X97476Y45292D01*
X97553Y45333D01*
X97622Y45382D01*
X97691Y45437D01*
X97761Y45500D01*
X97767Y45507D01*
X97774Y45514D01*
X97795Y45534D01*
X97816Y45562D01*
X97844Y45597D01*
X97872Y45638D01*
X97941Y45742D01*
X98003Y45874D01*
X98059Y46027D01*
X98100Y46200D01*
X98107Y46297D01*
X98114Y46394D01*
Y46436D01*
X98107Y46484D01*
Y46547D01*
X98093Y46630D01*
X98080Y46720D01*
X98059Y46831D01*
X98031Y46949D01*
X98717Y46866D01*
Y46852D01*
X98711Y46817D01*
X98704Y46775D01*
Y46685D01*
X98711Y46651D01*
Y46602D01*
X98717Y46554D01*
X98738Y46436D01*
X98766Y46297D01*
X98815Y46144D01*
X98877Y45985D01*
X98967Y45833D01*
Y45826D01*
X98981Y45812D01*
X98995Y45798D01*
X99016Y45770D01*
X99078Y45701D01*
X99168Y45624D01*
X99279Y45555D01*
X99418Y45486D01*
X99494Y45458D01*
X99584Y45444D01*
X99674Y45430D01*
X99771Y45423D01*
X99778D01*
X99792D01*
X99813D01*
X99848Y45430D01*
X99924Y45437D01*
X100028Y45458D01*
X100139Y45493D01*
X100257Y45548D01*
X100382Y45624D01*
X100437Y45666D01*
X100493Y45722D01*
X100506Y45735D01*
X100534Y45777D01*
X100583Y45839D01*
X100638Y45923D01*
X100687Y46034D01*
X100735Y46165D01*
X100763Y46311D01*
X100777Y46477D01*
Y46519D01*
X100770Y46554D01*
Y46595D01*
X100763Y46637D01*
X100742Y46748D01*
X100708Y46866D01*
X100652Y46997D01*
X100583Y47122D01*
X100486Y47247D01*
X100472Y47261D01*
X100430Y47296D01*
X100368Y47351D01*
X100271Y47407D01*
X100153Y47476D01*
X100000Y47538D01*
X99827Y47594D01*
X99626Y47635D01*
X99765Y48419D01*
X99771D01*
X99799Y48412D01*
X99841Y48405D01*
X99896Y48391D01*
X99959Y48370D01*
X100035Y48350D01*
X100118Y48322D01*
X100208Y48287D01*
X100409Y48197D01*
X100506Y48148D01*
X100611Y48086D01*
X100708Y48017D01*
X100805Y47941D01*
X100902Y47857D01*
X100985Y47767D01*
X100992Y47760D01*
X101006Y47746D01*
X101027Y47712D01*
X101054Y47677D01*
X101089Y47621D01*
X101124Y47566D01*
X101165Y47497D01*
X101207Y47414D01*
X101242Y47330D01*
X101283Y47233D01*
X101318Y47129D01*
X101353Y47018D01*
X101380Y46893D01*
X101401Y46769D01*
X101415Y46637D01*
X101422Y46498D01*
Y46408D01*
X101415Y46360D01*
X101408Y46311D01*
X101394Y46179D01*
X101366Y46034D01*
X101325Y45867D01*
X101269Y45701D01*
X101193Y45534D01*
Y45527D01*
X101186Y45514D01*
X101172Y45493D01*
X101151Y45458D01*
X101103Y45382D01*
X101033Y45285D01*
X100943Y45174D01*
X100839Y45063D01*
X100722Y44952D01*
X100583Y44855D01*
X100576D01*
X100569Y44848D01*
X100541Y44834D01*
X100513Y44820D01*
X100479Y44799D01*
X100437Y44778D01*
X100333Y44737D01*
X100208Y44695D01*
X100070Y44654D01*
X99917Y44626D01*
X99758Y44619D01*
X99751D01*
X99737D01*
X99716D01*
X99688D01*
X99605Y44633D01*
X99508Y44647D01*
X99390Y44675D01*
X99265Y44716D01*
X99134Y44771D01*
X99002Y44848D01*
X98995D01*
X98988Y44855D01*
X98946Y44889D01*
X98884Y44938D01*
X98808Y45014D01*
X98717Y45104D01*
X98627Y45222D01*
X98544Y45354D01*
X98461Y45507D01*
Y45500D01*
X98454Y45479D01*
X98447Y45451D01*
X98433Y45409D01*
X98419Y45368D01*
X98399Y45312D01*
X98343Y45181D01*
X98267Y45042D01*
X98177Y44896D01*
X98059Y44751D01*
X97913Y44626D01*
X97906Y44619D01*
X97892Y44612D01*
X97872Y44598D01*
X97837Y44577D01*
X97802Y44550D01*
X97754Y44522D01*
X97698Y44494D01*
X97629Y44466D01*
X97559Y44439D01*
X97483Y44411D01*
X97310Y44356D01*
X97109Y44321D01*
X96998Y44307D01*
X96887D01*
X96880D01*
X96852D01*
X96804Y44314D01*
X96748D01*
X96672Y44328D01*
X96589Y44342D01*
X96499Y44356D01*
X96395Y44383D01*
X96284Y44418D01*
X96173Y44460D01*
X96055Y44508D01*
X95937Y44570D01*
X95812Y44640D01*
X95694Y44723D01*
X95576Y44813D01*
X95465Y44924D01*
X95458Y44931D01*
X95438Y44952D01*
X95410Y44987D01*
X95375Y45035D01*
X95334Y45090D01*
X95285Y45167D01*
X95230Y45250D01*
X95181Y45347D01*
X95126Y45451D01*
X95070Y45569D01*
X95022Y45694D01*
X94980Y45833D01*
X94945Y45978D01*
X94918Y46131D01*
X94897Y46290D01*
X94890Y46463D01*
Y46498D01*
X94897Y46547D01*
Y46602D01*
X94904Y46678D01*
X94918Y46762D01*
X94931Y46852D01*
X94952Y46956D01*
X94980Y47067D01*
X95015Y47178D01*
X95049Y47296D01*
X95098Y47414D01*
X95160Y47531D01*
X95223Y47642D01*
X95299Y47760D01*
X95389Y47864D01*
X95396Y47871D01*
X95410Y47885D01*
X95438Y47913D01*
X95479Y47954D01*
X95528Y47996D01*
X95590Y48045D01*
X95660Y48093D01*
X95743Y48148D01*
X95826Y48204D01*
X95930Y48259D01*
X96034Y48315D01*
X96152Y48363D01*
X96277Y48405D01*
X96408Y48447D01*
X96547Y48474D01*
X96693Y48495D01*
X96797Y47712D01*
D02*
G37*
G36*
X186086Y27225D02*
X185240D01*
Y32870D01*
X182085D01*
Y33625D01*
X186086D01*
Y27225D01*
D02*
G37*
G36*
X179221Y28626D02*
X179235Y28640D01*
X179269Y28674D01*
X179332Y28723D01*
X179422Y28792D01*
X179526Y28876D01*
X179658Y28966D01*
X179803Y29063D01*
X179970Y29167D01*
X179977D01*
X179991Y29181D01*
X180011Y29194D01*
X180046Y29208D01*
X180088Y29236D01*
X180136Y29257D01*
X180247Y29319D01*
X180372Y29382D01*
X180511Y29451D01*
X180656Y29513D01*
X180795Y29569D01*
Y28813D01*
X180788Y28806D01*
X180767Y28799D01*
X180732Y28778D01*
X180684Y28758D01*
X180629Y28730D01*
X180559Y28688D01*
X180483Y28647D01*
X180407Y28605D01*
X180226Y28494D01*
X180032Y28362D01*
X179831Y28224D01*
X179644Y28064D01*
X179637Y28057D01*
X179623Y28043D01*
X179595Y28022D01*
X179561Y27988D01*
X179526Y27946D01*
X179477Y27905D01*
X179373Y27787D01*
X179256Y27662D01*
X179138Y27516D01*
X179034Y27364D01*
X178944Y27204D01*
X178437D01*
Y33625D01*
X179221D01*
Y28626D01*
D02*
G37*
G36*
X160054Y72984D02*
X160110D01*
X160186Y72970D01*
X160269Y72956D01*
X160359Y72942D01*
X160463Y72915D01*
X160574Y72880D01*
X160685Y72838D01*
X160803Y72790D01*
X160921Y72727D01*
X161046Y72658D01*
X161164Y72575D01*
X161282Y72485D01*
X161392Y72374D01*
X161399Y72367D01*
X161420Y72346D01*
X161448Y72311D01*
X161483Y72263D01*
X161524Y72207D01*
X161573Y72131D01*
X161628Y72048D01*
X161677Y71951D01*
X161732Y71847D01*
X161788Y71729D01*
X161836Y71604D01*
X161878Y71465D01*
X161913Y71320D01*
X161940Y71167D01*
X161961Y71008D01*
X161968Y70834D01*
Y70800D01*
X161961Y70751D01*
Y70696D01*
X161954Y70619D01*
X161940Y70536D01*
X161926Y70446D01*
X161906Y70342D01*
X161878Y70231D01*
X161843Y70120D01*
X161809Y70002D01*
X161760Y69884D01*
X161698Y69767D01*
X161635Y69655D01*
X161559Y69538D01*
X161469Y69434D01*
X161462Y69427D01*
X161448Y69413D01*
X161420Y69385D01*
X161379Y69344D01*
X161330Y69302D01*
X161268Y69253D01*
X161198Y69205D01*
X161115Y69149D01*
X161032Y69094D01*
X160928Y69038D01*
X160824Y68983D01*
X160706Y68934D01*
X160581Y68893D01*
X160450Y68851D01*
X160311Y68823D01*
X160165Y68803D01*
X160061Y69586D01*
X160068D01*
X160089Y69593D01*
X160124Y69600D01*
X160172Y69614D01*
X160228Y69628D01*
X160290Y69642D01*
X160436Y69690D01*
X160595Y69753D01*
X160755Y69829D01*
X160900Y69926D01*
X160963Y69981D01*
X161025Y70037D01*
Y70044D01*
X161039Y70051D01*
X161053Y70072D01*
X161073Y70092D01*
X161115Y70162D01*
X161171Y70259D01*
X161226Y70377D01*
X161268Y70508D01*
X161302Y70668D01*
X161316Y70834D01*
Y70890D01*
X161309Y70931D01*
X161302Y70973D01*
X161295Y71035D01*
X161268Y71160D01*
X161226Y71313D01*
X161157Y71472D01*
X161108Y71549D01*
X161060Y71625D01*
X161004Y71701D01*
X160935Y71777D01*
X160928Y71784D01*
X160914Y71791D01*
X160893Y71812D01*
X160865Y71840D01*
X160831Y71867D01*
X160782Y71895D01*
X160734Y71930D01*
X160671Y71972D01*
X160533Y72041D01*
X160373Y72096D01*
X160186Y72145D01*
X160089Y72152D01*
X159985Y72159D01*
X159978D01*
X159964D01*
X159929D01*
X159895Y72152D01*
X159846Y72145D01*
X159798Y72138D01*
X159673Y72117D01*
X159527Y72069D01*
X159382Y72006D01*
X159305Y71965D01*
X159236Y71916D01*
X159167Y71861D01*
X159097Y71798D01*
X159090Y71791D01*
X159083Y71784D01*
X159063Y71764D01*
X159042Y71736D01*
X159014Y71701D01*
X158986Y71659D01*
X158917Y71556D01*
X158855Y71424D01*
X158799Y71271D01*
X158757Y71098D01*
X158751Y71001D01*
X158744Y70904D01*
Y70862D01*
X158751Y70813D01*
Y70751D01*
X158764Y70668D01*
X158778Y70578D01*
X158799Y70467D01*
X158827Y70349D01*
X158140Y70432D01*
Y70446D01*
X158147Y70481D01*
X158154Y70522D01*
Y70613D01*
X158147Y70647D01*
Y70696D01*
X158140Y70744D01*
X158120Y70862D01*
X158092Y71001D01*
X158043Y71153D01*
X157981Y71313D01*
X157891Y71465D01*
Y71472D01*
X157877Y71486D01*
X157863Y71500D01*
X157842Y71528D01*
X157780Y71597D01*
X157690Y71673D01*
X157579Y71743D01*
X157440Y71812D01*
X157364Y71840D01*
X157274Y71854D01*
X157184Y71867D01*
X157086Y71874D01*
X157079D01*
X157066D01*
X157045D01*
X157010Y71867D01*
X156934Y71861D01*
X156830Y71840D01*
X156719Y71805D01*
X156601Y71750D01*
X156476Y71673D01*
X156421Y71632D01*
X156365Y71576D01*
X156351Y71562D01*
X156324Y71521D01*
X156275Y71458D01*
X156220Y71375D01*
X156171Y71264D01*
X156123Y71132D01*
X156095Y70987D01*
X156081Y70820D01*
Y70779D01*
X156088Y70744D01*
Y70703D01*
X156095Y70661D01*
X156116Y70550D01*
X156150Y70432D01*
X156206Y70300D01*
X156275Y70176D01*
X156372Y70051D01*
X156386Y70037D01*
X156428Y70002D01*
X156490Y69947D01*
X156587Y69891D01*
X156705Y69822D01*
X156858Y69760D01*
X157031Y69704D01*
X157232Y69662D01*
X157093Y68879D01*
X157086D01*
X157059Y68886D01*
X157017Y68893D01*
X156962Y68907D01*
X156899Y68927D01*
X156823Y68948D01*
X156740Y68976D01*
X156650Y69011D01*
X156448Y69101D01*
X156351Y69149D01*
X156247Y69212D01*
X156150Y69281D01*
X156053Y69357D01*
X155956Y69441D01*
X155873Y69531D01*
X155866Y69538D01*
X155852Y69552D01*
X155831Y69586D01*
X155803Y69621D01*
X155769Y69676D01*
X155734Y69732D01*
X155693Y69801D01*
X155651Y69884D01*
X155616Y69968D01*
X155575Y70065D01*
X155540Y70169D01*
X155505Y70280D01*
X155478Y70404D01*
X155457Y70529D01*
X155443Y70661D01*
X155436Y70800D01*
Y70890D01*
X155443Y70938D01*
X155450Y70987D01*
X155464Y71119D01*
X155492Y71264D01*
X155533Y71431D01*
X155589Y71597D01*
X155665Y71764D01*
Y71771D01*
X155672Y71784D01*
X155686Y71805D01*
X155707Y71840D01*
X155755Y71916D01*
X155824Y72013D01*
X155914Y72124D01*
X156018Y72235D01*
X156136Y72346D01*
X156275Y72443D01*
X156282D01*
X156289Y72450D01*
X156317Y72464D01*
X156344Y72478D01*
X156379Y72499D01*
X156421Y72519D01*
X156525Y72561D01*
X156650Y72603D01*
X156788Y72644D01*
X156941Y72672D01*
X157100Y72679D01*
X157107D01*
X157121D01*
X157142D01*
X157170D01*
X157253Y72665D01*
X157350Y72651D01*
X157468Y72623D01*
X157593Y72582D01*
X157724Y72526D01*
X157856Y72450D01*
X157863D01*
X157870Y72443D01*
X157912Y72408D01*
X157974Y72360D01*
X158050Y72284D01*
X158140Y72193D01*
X158230Y72076D01*
X158314Y71944D01*
X158397Y71791D01*
Y71798D01*
X158404Y71819D01*
X158411Y71847D01*
X158425Y71888D01*
X158439Y71930D01*
X158459Y71985D01*
X158515Y72117D01*
X158591Y72256D01*
X158681Y72401D01*
X158799Y72547D01*
X158945Y72672D01*
X158952Y72679D01*
X158966Y72686D01*
X158986Y72700D01*
X159021Y72720D01*
X159056Y72748D01*
X159104Y72776D01*
X159160Y72804D01*
X159229Y72831D01*
X159298Y72859D01*
X159375Y72887D01*
X159548Y72942D01*
X159749Y72977D01*
X159860Y72991D01*
X159971D01*
X159978D01*
X160006D01*
X160054Y72984D01*
D02*
G37*
G36*
X159874Y68061D02*
X159923Y68047D01*
X159999Y68019D01*
X160082Y67991D01*
X160186Y67950D01*
X160297Y67908D01*
X160415Y67853D01*
X160546Y67790D01*
X160671Y67721D01*
X160810Y67645D01*
X160942Y67554D01*
X161067Y67457D01*
X161191Y67353D01*
X161309Y67235D01*
X161420Y67111D01*
X161427Y67104D01*
X161441Y67076D01*
X161469Y67041D01*
X161504Y66986D01*
X161545Y66923D01*
X161594Y66840D01*
X161642Y66750D01*
X161691Y66639D01*
X161739Y66521D01*
X161788Y66396D01*
X161836Y66258D01*
X161878Y66105D01*
X161913Y65946D01*
X161940Y65779D01*
X161954Y65606D01*
X161961Y65419D01*
Y65322D01*
X161954Y65245D01*
X161947Y65162D01*
X161940Y65058D01*
X161926Y64947D01*
X161906Y64822D01*
X161885Y64691D01*
X161857Y64552D01*
X161822Y64413D01*
X161788Y64275D01*
X161739Y64129D01*
X161684Y63990D01*
X161621Y63858D01*
X161545Y63734D01*
X161538Y63727D01*
X161524Y63706D01*
X161504Y63671D01*
X161469Y63630D01*
X161420Y63574D01*
X161372Y63512D01*
X161309Y63443D01*
X161233Y63366D01*
X161150Y63290D01*
X161060Y63207D01*
X160963Y63130D01*
X160852Y63047D01*
X160734Y62964D01*
X160609Y62888D01*
X160470Y62818D01*
X160325Y62749D01*
X160318Y62742D01*
X160290Y62735D01*
X160241Y62721D01*
X160186Y62701D01*
X160110Y62673D01*
X160026Y62645D01*
X159923Y62617D01*
X159811Y62583D01*
X159687Y62555D01*
X159555Y62520D01*
X159416Y62492D01*
X159264Y62472D01*
X158945Y62430D01*
X158778Y62423D01*
X158612Y62416D01*
X158598D01*
X158570D01*
X158515D01*
X158446Y62423D01*
X158355Y62430D01*
X158251Y62437D01*
X158140Y62451D01*
X158016Y62465D01*
X157884Y62486D01*
X157745Y62506D01*
X157447Y62576D01*
X157301Y62624D01*
X157156Y62673D01*
X157003Y62728D01*
X156865Y62798D01*
X156858Y62804D01*
X156830Y62818D01*
X156795Y62839D01*
X156740Y62867D01*
X156677Y62909D01*
X156608Y62957D01*
X156532Y63013D01*
X156441Y63075D01*
X156358Y63151D01*
X156261Y63228D01*
X156171Y63318D01*
X156074Y63415D01*
X155984Y63519D01*
X155894Y63630D01*
X155810Y63755D01*
X155734Y63879D01*
X155727Y63886D01*
X155720Y63914D01*
X155700Y63949D01*
X155672Y64004D01*
X155644Y64067D01*
X155609Y64150D01*
X155575Y64240D01*
X155540Y64337D01*
X155505Y64448D01*
X155471Y64573D01*
X155436Y64698D01*
X155408Y64836D01*
X155360Y65121D01*
X155353Y65273D01*
X155346Y65433D01*
Y65523D01*
X155353Y65592D01*
X155360Y65675D01*
X155374Y65772D01*
X155387Y65876D01*
X155408Y65994D01*
X155436Y66119D01*
X155464Y66251D01*
X155505Y66383D01*
X155554Y66521D01*
X155609Y66660D01*
X155679Y66792D01*
X155748Y66923D01*
X155838Y67048D01*
X155845Y67055D01*
X155859Y67076D01*
X155887Y67111D01*
X155928Y67152D01*
X155977Y67208D01*
X156039Y67270D01*
X156109Y67333D01*
X156192Y67409D01*
X156282Y67485D01*
X156386Y67561D01*
X156497Y67638D01*
X156622Y67707D01*
X156754Y67783D01*
X156899Y67846D01*
X157052Y67908D01*
X157211Y67964D01*
X157405Y67132D01*
X157398D01*
X157378Y67118D01*
X157336Y67111D01*
X157288Y67090D01*
X157232Y67069D01*
X157170Y67034D01*
X157017Y66965D01*
X156851Y66875D01*
X156677Y66757D01*
X156518Y66632D01*
X156448Y66556D01*
X156386Y66480D01*
X156379Y66473D01*
X156372Y66459D01*
X156358Y66438D01*
X156337Y66403D01*
X156310Y66362D01*
X156282Y66313D01*
X156254Y66258D01*
X156227Y66188D01*
X156199Y66112D01*
X156171Y66036D01*
X156116Y65856D01*
X156081Y65648D01*
X156067Y65537D01*
Y65349D01*
X156074Y65294D01*
X156081Y65231D01*
X156088Y65155D01*
X156095Y65072D01*
X156109Y64989D01*
X156157Y64788D01*
X156220Y64580D01*
X156261Y64476D01*
X156310Y64372D01*
X156365Y64275D01*
X156428Y64177D01*
X156435Y64171D01*
X156441Y64157D01*
X156462Y64129D01*
X156490Y64094D01*
X156525Y64060D01*
X156573Y64011D01*
X156622Y63963D01*
X156677Y63907D01*
X156747Y63852D01*
X156816Y63789D01*
X156975Y63678D01*
X157163Y63574D01*
X157378Y63484D01*
X157385D01*
X157405Y63477D01*
X157440Y63463D01*
X157482Y63456D01*
X157537Y63443D01*
X157599Y63422D01*
X157676Y63408D01*
X157752Y63387D01*
X157842Y63366D01*
X157939Y63352D01*
X158147Y63318D01*
X158369Y63297D01*
X158605Y63290D01*
X158612D01*
X158640D01*
X158681D01*
X158744Y63297D01*
X158813D01*
X158896Y63304D01*
X158986Y63311D01*
X159090Y63318D01*
X159201Y63331D01*
X159312Y63345D01*
X159555Y63387D01*
X159798Y63449D01*
X160033Y63526D01*
X160040D01*
X160061Y63540D01*
X160089Y63553D01*
X160131Y63567D01*
X160186Y63595D01*
X160241Y63630D01*
X160373Y63706D01*
X160526Y63810D01*
X160671Y63935D01*
X160817Y64087D01*
X160879Y64171D01*
X160942Y64261D01*
Y64268D01*
X160956Y64282D01*
X160970Y64309D01*
X160990Y64351D01*
X161011Y64399D01*
X161039Y64455D01*
X161060Y64517D01*
X161087Y64587D01*
X161143Y64746D01*
X161191Y64933D01*
X161226Y65134D01*
X161233Y65238D01*
X161240Y65349D01*
Y65419D01*
X161233Y65467D01*
X161226Y65530D01*
X161219Y65599D01*
X161205Y65682D01*
X161191Y65766D01*
X161143Y65960D01*
X161108Y66057D01*
X161067Y66161D01*
X161018Y66265D01*
X160963Y66362D01*
X160900Y66459D01*
X160831Y66556D01*
X160824Y66563D01*
X160810Y66577D01*
X160789Y66604D01*
X160755Y66639D01*
X160713Y66674D01*
X160658Y66722D01*
X160595Y66771D01*
X160526Y66826D01*
X160443Y66882D01*
X160352Y66937D01*
X160255Y66993D01*
X160144Y67048D01*
X160026Y67097D01*
X159895Y67145D01*
X159756Y67194D01*
X159610Y67229D01*
X159825Y68074D01*
X159839D01*
X159874Y68061D01*
D02*
G37*
G36*
X219527Y69858D02*
X219617Y69851D01*
X219721Y69844D01*
X219832Y69830D01*
X219957Y69816D01*
X220089Y69796D01*
X220227Y69775D01*
X220525Y69706D01*
X220671Y69657D01*
X220817Y69608D01*
X220969Y69553D01*
X221108Y69484D01*
X221115Y69477D01*
X221143Y69463D01*
X221177Y69442D01*
X221233Y69414D01*
X221295Y69373D01*
X221365Y69324D01*
X221441Y69269D01*
X221531Y69206D01*
X221614Y69130D01*
X221711Y69054D01*
X221801Y68963D01*
X221898Y68867D01*
X221989Y68762D01*
X222079Y68651D01*
X222162Y68527D01*
X222238Y68402D01*
X222245Y68395D01*
X222252Y68367D01*
X222273Y68333D01*
X222301Y68277D01*
X222328Y68215D01*
X222363Y68131D01*
X222398Y68041D01*
X222432Y67944D01*
X222467Y67833D01*
X222502Y67708D01*
X222536Y67584D01*
X222564Y67445D01*
X222613Y67161D01*
X222620Y67008D01*
X222627Y66849D01*
Y66758D01*
X222620Y66689D01*
X222613Y66606D01*
X222599Y66509D01*
X222585Y66405D01*
X222564Y66287D01*
X222536Y66162D01*
X222509Y66030D01*
X222467Y65899D01*
X222419Y65760D01*
X222363Y65621D01*
X222294Y65490D01*
X222224Y65358D01*
X222134Y65233D01*
X222127Y65226D01*
X222113Y65205D01*
X222086Y65170D01*
X222044Y65129D01*
X221996Y65073D01*
X221933Y65011D01*
X221864Y64949D01*
X221781Y64872D01*
X221691Y64796D01*
X221586Y64720D01*
X221476Y64644D01*
X221351Y64574D01*
X221219Y64498D01*
X221073Y64436D01*
X220921Y64373D01*
X220761Y64318D01*
X220567Y65150D01*
X220574D01*
X220595Y65164D01*
X220637Y65170D01*
X220685Y65191D01*
X220741Y65212D01*
X220803Y65247D01*
X220955Y65316D01*
X221122Y65406D01*
X221295Y65524D01*
X221455Y65649D01*
X221524Y65725D01*
X221586Y65802D01*
X221593Y65809D01*
X221600Y65822D01*
X221614Y65843D01*
X221635Y65878D01*
X221663Y65919D01*
X221691Y65968D01*
X221718Y66023D01*
X221746Y66093D01*
X221774Y66169D01*
X221801Y66245D01*
X221857Y66426D01*
X221892Y66634D01*
X221905Y66745D01*
Y66932D01*
X221898Y66987D01*
X221892Y67050D01*
X221885Y67126D01*
X221878Y67209D01*
X221864Y67292D01*
X221815Y67494D01*
X221753Y67702D01*
X221711Y67806D01*
X221663Y67909D01*
X221607Y68007D01*
X221545Y68104D01*
X221538Y68111D01*
X221531Y68124D01*
X221510Y68152D01*
X221482Y68187D01*
X221448Y68222D01*
X221399Y68270D01*
X221351Y68319D01*
X221295Y68374D01*
X221226Y68430D01*
X221157Y68492D01*
X220997Y68603D01*
X220810Y68707D01*
X220595Y68797D01*
X220588D01*
X220567Y68804D01*
X220532Y68818D01*
X220491Y68825D01*
X220435Y68839D01*
X220373Y68860D01*
X220297Y68873D01*
X220220Y68894D01*
X220130Y68915D01*
X220033Y68929D01*
X219825Y68963D01*
X219603Y68984D01*
X219368Y68991D01*
X219361D01*
X219333D01*
X219291D01*
X219229Y68984D01*
X219160D01*
X219076Y68977D01*
X218986Y68970D01*
X218882Y68963D01*
X218771Y68950D01*
X218660Y68936D01*
X218417Y68894D01*
X218175Y68832D01*
X217939Y68755D01*
X217932D01*
X217911Y68742D01*
X217884Y68728D01*
X217842Y68714D01*
X217787Y68686D01*
X217731Y68651D01*
X217599Y68575D01*
X217447Y68471D01*
X217301Y68346D01*
X217155Y68194D01*
X217093Y68111D01*
X217031Y68021D01*
Y68014D01*
X217017Y68000D01*
X217003Y67972D01*
X216982Y67930D01*
X216961Y67882D01*
X216934Y67826D01*
X216913Y67764D01*
X216885Y67695D01*
X216830Y67535D01*
X216781Y67348D01*
X216746Y67147D01*
X216739Y67043D01*
X216733Y66932D01*
Y66863D01*
X216739Y66814D01*
X216746Y66751D01*
X216753Y66682D01*
X216767Y66599D01*
X216781Y66516D01*
X216830Y66322D01*
X216864Y66224D01*
X216906Y66121D01*
X216954Y66017D01*
X217010Y65919D01*
X217072Y65822D01*
X217142Y65725D01*
X217149Y65718D01*
X217162Y65704D01*
X217183Y65677D01*
X217218Y65642D01*
X217260Y65607D01*
X217315Y65559D01*
X217377Y65510D01*
X217447Y65455D01*
X217530Y65399D01*
X217620Y65344D01*
X217717Y65288D01*
X217828Y65233D01*
X217946Y65184D01*
X218078Y65136D01*
X218216Y65087D01*
X218362Y65053D01*
X218147Y64207D01*
X218133D01*
X218099Y64220D01*
X218050Y64234D01*
X217974Y64262D01*
X217890Y64290D01*
X217787Y64331D01*
X217676Y64373D01*
X217558Y64429D01*
X217426Y64491D01*
X217301Y64560D01*
X217162Y64637D01*
X217031Y64727D01*
X216906Y64824D01*
X216781Y64928D01*
X216663Y65046D01*
X216552Y65170D01*
X216545Y65177D01*
X216531Y65205D01*
X216504Y65240D01*
X216469Y65295D01*
X216427Y65358D01*
X216379Y65441D01*
X216330Y65531D01*
X216282Y65642D01*
X216233Y65760D01*
X216185Y65885D01*
X216136Y66023D01*
X216095Y66176D01*
X216060Y66336D01*
X216032Y66502D01*
X216018Y66675D01*
X216011Y66863D01*
Y66960D01*
X216018Y67036D01*
X216025Y67119D01*
X216032Y67223D01*
X216046Y67334D01*
X216067Y67459D01*
X216088Y67591D01*
X216115Y67729D01*
X216150Y67868D01*
X216185Y68007D01*
X216233Y68152D01*
X216289Y68291D01*
X216351Y68423D01*
X216427Y68548D01*
X216434Y68554D01*
X216448Y68575D01*
X216469Y68610D01*
X216504Y68651D01*
X216552Y68707D01*
X216601Y68769D01*
X216663Y68839D01*
X216739Y68915D01*
X216823Y68991D01*
X216913Y69075D01*
X217010Y69151D01*
X217121Y69234D01*
X217239Y69317D01*
X217363Y69394D01*
X217502Y69463D01*
X217648Y69532D01*
X217655Y69539D01*
X217682Y69546D01*
X217731Y69560D01*
X217787Y69581D01*
X217863Y69608D01*
X217946Y69636D01*
X218050Y69664D01*
X218161Y69699D01*
X218286Y69726D01*
X218417Y69761D01*
X218556Y69789D01*
X218709Y69809D01*
X219028Y69851D01*
X219194Y69858D01*
X219361Y69865D01*
X219374D01*
X219402D01*
X219458D01*
X219527Y69858D01*
D02*
G37*
G36*
X216289Y63583D02*
X216372Y63576D01*
X216462Y63555D01*
X216559Y63534D01*
X216656Y63499D01*
X216663D01*
X216677Y63492D01*
X216698Y63485D01*
X216733Y63472D01*
X216767Y63451D01*
X216816Y63430D01*
X216927Y63375D01*
X217058Y63305D01*
X217204Y63215D01*
X217357Y63111D01*
X217509Y62986D01*
X217516Y62979D01*
X217530Y62972D01*
X217551Y62952D01*
X217585Y62917D01*
X217620Y62882D01*
X217669Y62834D01*
X217724Y62785D01*
X217787Y62723D01*
X217856Y62653D01*
X217925Y62577D01*
X218008Y62494D01*
X218092Y62397D01*
X218182Y62300D01*
X218272Y62189D01*
X218369Y62078D01*
X218473Y61953D01*
X218480Y61939D01*
X218515Y61905D01*
X218556Y61856D01*
X218619Y61787D01*
X218688Y61703D01*
X218771Y61606D01*
X218861Y61495D01*
X218965Y61385D01*
X219180Y61149D01*
X219409Y60920D01*
X219520Y60809D01*
X219631Y60705D01*
X219735Y60615D01*
X219832Y60539D01*
X219839Y60532D01*
X219853Y60525D01*
X219881Y60504D01*
X219915Y60483D01*
X219964Y60448D01*
X220012Y60421D01*
X220137Y60351D01*
X220283Y60282D01*
X220442Y60219D01*
X220609Y60178D01*
X220692Y60171D01*
X220775Y60164D01*
X220782D01*
X220796D01*
X220824D01*
X220851Y60171D01*
X220893D01*
X220942Y60185D01*
X221046Y60206D01*
X221170Y60247D01*
X221302Y60310D01*
X221371Y60344D01*
X221434Y60393D01*
X221496Y60441D01*
X221559Y60504D01*
X221566Y60511D01*
X221573Y60518D01*
X221586Y60539D01*
X221607Y60566D01*
X221635Y60601D01*
X221663Y60642D01*
X221725Y60740D01*
X221781Y60871D01*
X221836Y61017D01*
X221871Y61190D01*
X221885Y61287D01*
Y61440D01*
X221878Y61481D01*
Y61530D01*
X221864Y61586D01*
X221843Y61710D01*
X221801Y61856D01*
X221739Y62009D01*
X221697Y62085D01*
X221656Y62161D01*
X221600Y62230D01*
X221538Y62300D01*
X221531Y62307D01*
X221524Y62314D01*
X221503Y62327D01*
X221476Y62355D01*
X221441Y62376D01*
X221399Y62404D01*
X221351Y62439D01*
X221295Y62466D01*
X221233Y62501D01*
X221164Y62529D01*
X220997Y62584D01*
X220817Y62626D01*
X220713Y62633D01*
X220602Y62639D01*
X220685Y63444D01*
X220699D01*
X220727Y63437D01*
X220768Y63430D01*
X220831Y63423D01*
X220907Y63409D01*
X220997Y63388D01*
X221094Y63368D01*
X221198Y63333D01*
X221302Y63298D01*
X221420Y63257D01*
X221531Y63201D01*
X221642Y63146D01*
X221760Y63076D01*
X221864Y63000D01*
X221968Y62917D01*
X222058Y62820D01*
X222065Y62813D01*
X222079Y62792D01*
X222100Y62764D01*
X222134Y62723D01*
X222169Y62667D01*
X222211Y62598D01*
X222252Y62522D01*
X222301Y62432D01*
X222342Y62334D01*
X222384Y62224D01*
X222425Y62106D01*
X222460Y61974D01*
X222495Y61835D01*
X222516Y61690D01*
X222530Y61530D01*
X222536Y61364D01*
Y61273D01*
X222530Y61211D01*
X222523Y61135D01*
X222509Y61045D01*
X222495Y60941D01*
X222474Y60837D01*
X222446Y60719D01*
X222412Y60601D01*
X222370Y60476D01*
X222321Y60358D01*
X222259Y60233D01*
X222190Y60115D01*
X222113Y60005D01*
X222023Y59900D01*
X222016Y59894D01*
X222003Y59880D01*
X221968Y59852D01*
X221933Y59817D01*
X221885Y59776D01*
X221822Y59727D01*
X221753Y59679D01*
X221670Y59630D01*
X221586Y59582D01*
X221489Y59533D01*
X221385Y59485D01*
X221274Y59443D01*
X221150Y59408D01*
X221025Y59380D01*
X220893Y59367D01*
X220754Y59360D01*
X220747D01*
X220741D01*
X220720D01*
X220692D01*
X220616Y59367D01*
X220519Y59380D01*
X220401Y59401D01*
X220276Y59429D01*
X220137Y59464D01*
X219998Y59519D01*
X219992D01*
X219985Y59526D01*
X219964Y59533D01*
X219936Y59547D01*
X219860Y59588D01*
X219763Y59644D01*
X219645Y59720D01*
X219513Y59810D01*
X219374Y59914D01*
X219222Y60046D01*
X219215Y60053D01*
X219201Y60060D01*
X219180Y60088D01*
X219146Y60115D01*
X219104Y60157D01*
X219056Y60206D01*
X218993Y60261D01*
X218931Y60331D01*
X218854Y60414D01*
X218771Y60504D01*
X218674Y60601D01*
X218577Y60712D01*
X218466Y60830D01*
X218355Y60961D01*
X218230Y61107D01*
X218099Y61260D01*
X218092Y61267D01*
X218071Y61287D01*
X218043Y61329D01*
X218001Y61371D01*
X217953Y61433D01*
X217897Y61495D01*
X217773Y61641D01*
X217641Y61794D01*
X217502Y61939D01*
X217440Y62009D01*
X217384Y62071D01*
X217329Y62126D01*
X217287Y62168D01*
X217280Y62175D01*
X217253Y62203D01*
X217211Y62237D01*
X217155Y62286D01*
X217093Y62341D01*
X217024Y62397D01*
X216871Y62508D01*
Y59353D01*
X216115D01*
Y63590D01*
X216129D01*
X216164D01*
X216219D01*
X216289Y63583D01*
D02*
G37*
G36*
X217011Y54723D02*
X212012D01*
X212026Y54709D01*
X212060Y54675D01*
X212109Y54612D01*
X212178Y54522D01*
X212261Y54418D01*
X212351Y54286D01*
X212449Y54141D01*
X212553Y53974D01*
Y53967D01*
X212566Y53953D01*
X212580Y53932D01*
X212594Y53898D01*
X212622Y53856D01*
X212643Y53808D01*
X212705Y53697D01*
X212767Y53572D01*
X212837Y53433D01*
X212899Y53288D01*
X212955Y53149D01*
X212199D01*
X212192Y53156D01*
X212185Y53177D01*
X212164Y53211D01*
X212143Y53260D01*
X212116Y53315D01*
X212074Y53385D01*
X212032Y53461D01*
X211991Y53537D01*
X211880Y53717D01*
X211748Y53912D01*
X211609Y54113D01*
X211450Y54300D01*
X211443Y54307D01*
X211429Y54321D01*
X211408Y54349D01*
X211374Y54383D01*
X211332Y54418D01*
X211290Y54466D01*
X211173Y54570D01*
X211048Y54688D01*
X210902Y54806D01*
X210750Y54910D01*
X210590Y55000D01*
Y55507D01*
X217011D01*
Y54723D01*
D02*
G37*
G36*
X215028Y51811D02*
X215077Y51797D01*
X215153Y51769D01*
X215236Y51741D01*
X215340Y51700D01*
X215451Y51658D01*
X215569Y51603D01*
X215701Y51540D01*
X215825Y51471D01*
X215964Y51395D01*
X216096Y51304D01*
X216221Y51207D01*
X216346Y51103D01*
X216463Y50985D01*
X216574Y50861D01*
X216581Y50854D01*
X216595Y50826D01*
X216623Y50791D01*
X216658Y50736D01*
X216699Y50673D01*
X216748Y50590D01*
X216796Y50500D01*
X216845Y50389D01*
X216893Y50271D01*
X216942Y50146D01*
X216990Y50008D01*
X217032Y49855D01*
X217067Y49696D01*
X217094Y49529D01*
X217108Y49356D01*
X217115Y49169D01*
Y49072D01*
X217108Y48995D01*
X217101Y48912D01*
X217094Y48808D01*
X217080Y48697D01*
X217060Y48572D01*
X217039Y48441D01*
X217011Y48302D01*
X216977Y48163D01*
X216942Y48025D01*
X216893Y47879D01*
X216838Y47740D01*
X216775Y47608D01*
X216699Y47484D01*
X216692Y47477D01*
X216678Y47456D01*
X216658Y47421D01*
X216623Y47380D01*
X216574Y47324D01*
X216526Y47262D01*
X216463Y47193D01*
X216387Y47116D01*
X216304Y47040D01*
X216214Y46957D01*
X216117Y46880D01*
X216006Y46797D01*
X215888Y46714D01*
X215763Y46638D01*
X215624Y46568D01*
X215479Y46499D01*
X215472Y46492D01*
X215444Y46485D01*
X215396Y46471D01*
X215340Y46451D01*
X215264Y46423D01*
X215180Y46395D01*
X215077Y46367D01*
X214966Y46333D01*
X214841Y46305D01*
X214709Y46270D01*
X214570Y46242D01*
X214418Y46222D01*
X214099Y46180D01*
X213932Y46173D01*
X213766Y46166D01*
X213752D01*
X213724D01*
X213669D01*
X213599Y46173D01*
X213509Y46180D01*
X213405Y46187D01*
X213294Y46201D01*
X213170Y46215D01*
X213038Y46235D01*
X212899Y46256D01*
X212601Y46326D01*
X212455Y46374D01*
X212310Y46423D01*
X212157Y46478D01*
X212019Y46548D01*
X212012Y46554D01*
X211984Y46568D01*
X211949Y46589D01*
X211894Y46617D01*
X211831Y46659D01*
X211762Y46707D01*
X211686Y46762D01*
X211596Y46825D01*
X211512Y46901D01*
X211415Y46978D01*
X211325Y47068D01*
X211228Y47165D01*
X211138Y47269D01*
X211048Y47380D01*
X210965Y47505D01*
X210888Y47629D01*
X210881Y47636D01*
X210874Y47664D01*
X210854Y47699D01*
X210826Y47754D01*
X210798Y47817D01*
X210763Y47900D01*
X210729Y47990D01*
X210694Y48087D01*
X210659Y48198D01*
X210625Y48323D01*
X210590Y48448D01*
X210562Y48586D01*
X210514Y48871D01*
X210507Y49023D01*
X210500Y49183D01*
Y49273D01*
X210507Y49342D01*
X210514Y49425D01*
X210528Y49522D01*
X210542Y49626D01*
X210562Y49744D01*
X210590Y49869D01*
X210618Y50001D01*
X210659Y50133D01*
X210708Y50271D01*
X210763Y50410D01*
X210833Y50542D01*
X210902Y50673D01*
X210992Y50798D01*
X210999Y50805D01*
X211013Y50826D01*
X211041Y50861D01*
X211082Y50902D01*
X211131Y50958D01*
X211193Y51020D01*
X211263Y51083D01*
X211346Y51159D01*
X211436Y51235D01*
X211540Y51311D01*
X211651Y51388D01*
X211776Y51457D01*
X211908Y51533D01*
X212053Y51596D01*
X212206Y51658D01*
X212365Y51714D01*
X212559Y50882D01*
X212553D01*
X212532Y50868D01*
X212490Y50861D01*
X212442Y50840D01*
X212386Y50819D01*
X212324Y50784D01*
X212171Y50715D01*
X212005Y50625D01*
X211831Y50507D01*
X211672Y50382D01*
X211602Y50306D01*
X211540Y50230D01*
X211533Y50223D01*
X211526Y50209D01*
X211512Y50188D01*
X211492Y50153D01*
X211464Y50112D01*
X211436Y50063D01*
X211408Y50008D01*
X211381Y49938D01*
X211353Y49862D01*
X211325Y49786D01*
X211270Y49606D01*
X211235Y49398D01*
X211221Y49287D01*
Y49099D01*
X211228Y49044D01*
X211235Y48981D01*
X211242Y48905D01*
X211249Y48822D01*
X211263Y48739D01*
X211311Y48538D01*
X211374Y48330D01*
X211415Y48226D01*
X211464Y48122D01*
X211519Y48025D01*
X211582Y47927D01*
X211589Y47921D01*
X211596Y47907D01*
X211616Y47879D01*
X211644Y47844D01*
X211679Y47810D01*
X211727Y47761D01*
X211776Y47712D01*
X211831Y47657D01*
X211901Y47602D01*
X211970Y47539D01*
X212129Y47428D01*
X212317Y47324D01*
X212532Y47234D01*
X212539D01*
X212559Y47227D01*
X212594Y47213D01*
X212636Y47206D01*
X212691Y47193D01*
X212754Y47172D01*
X212830Y47158D01*
X212906Y47137D01*
X212996Y47116D01*
X213093Y47102D01*
X213301Y47068D01*
X213523Y47047D01*
X213759Y47040D01*
X213766D01*
X213794D01*
X213835D01*
X213898Y47047D01*
X213967D01*
X214050Y47054D01*
X214140Y47061D01*
X214244Y47068D01*
X214355Y47081D01*
X214466Y47095D01*
X214709Y47137D01*
X214952Y47199D01*
X215187Y47276D01*
X215194D01*
X215215Y47290D01*
X215243Y47303D01*
X215285Y47317D01*
X215340Y47345D01*
X215396Y47380D01*
X215527Y47456D01*
X215680Y47560D01*
X215825Y47685D01*
X215971Y47837D01*
X216033Y47921D01*
X216096Y48011D01*
Y48018D01*
X216110Y48032D01*
X216124Y48059D01*
X216144Y48101D01*
X216165Y48149D01*
X216193Y48205D01*
X216214Y48267D01*
X216241Y48337D01*
X216297Y48496D01*
X216346Y48683D01*
X216380Y48884D01*
X216387Y48988D01*
X216394Y49099D01*
Y49169D01*
X216387Y49217D01*
X216380Y49280D01*
X216373Y49349D01*
X216359Y49432D01*
X216346Y49515D01*
X216297Y49710D01*
X216262Y49807D01*
X216221Y49911D01*
X216172Y50015D01*
X216117Y50112D01*
X216054Y50209D01*
X215985Y50306D01*
X215978Y50313D01*
X215964Y50327D01*
X215943Y50354D01*
X215909Y50389D01*
X215867Y50424D01*
X215812Y50472D01*
X215749Y50521D01*
X215680Y50576D01*
X215597Y50632D01*
X215506Y50687D01*
X215409Y50743D01*
X215298Y50798D01*
X215180Y50847D01*
X215049Y50895D01*
X214910Y50944D01*
X214764Y50978D01*
X214979Y51824D01*
X214993D01*
X215028Y51811D01*
D02*
G37*
G36*
X306676Y123666D02*
X306759Y123659D01*
X306856Y123645D01*
X306960Y123631D01*
X307078Y123610D01*
X307203Y123582D01*
X307334Y123555D01*
X307466Y123513D01*
X307605Y123465D01*
X307744Y123409D01*
X307875Y123340D01*
X308007Y123271D01*
X308132Y123180D01*
X308139Y123173D01*
X308160Y123160D01*
X308194Y123132D01*
X308236Y123090D01*
X308291Y123042D01*
X308354Y122979D01*
X308416Y122910D01*
X308493Y122827D01*
X308569Y122737D01*
X308645Y122633D01*
X308721Y122522D01*
X308791Y122397D01*
X308867Y122265D01*
X308929Y122119D01*
X308992Y121967D01*
X309047Y121807D01*
X308215Y121613D01*
Y121620D01*
X308201Y121641D01*
X308194Y121683D01*
X308174Y121731D01*
X308153Y121787D01*
X308118Y121849D01*
X308049Y122001D01*
X307959Y122168D01*
X307841Y122341D01*
X307716Y122501D01*
X307640Y122570D01*
X307563Y122633D01*
X307556Y122640D01*
X307542Y122646D01*
X307522Y122660D01*
X307487Y122681D01*
X307445Y122709D01*
X307397Y122737D01*
X307341Y122764D01*
X307272Y122792D01*
X307196Y122820D01*
X307120Y122847D01*
X306939Y122903D01*
X306731Y122938D01*
X306620Y122951D01*
X306433D01*
X306378Y122945D01*
X306315Y122938D01*
X306239Y122931D01*
X306156Y122924D01*
X306072Y122910D01*
X305871Y122861D01*
X305663Y122799D01*
X305559Y122757D01*
X305455Y122709D01*
X305358Y122653D01*
X305261Y122591D01*
X305254Y122584D01*
X305240Y122577D01*
X305213Y122556D01*
X305178Y122528D01*
X305143Y122494D01*
X305095Y122445D01*
X305046Y122397D01*
X304991Y122341D01*
X304935Y122272D01*
X304873Y122203D01*
X304762Y122043D01*
X304658Y121856D01*
X304568Y121641D01*
Y121634D01*
X304561Y121613D01*
X304547Y121579D01*
X304540Y121537D01*
X304526Y121482D01*
X304505Y121419D01*
X304491Y121343D01*
X304471Y121266D01*
X304450Y121176D01*
X304436Y121079D01*
X304401Y120871D01*
X304380Y120649D01*
X304374Y120414D01*
Y120407D01*
Y120379D01*
Y120337D01*
X304380Y120275D01*
Y120206D01*
X304387Y120122D01*
X304394Y120032D01*
X304401Y119928D01*
X304415Y119817D01*
X304429Y119706D01*
X304471Y119464D01*
X304533Y119221D01*
X304609Y118985D01*
Y118978D01*
X304623Y118957D01*
X304637Y118930D01*
X304651Y118888D01*
X304679Y118833D01*
X304713Y118777D01*
X304790Y118645D01*
X304894Y118493D01*
X305018Y118347D01*
X305171Y118202D01*
X305254Y118139D01*
X305344Y118077D01*
X305351D01*
X305365Y118063D01*
X305393Y118049D01*
X305434Y118028D01*
X305483Y118007D01*
X305539Y117980D01*
X305601Y117959D01*
X305670Y117931D01*
X305830Y117876D01*
X306017Y117827D01*
X306218Y117793D01*
X306322Y117786D01*
X306433Y117779D01*
X306502D01*
X306551Y117786D01*
X306613Y117793D01*
X306683Y117799D01*
X306766Y117813D01*
X306849Y117827D01*
X307043Y117876D01*
X307140Y117910D01*
X307244Y117952D01*
X307348Y118000D01*
X307445Y118056D01*
X307542Y118118D01*
X307640Y118188D01*
X307647Y118195D01*
X307660Y118209D01*
X307688Y118229D01*
X307723Y118264D01*
X307757Y118306D01*
X307806Y118361D01*
X307854Y118424D01*
X307910Y118493D01*
X307966Y118576D01*
X308021Y118666D01*
X308076Y118763D01*
X308132Y118874D01*
X308180Y118992D01*
X308229Y119124D01*
X308277Y119263D01*
X308312Y119408D01*
X309158Y119193D01*
Y119179D01*
X309144Y119145D01*
X309130Y119096D01*
X309103Y119020D01*
X309075Y118937D01*
X309033Y118833D01*
X308992Y118722D01*
X308936Y118604D01*
X308874Y118472D01*
X308804Y118347D01*
X308728Y118209D01*
X308638Y118077D01*
X308541Y117952D01*
X308437Y117827D01*
X308319Y117709D01*
X308194Y117598D01*
X308187Y117591D01*
X308160Y117577D01*
X308125Y117550D01*
X308069Y117515D01*
X308007Y117473D01*
X307924Y117425D01*
X307834Y117376D01*
X307723Y117328D01*
X307605Y117279D01*
X307480Y117231D01*
X307341Y117182D01*
X307189Y117141D01*
X307029Y117106D01*
X306863Y117078D01*
X306690Y117064D01*
X306502Y117057D01*
X306405D01*
X306329Y117064D01*
X306246Y117071D01*
X306142Y117078D01*
X306031Y117092D01*
X305906Y117113D01*
X305774Y117134D01*
X305636Y117162D01*
X305497Y117196D01*
X305358Y117231D01*
X305213Y117279D01*
X305074Y117335D01*
X304942Y117397D01*
X304817Y117473D01*
X304810Y117480D01*
X304790Y117494D01*
X304755Y117515D01*
X304713Y117550D01*
X304658Y117598D01*
X304596Y117647D01*
X304526Y117709D01*
X304450Y117786D01*
X304374Y117869D01*
X304290Y117959D01*
X304214Y118056D01*
X304131Y118167D01*
X304048Y118285D01*
X303971Y118410D01*
X303902Y118548D01*
X303833Y118694D01*
X303826Y118701D01*
X303819Y118729D01*
X303805Y118777D01*
X303784Y118833D01*
X303756Y118909D01*
X303729Y118992D01*
X303701Y119096D01*
X303666Y119207D01*
X303638Y119332D01*
X303604Y119464D01*
X303576Y119602D01*
X303555Y119755D01*
X303514Y120074D01*
X303507Y120240D01*
X303500Y120407D01*
Y120421D01*
Y120448D01*
Y120504D01*
X303507Y120573D01*
X303514Y120663D01*
X303521Y120767D01*
X303535Y120878D01*
X303548Y121003D01*
X303569Y121135D01*
X303590Y121273D01*
X303659Y121572D01*
X303708Y121717D01*
X303756Y121863D01*
X303812Y122015D01*
X303881Y122154D01*
X303888Y122161D01*
X303902Y122189D01*
X303923Y122223D01*
X303951Y122279D01*
X303992Y122341D01*
X304041Y122411D01*
X304096Y122487D01*
X304159Y122577D01*
X304235Y122660D01*
X304311Y122757D01*
X304401Y122847D01*
X304498Y122945D01*
X304602Y123035D01*
X304713Y123125D01*
X304838Y123208D01*
X304963Y123284D01*
X304970Y123291D01*
X304998Y123298D01*
X305032Y123319D01*
X305088Y123347D01*
X305150Y123375D01*
X305233Y123409D01*
X305324Y123444D01*
X305421Y123478D01*
X305532Y123513D01*
X305656Y123548D01*
X305781Y123582D01*
X305920Y123610D01*
X306204Y123659D01*
X306357Y123666D01*
X306516Y123673D01*
X306606D01*
X306676Y123666D01*
D02*
G37*
G36*
X311994Y123576D02*
X312050D01*
X312112Y123562D01*
X312188Y123555D01*
X312265Y123541D01*
X312445Y123499D01*
X312632Y123437D01*
X312729Y123402D01*
X312833Y123354D01*
X312930Y123305D01*
X313027Y123243D01*
X313034Y123236D01*
X313048Y123229D01*
X313076Y123208D01*
X313111Y123180D01*
X313159Y123146D01*
X313208Y123104D01*
X313263Y123055D01*
X313319Y123000D01*
X313381Y122938D01*
X313450Y122861D01*
X313513Y122785D01*
X313582Y122702D01*
X313645Y122605D01*
X313707Y122508D01*
X313762Y122397D01*
X313818Y122286D01*
Y122279D01*
X313832Y122258D01*
X313846Y122223D01*
X313860Y122168D01*
X313880Y122106D01*
X313901Y122029D01*
X313929Y121939D01*
X313957Y121828D01*
X313977Y121710D01*
X314005Y121579D01*
X314026Y121426D01*
X314047Y121266D01*
X314061Y121093D01*
X314074Y120906D01*
X314088Y120705D01*
Y120490D01*
Y120476D01*
Y120434D01*
Y120372D01*
X314081Y120289D01*
Y120185D01*
X314074Y120060D01*
X314068Y119928D01*
X314054Y119783D01*
X314040Y119630D01*
X314026Y119471D01*
X313977Y119145D01*
X313908Y118826D01*
X313867Y118680D01*
X313818Y118534D01*
Y118527D01*
X313804Y118500D01*
X313790Y118465D01*
X313769Y118417D01*
X313742Y118354D01*
X313707Y118285D01*
X313665Y118209D01*
X313624Y118125D01*
X313513Y117952D01*
X313374Y117765D01*
X313215Y117591D01*
X313125Y117508D01*
X313027Y117432D01*
X313020Y117425D01*
X313007Y117418D01*
X312972Y117397D01*
X312937Y117376D01*
X312882Y117349D01*
X312826Y117314D01*
X312757Y117279D01*
X312674Y117245D01*
X312591Y117210D01*
X312493Y117175D01*
X312396Y117148D01*
X312285Y117113D01*
X312050Y117071D01*
X311925Y117064D01*
X311793Y117057D01*
X311724D01*
X311668Y117064D01*
X311606Y117071D01*
X311530Y117078D01*
X311446Y117092D01*
X311356Y117113D01*
X311162Y117162D01*
X311065Y117196D01*
X310961Y117231D01*
X310857Y117279D01*
X310753Y117335D01*
X310656Y117397D01*
X310566Y117473D01*
X310559Y117480D01*
X310545Y117494D01*
X310524Y117515D01*
X310490Y117550D01*
X310455Y117591D01*
X310413Y117647D01*
X310365Y117709D01*
X310316Y117779D01*
X310268Y117855D01*
X310219Y117945D01*
X310177Y118042D01*
X310129Y118146D01*
X310087Y118257D01*
X310053Y118375D01*
X310025Y118507D01*
X310004Y118645D01*
X310760Y118708D01*
Y118701D01*
X310767Y118687D01*
Y118659D01*
X310781Y118618D01*
X310788Y118576D01*
X310802Y118527D01*
X310836Y118410D01*
X310885Y118285D01*
X310947Y118160D01*
X311030Y118042D01*
X311072Y117987D01*
X311120Y117938D01*
X311134Y117931D01*
X311169Y117903D01*
X311231Y117862D01*
X311308Y117820D01*
X311412Y117779D01*
X311530Y117737D01*
X311661Y117709D01*
X311814Y117702D01*
X311876D01*
X311946Y117709D01*
X312029Y117723D01*
X312126Y117744D01*
X312230Y117772D01*
X312341Y117806D01*
X312445Y117862D01*
X312459Y117869D01*
X312493Y117890D01*
X312542Y117931D01*
X312605Y117980D01*
X312674Y118042D01*
X312750Y118118D01*
X312826Y118209D01*
X312896Y118306D01*
X312903Y118320D01*
X312923Y118354D01*
X312958Y118417D01*
X313000Y118507D01*
X313041Y118611D01*
X313090Y118736D01*
X313138Y118888D01*
X313187Y119054D01*
Y119061D01*
X313194Y119075D01*
X313201Y119103D01*
X313208Y119138D01*
X313215Y119179D01*
X313222Y119228D01*
X313235Y119290D01*
X313249Y119353D01*
X313270Y119498D01*
X313284Y119658D01*
X313298Y119831D01*
X313305Y120011D01*
Y120025D01*
Y120053D01*
Y120102D01*
Y120164D01*
X313291Y120157D01*
X313284Y120136D01*
X313263Y120108D01*
X313208Y120039D01*
X313138Y119956D01*
X313041Y119859D01*
X312930Y119755D01*
X312806Y119658D01*
X312660Y119561D01*
X312653D01*
X312639Y119554D01*
X312618Y119540D01*
X312591Y119526D01*
X312549Y119505D01*
X312507Y119491D01*
X312396Y119450D01*
X312265Y119401D01*
X312112Y119367D01*
X311946Y119339D01*
X311772Y119332D01*
X311738D01*
X311696Y119339D01*
X311641D01*
X311571Y119353D01*
X311495Y119360D01*
X311405Y119380D01*
X311308Y119401D01*
X311204Y119436D01*
X311100Y119471D01*
X310989Y119519D01*
X310878Y119575D01*
X310760Y119637D01*
X310649Y119713D01*
X310538Y119803D01*
X310434Y119901D01*
X310427Y119907D01*
X310413Y119928D01*
X310385Y119963D01*
X310351Y120005D01*
X310309Y120060D01*
X310261Y120129D01*
X310212Y120212D01*
X310164Y120310D01*
X310108Y120407D01*
X310060Y120525D01*
X310011Y120649D01*
X309970Y120781D01*
X309935Y120927D01*
X309907Y121086D01*
X309893Y121246D01*
X309886Y121419D01*
Y121433D01*
Y121461D01*
X309893Y121516D01*
Y121579D01*
X309907Y121662D01*
X309914Y121759D01*
X309935Y121863D01*
X309956Y121981D01*
X309990Y122099D01*
X310025Y122230D01*
X310074Y122362D01*
X310129Y122487D01*
X310191Y122619D01*
X310268Y122750D01*
X310358Y122868D01*
X310455Y122986D01*
X310462Y122993D01*
X310483Y123014D01*
X310517Y123042D01*
X310559Y123076D01*
X310614Y123125D01*
X310684Y123173D01*
X310760Y123229D01*
X310850Y123284D01*
X310947Y123340D01*
X311058Y123395D01*
X311176Y123444D01*
X311301Y123492D01*
X311439Y123527D01*
X311585Y123555D01*
X311731Y123576D01*
X311890Y123582D01*
X311953D01*
X311994Y123576D01*
D02*
G37*
G36*
X-13829Y193993D02*
X-13746Y193986D01*
X-13642Y193979D01*
X-13531Y193965D01*
X-13406Y193945D01*
X-13274Y193924D01*
X-13136Y193896D01*
X-12997Y193861D01*
X-12858Y193827D01*
X-12713Y193778D01*
X-12574Y193723D01*
X-12442Y193660D01*
X-12317Y193584D01*
X-12310Y193577D01*
X-12290Y193563D01*
X-12255Y193542D01*
X-12213Y193508D01*
X-12158Y193459D01*
X-12096Y193411D01*
X-12026Y193348D01*
X-11950Y193272D01*
X-11874Y193189D01*
X-11790Y193099D01*
X-11714Y193002D01*
X-11631Y192891D01*
X-11548Y192773D01*
X-11471Y192648D01*
X-11402Y192509D01*
X-11333Y192364D01*
X-11326Y192357D01*
X-11319Y192329D01*
X-11305Y192280D01*
X-11284Y192225D01*
X-11256Y192149D01*
X-11229Y192066D01*
X-11201Y191961D01*
X-11166Y191850D01*
X-11139Y191726D01*
X-11104Y191594D01*
X-11076Y191455D01*
X-11055Y191303D01*
X-11014Y190984D01*
X-11007Y190817D01*
X-11000Y190651D01*
Y190637D01*
Y190609D01*
Y190554D01*
X-11007Y190485D01*
X-11014Y190394D01*
X-11021Y190290D01*
X-11034Y190179D01*
X-11048Y190055D01*
X-11069Y189923D01*
X-11090Y189784D01*
X-11159Y189486D01*
X-11208Y189340D01*
X-11256Y189195D01*
X-11312Y189042D01*
X-11381Y188904D01*
X-11388Y188897D01*
X-11402Y188869D01*
X-11423Y188834D01*
X-11451Y188779D01*
X-11492Y188716D01*
X-11541Y188647D01*
X-11596Y188571D01*
X-11659Y188480D01*
X-11735Y188397D01*
X-11811Y188300D01*
X-11901Y188210D01*
X-11998Y188113D01*
X-12102Y188023D01*
X-12213Y187933D01*
X-12338Y187850D01*
X-12463Y187773D01*
X-12470Y187766D01*
X-12498Y187759D01*
X-12532Y187738D01*
X-12588Y187711D01*
X-12650Y187683D01*
X-12733Y187648D01*
X-12824Y187614D01*
X-12921Y187579D01*
X-13032Y187544D01*
X-13156Y187510D01*
X-13281Y187475D01*
X-13420Y187447D01*
X-13704Y187399D01*
X-13857Y187392D01*
X-14016Y187385D01*
X-14106D01*
X-14176Y187392D01*
X-14259Y187399D01*
X-14356Y187413D01*
X-14460Y187426D01*
X-14578Y187447D01*
X-14703Y187475D01*
X-14835Y187503D01*
X-14966Y187544D01*
X-15105Y187593D01*
X-15244Y187648D01*
X-15375Y187718D01*
X-15507Y187787D01*
X-15632Y187877D01*
X-15639Y187884D01*
X-15660Y187898D01*
X-15694Y187926D01*
X-15736Y187967D01*
X-15791Y188016D01*
X-15854Y188078D01*
X-15916Y188148D01*
X-15992Y188231D01*
X-16069Y188321D01*
X-16145Y188425D01*
X-16221Y188536D01*
X-16291Y188661D01*
X-16367Y188792D01*
X-16429Y188938D01*
X-16492Y189091D01*
X-16547Y189250D01*
X-15715Y189444D01*
Y189437D01*
X-15701Y189417D01*
X-15694Y189375D01*
X-15674Y189326D01*
X-15653Y189271D01*
X-15618Y189209D01*
X-15549Y189056D01*
X-15459Y188890D01*
X-15341Y188716D01*
X-15216Y188557D01*
X-15140Y188487D01*
X-15063Y188425D01*
X-15056Y188418D01*
X-15043Y188411D01*
X-15022Y188397D01*
X-14987Y188377D01*
X-14945Y188349D01*
X-14897Y188321D01*
X-14841Y188293D01*
X-14772Y188265D01*
X-14696Y188238D01*
X-14619Y188210D01*
X-14439Y188155D01*
X-14231Y188120D01*
X-14120Y188106D01*
X-13933D01*
X-13878Y188113D01*
X-13815Y188120D01*
X-13739Y188127D01*
X-13656Y188134D01*
X-13572Y188148D01*
X-13371Y188196D01*
X-13163Y188259D01*
X-13059Y188300D01*
X-12955Y188349D01*
X-12858Y188404D01*
X-12761Y188467D01*
X-12754Y188474D01*
X-12740Y188480D01*
X-12713Y188501D01*
X-12678Y188529D01*
X-12643Y188564D01*
X-12595Y188612D01*
X-12546Y188661D01*
X-12491Y188716D01*
X-12435Y188786D01*
X-12373Y188855D01*
X-12262Y189014D01*
X-12158Y189202D01*
X-12068Y189417D01*
Y189424D01*
X-12061Y189444D01*
X-12047Y189479D01*
X-12040Y189521D01*
X-12026Y189576D01*
X-12005Y189639D01*
X-11991Y189715D01*
X-11971Y189791D01*
X-11950Y189881D01*
X-11936Y189978D01*
X-11901Y190186D01*
X-11881Y190408D01*
X-11874Y190644D01*
Y190651D01*
Y190679D01*
Y190720D01*
X-11881Y190783D01*
Y190852D01*
X-11888Y190935D01*
X-11894Y191025D01*
X-11901Y191129D01*
X-11915Y191240D01*
X-11929Y191351D01*
X-11971Y191594D01*
X-12033Y191837D01*
X-12109Y192072D01*
Y192079D01*
X-12123Y192100D01*
X-12137Y192128D01*
X-12151Y192169D01*
X-12179Y192225D01*
X-12213Y192280D01*
X-12290Y192412D01*
X-12394Y192565D01*
X-12519Y192710D01*
X-12671Y192856D01*
X-12754Y192918D01*
X-12844Y192981D01*
X-12851D01*
X-12865Y192995D01*
X-12893Y193008D01*
X-12934Y193029D01*
X-12983Y193050D01*
X-13039Y193078D01*
X-13101Y193099D01*
X-13170Y193126D01*
X-13330Y193182D01*
X-13517Y193230D01*
X-13718Y193265D01*
X-13822Y193272D01*
X-13933Y193279D01*
X-14002D01*
X-14051Y193272D01*
X-14113Y193265D01*
X-14183Y193258D01*
X-14266Y193244D01*
X-14349Y193230D01*
X-14543Y193182D01*
X-14640Y193147D01*
X-14744Y193106D01*
X-14848Y193057D01*
X-14945Y193002D01*
X-15043Y192939D01*
X-15140Y192870D01*
X-15146Y192863D01*
X-15160Y192849D01*
X-15188Y192828D01*
X-15223Y192794D01*
X-15258Y192752D01*
X-15306Y192696D01*
X-15355Y192634D01*
X-15410Y192565D01*
X-15466Y192481D01*
X-15521Y192391D01*
X-15576Y192294D01*
X-15632Y192183D01*
X-15681Y192066D01*
X-15729Y191934D01*
X-15777Y191795D01*
X-15812Y191649D01*
X-16658Y191864D01*
Y191878D01*
X-16644Y191913D01*
X-16630Y191961D01*
X-16603Y192038D01*
X-16575Y192121D01*
X-16533Y192225D01*
X-16492Y192336D01*
X-16436Y192454D01*
X-16374Y192586D01*
X-16305Y192710D01*
X-16228Y192849D01*
X-16138Y192981D01*
X-16041Y193106D01*
X-15937Y193230D01*
X-15819Y193348D01*
X-15694Y193459D01*
X-15687Y193466D01*
X-15660Y193480D01*
X-15625Y193508D01*
X-15569Y193542D01*
X-15507Y193584D01*
X-15424Y193633D01*
X-15334Y193681D01*
X-15223Y193730D01*
X-15105Y193778D01*
X-14980Y193827D01*
X-14841Y193875D01*
X-14689Y193917D01*
X-14529Y193952D01*
X-14363Y193979D01*
X-14190Y193993D01*
X-14002Y194000D01*
X-13905D01*
X-13829Y193993D01*
D02*
G37*
G36*
X-19390D02*
X-19321D01*
X-19245Y193986D01*
X-19148Y193972D01*
X-19044Y193952D01*
X-18933Y193931D01*
X-18815Y193903D01*
X-18690Y193861D01*
X-18565Y193820D01*
X-18433Y193764D01*
X-18309Y193702D01*
X-18184Y193626D01*
X-18059Y193542D01*
X-17948Y193445D01*
X-17941Y193438D01*
X-17920Y193418D01*
X-17893Y193390D01*
X-17858Y193341D01*
X-17816Y193286D01*
X-17768Y193223D01*
X-17712Y193147D01*
X-17664Y193057D01*
X-17608Y192960D01*
X-17553Y192856D01*
X-17504Y192738D01*
X-17463Y192620D01*
X-17428Y192488D01*
X-17400Y192343D01*
X-17379Y192197D01*
X-17372Y192045D01*
Y192038D01*
Y192017D01*
Y191982D01*
X-17379Y191941D01*
Y191885D01*
X-17386Y191823D01*
X-17400Y191753D01*
X-17414Y191677D01*
X-17449Y191518D01*
X-17504Y191344D01*
X-17580Y191171D01*
X-17629Y191088D01*
X-17684Y191005D01*
X-17691Y190998D01*
X-17698Y190984D01*
X-17719Y190963D01*
X-17747Y190935D01*
X-17775Y190900D01*
X-17816Y190866D01*
X-17865Y190817D01*
X-17920Y190776D01*
X-18045Y190679D01*
X-18198Y190582D01*
X-18378Y190498D01*
X-18586Y190429D01*
X-18579D01*
X-18565Y190422D01*
X-18537Y190408D01*
X-18510Y190394D01*
X-18468Y190380D01*
X-18420Y190353D01*
X-18316Y190297D01*
X-18198Y190228D01*
X-18080Y190138D01*
X-17962Y190041D01*
X-17865Y189923D01*
Y189916D01*
X-17858Y189909D01*
X-17844Y189888D01*
X-17830Y189860D01*
X-17788Y189791D01*
X-17747Y189701D01*
X-17705Y189583D01*
X-17664Y189444D01*
X-17636Y189292D01*
X-17629Y189125D01*
Y189118D01*
Y189098D01*
X-17636Y189056D01*
Y189007D01*
X-17643Y188952D01*
X-17657Y188883D01*
X-17671Y188806D01*
X-17691Y188716D01*
X-17719Y188626D01*
X-17754Y188536D01*
X-17788Y188439D01*
X-17837Y188335D01*
X-17899Y188238D01*
X-17962Y188141D01*
X-18038Y188044D01*
X-18128Y187953D01*
X-18135Y187947D01*
X-18149Y187933D01*
X-18177Y187912D01*
X-18218Y187877D01*
X-18267Y187843D01*
X-18329Y187801D01*
X-18399Y187759D01*
X-18482Y187711D01*
X-18572Y187669D01*
X-18676Y187628D01*
X-18780Y187586D01*
X-18898Y187551D01*
X-19030Y187517D01*
X-19161Y187496D01*
X-19307Y187482D01*
X-19460Y187475D01*
X-19543D01*
X-19598Y187482D01*
X-19668Y187489D01*
X-19751Y187503D01*
X-19841Y187517D01*
X-19945Y187537D01*
X-20049Y187565D01*
X-20160Y187593D01*
X-20271Y187635D01*
X-20382Y187683D01*
X-20500Y187738D01*
X-20604Y187808D01*
X-20715Y187877D01*
X-20812Y187967D01*
X-20819Y187974D01*
X-20833Y187988D01*
X-20860Y188016D01*
X-20895Y188051D01*
X-20930Y188099D01*
X-20971Y188155D01*
X-21020Y188224D01*
X-21068Y188293D01*
X-21117Y188377D01*
X-21165Y188467D01*
X-21207Y188564D01*
X-21242Y188668D01*
X-21276Y188779D01*
X-21304Y188897D01*
X-21318Y189021D01*
X-21325Y189146D01*
Y189153D01*
Y189167D01*
Y189188D01*
Y189223D01*
X-21318Y189257D01*
X-21311Y189306D01*
X-21297Y189410D01*
X-21269Y189528D01*
X-21228Y189659D01*
X-21165Y189791D01*
X-21089Y189923D01*
Y189930D01*
X-21075Y189937D01*
X-21047Y189978D01*
X-20992Y190034D01*
X-20916Y190110D01*
X-20812Y190186D01*
X-20694Y190277D01*
X-20548Y190353D01*
X-20382Y190429D01*
X-20389D01*
X-20410Y190436D01*
X-20437Y190450D01*
X-20479Y190464D01*
X-20528Y190485D01*
X-20583Y190512D01*
X-20715Y190582D01*
X-20860Y190665D01*
X-21006Y190776D01*
X-21151Y190900D01*
X-21276Y191053D01*
X-21283Y191060D01*
X-21290Y191074D01*
X-21304Y191095D01*
X-21325Y191129D01*
X-21346Y191171D01*
X-21373Y191220D01*
X-21401Y191275D01*
X-21436Y191337D01*
X-21491Y191483D01*
X-21540Y191656D01*
X-21574Y191850D01*
X-21588Y191954D01*
Y192066D01*
Y192072D01*
Y192100D01*
X-21581Y192142D01*
Y192204D01*
X-21568Y192274D01*
X-21561Y192357D01*
X-21540Y192447D01*
X-21519Y192544D01*
X-21484Y192655D01*
X-21450Y192766D01*
X-21401Y192877D01*
X-21346Y192995D01*
X-21276Y193113D01*
X-21200Y193223D01*
X-21110Y193341D01*
X-21006Y193445D01*
X-20999Y193452D01*
X-20978Y193466D01*
X-20944Y193494D01*
X-20902Y193529D01*
X-20840Y193577D01*
X-20770Y193619D01*
X-20687Y193674D01*
X-20597Y193723D01*
X-20493Y193771D01*
X-20375Y193827D01*
X-20250Y193868D01*
X-20118Y193910D01*
X-19973Y193952D01*
X-19820Y193979D01*
X-19654Y193993D01*
X-19480Y194000D01*
X-19439D01*
X-19390Y193993D01*
D02*
G37*
G36*
X129841Y93333D02*
X124842D01*
X124855Y93319D01*
X124890Y93284D01*
X124939Y93222D01*
X125008Y93131D01*
X125091Y93027D01*
X125181Y92896D01*
X125278Y92750D01*
X125382Y92584D01*
Y92577D01*
X125396Y92563D01*
X125410Y92542D01*
X125424Y92507D01*
X125452Y92466D01*
X125473Y92417D01*
X125535Y92306D01*
X125597Y92181D01*
X125667Y92043D01*
X125729Y91897D01*
X125785Y91758D01*
X125029D01*
X125022Y91765D01*
X125015Y91786D01*
X124994Y91821D01*
X124973Y91869D01*
X124946Y91925D01*
X124904Y91994D01*
X124862Y92071D01*
X124821Y92147D01*
X124710Y92327D01*
X124578Y92521D01*
X124439Y92722D01*
X124280Y92909D01*
X124273Y92916D01*
X124259Y92930D01*
X124238Y92958D01*
X124204Y92993D01*
X124162Y93027D01*
X124120Y93076D01*
X124003Y93180D01*
X123878Y93298D01*
X123732Y93416D01*
X123580Y93520D01*
X123420Y93610D01*
Y94116D01*
X129841D01*
Y93333D01*
D02*
G37*
G36*
Y88361D02*
X124842D01*
X124855Y88347D01*
X124890Y88312D01*
X124939Y88250D01*
X125008Y88160D01*
X125091Y88056D01*
X125181Y87924D01*
X125278Y87778D01*
X125382Y87612D01*
Y87605D01*
X125396Y87591D01*
X125410Y87570D01*
X125424Y87535D01*
X125452Y87494D01*
X125473Y87445D01*
X125535Y87334D01*
X125597Y87210D01*
X125667Y87071D01*
X125729Y86925D01*
X125785Y86787D01*
X125029D01*
X125022Y86793D01*
X125015Y86814D01*
X124994Y86849D01*
X124973Y86897D01*
X124946Y86953D01*
X124904Y87022D01*
X124862Y87099D01*
X124821Y87175D01*
X124710Y87355D01*
X124578Y87549D01*
X124439Y87750D01*
X124280Y87938D01*
X124273Y87945D01*
X124259Y87958D01*
X124238Y87986D01*
X124204Y88021D01*
X124162Y88056D01*
X124120Y88104D01*
X124003Y88208D01*
X123878Y88326D01*
X123732Y88444D01*
X123580Y88548D01*
X123420Y88638D01*
Y89144D01*
X129841D01*
Y88361D01*
D02*
G37*
G36*
X127858Y85448D02*
X127907Y85434D01*
X127983Y85407D01*
X128066Y85379D01*
X128170Y85337D01*
X128281Y85296D01*
X128399Y85240D01*
X128531Y85178D01*
X128655Y85108D01*
X128794Y85032D01*
X128926Y84942D01*
X129051Y84845D01*
X129176Y84741D01*
X129293Y84623D01*
X129404Y84498D01*
X129411Y84491D01*
X129425Y84464D01*
X129453Y84429D01*
X129487Y84374D01*
X129529Y84311D01*
X129578Y84228D01*
X129626Y84138D01*
X129675Y84027D01*
X129723Y83909D01*
X129772Y83784D01*
X129820Y83645D01*
X129862Y83493D01*
X129897Y83333D01*
X129924Y83167D01*
X129938Y82994D01*
X129945Y82806D01*
Y82709D01*
X129938Y82633D01*
X129931Y82550D01*
X129924Y82446D01*
X129910Y82335D01*
X129890Y82210D01*
X129869Y82078D01*
X129841Y81940D01*
X129806Y81801D01*
X129772Y81662D01*
X129723Y81517D01*
X129668Y81378D01*
X129605Y81246D01*
X129529Y81121D01*
X129522Y81114D01*
X129508Y81094D01*
X129487Y81059D01*
X129453Y81017D01*
X129404Y80962D01*
X129356Y80899D01*
X129293Y80830D01*
X129217Y80754D01*
X129134Y80678D01*
X129044Y80594D01*
X128947Y80518D01*
X128836Y80435D01*
X128718Y80352D01*
X128593Y80275D01*
X128454Y80206D01*
X128309Y80137D01*
X128302Y80130D01*
X128274Y80123D01*
X128225Y80109D01*
X128170Y80088D01*
X128094Y80060D01*
X128011Y80033D01*
X127907Y80005D01*
X127796Y79970D01*
X127671Y79942D01*
X127539Y79908D01*
X127400Y79880D01*
X127248Y79859D01*
X126929Y79818D01*
X126762Y79811D01*
X126596Y79804D01*
X126582D01*
X126554D01*
X126499D01*
X126430Y79811D01*
X126339Y79818D01*
X126235Y79825D01*
X126124Y79839D01*
X126000Y79852D01*
X125868Y79873D01*
X125729Y79894D01*
X125431Y79963D01*
X125285Y80012D01*
X125140Y80060D01*
X124987Y80116D01*
X124848Y80185D01*
X124842Y80192D01*
X124814Y80206D01*
X124779Y80227D01*
X124724Y80255D01*
X124661Y80296D01*
X124592Y80345D01*
X124516Y80400D01*
X124425Y80463D01*
X124342Y80539D01*
X124245Y80615D01*
X124155Y80705D01*
X124058Y80802D01*
X123968Y80906D01*
X123878Y81017D01*
X123794Y81142D01*
X123718Y81267D01*
X123711Y81274D01*
X123704Y81302D01*
X123684Y81336D01*
X123656Y81392D01*
X123628Y81454D01*
X123593Y81537D01*
X123559Y81628D01*
X123524Y81725D01*
X123489Y81836D01*
X123455Y81960D01*
X123420Y82085D01*
X123392Y82224D01*
X123344Y82508D01*
X123337Y82661D01*
X123330Y82820D01*
Y82910D01*
X123337Y82980D01*
X123344Y83063D01*
X123358Y83160D01*
X123371Y83264D01*
X123392Y83382D01*
X123420Y83507D01*
X123448Y83638D01*
X123489Y83770D01*
X123538Y83909D01*
X123593Y84048D01*
X123663Y84179D01*
X123732Y84311D01*
X123822Y84436D01*
X123829Y84443D01*
X123843Y84464D01*
X123871Y84498D01*
X123912Y84540D01*
X123961Y84595D01*
X124023Y84658D01*
X124093Y84720D01*
X124176Y84796D01*
X124266Y84873D01*
X124370Y84949D01*
X124481Y85025D01*
X124606Y85095D01*
X124738Y85171D01*
X124883Y85233D01*
X125036Y85296D01*
X125195Y85351D01*
X125389Y84519D01*
X125382D01*
X125362Y84505D01*
X125320Y84498D01*
X125272Y84478D01*
X125216Y84457D01*
X125154Y84422D01*
X125001Y84353D01*
X124835Y84263D01*
X124661Y84145D01*
X124502Y84020D01*
X124432Y83944D01*
X124370Y83867D01*
X124363Y83860D01*
X124356Y83847D01*
X124342Y83826D01*
X124321Y83791D01*
X124294Y83749D01*
X124266Y83701D01*
X124238Y83645D01*
X124211Y83576D01*
X124183Y83500D01*
X124155Y83424D01*
X124100Y83243D01*
X124065Y83035D01*
X124051Y82924D01*
Y82737D01*
X124058Y82682D01*
X124065Y82619D01*
X124072Y82543D01*
X124079Y82460D01*
X124093Y82376D01*
X124141Y82175D01*
X124204Y81967D01*
X124245Y81863D01*
X124294Y81759D01*
X124349Y81662D01*
X124412Y81565D01*
X124419Y81558D01*
X124425Y81544D01*
X124446Y81517D01*
X124474Y81482D01*
X124509Y81447D01*
X124557Y81399D01*
X124606Y81350D01*
X124661Y81295D01*
X124731Y81239D01*
X124800Y81177D01*
X124959Y81066D01*
X125147Y80962D01*
X125362Y80872D01*
X125369D01*
X125389Y80865D01*
X125424Y80851D01*
X125466Y80844D01*
X125521Y80830D01*
X125583Y80809D01*
X125660Y80795D01*
X125736Y80775D01*
X125826Y80754D01*
X125923Y80740D01*
X126131Y80705D01*
X126353Y80684D01*
X126589Y80678D01*
X126596D01*
X126624D01*
X126665D01*
X126728Y80684D01*
X126797D01*
X126880Y80691D01*
X126970Y80698D01*
X127074Y80705D01*
X127185Y80719D01*
X127296Y80733D01*
X127539Y80775D01*
X127782Y80837D01*
X128017Y80913D01*
X128024D01*
X128045Y80927D01*
X128073Y80941D01*
X128115Y80955D01*
X128170Y80983D01*
X128225Y81017D01*
X128357Y81094D01*
X128510Y81198D01*
X128655Y81322D01*
X128801Y81475D01*
X128863Y81558D01*
X128926Y81648D01*
Y81655D01*
X128940Y81669D01*
X128954Y81697D01*
X128974Y81739D01*
X128995Y81787D01*
X129023Y81842D01*
X129044Y81905D01*
X129071Y81974D01*
X129127Y82134D01*
X129176Y82321D01*
X129210Y82522D01*
X129217Y82626D01*
X129224Y82737D01*
Y82806D01*
X129217Y82855D01*
X129210Y82917D01*
X129203Y82987D01*
X129189Y83070D01*
X129176Y83153D01*
X129127Y83347D01*
X129092Y83444D01*
X129051Y83548D01*
X129002Y83652D01*
X128947Y83749D01*
X128884Y83847D01*
X128815Y83944D01*
X128808Y83951D01*
X128794Y83964D01*
X128773Y83992D01*
X128739Y84027D01*
X128697Y84061D01*
X128642Y84110D01*
X128579Y84158D01*
X128510Y84214D01*
X128427Y84270D01*
X128336Y84325D01*
X128239Y84380D01*
X128128Y84436D01*
X128011Y84484D01*
X127879Y84533D01*
X127740Y84581D01*
X127594Y84616D01*
X127809Y85462D01*
X127823D01*
X127858Y85448D01*
D02*
G37*
%LPC*%
G36*
X172582Y275445D02*
X172582Y275438D01*
X172582Y275438D01*
Y275445D01*
D02*
G37*
G36*
X171160Y278205D02*
X171112D01*
X171077Y278198D01*
X171029Y278191D01*
X170980Y278184D01*
X170862Y278156D01*
X170730Y278108D01*
X170654Y278073D01*
X170585Y278039D01*
X170508Y277990D01*
X170439Y277941D01*
X170370Y277879D01*
X170301Y277810D01*
X170294Y277803D01*
X170287Y277789D01*
X170266Y277768D01*
X170245Y277733D01*
X170217Y277692D01*
X170190Y277643D01*
X170155Y277588D01*
X170120Y277518D01*
X170086Y277449D01*
X170051Y277366D01*
X170023Y277276D01*
X169995Y277179D01*
X169975Y277075D01*
X169954Y276957D01*
X169947Y276839D01*
X169940Y276714D01*
Y276707D01*
Y276686D01*
Y276652D01*
X169947Y276603D01*
X169954Y276548D01*
X169961Y276485D01*
X169968Y276416D01*
X169981Y276340D01*
X170023Y276173D01*
X170086Y276000D01*
X170127Y275910D01*
X170176Y275826D01*
X170231Y275750D01*
X170294Y275674D01*
X170301Y275667D01*
X170307Y275660D01*
X170328Y275639D01*
X170356Y275611D01*
X170391Y275584D01*
X170432Y275549D01*
X170536Y275480D01*
X170668Y275410D01*
X170821Y275348D01*
X170994Y275299D01*
X171091Y275293D01*
X171188Y275286D01*
X171237D01*
X171278Y275293D01*
X171320Y275299D01*
X171375Y275306D01*
X171500Y275334D01*
X171646Y275383D01*
X171798Y275452D01*
X171875Y275494D01*
X171951Y275542D01*
X172027Y275605D01*
X172097Y275674D01*
X172103Y275681D01*
X172110Y275695D01*
X172131Y275716D01*
X172152Y275743D01*
X172180Y275778D01*
X172214Y275826D01*
X172249Y275882D01*
X172277Y275944D01*
X172311Y276007D01*
X172346Y276083D01*
X172409Y276256D01*
X172450Y276451D01*
X172457Y276562D01*
X172464Y276672D01*
Y276679D01*
Y276693D01*
Y276714D01*
Y276742D01*
X172457Y276777D01*
Y276818D01*
X172443Y276922D01*
X172422Y277040D01*
X172395Y277172D01*
X172353Y277310D01*
X172297Y277449D01*
Y277456D01*
X172291Y277463D01*
X172277Y277484D01*
X172263Y277512D01*
X172228Y277574D01*
X172173Y277657D01*
X172103Y277747D01*
X172020Y277837D01*
X171930Y277928D01*
X171819Y278011D01*
X171812D01*
X171805Y278018D01*
X171764Y278039D01*
X171701Y278073D01*
X171618Y278108D01*
X171521Y278143D01*
X171410Y278177D01*
X171285Y278198D01*
X171160Y278205D01*
D02*
G37*
G36*
X311987Y122931D02*
X311939D01*
X311897Y122924D01*
X311856Y122917D01*
X311800Y122910D01*
X311675Y122875D01*
X311530Y122827D01*
X311453Y122792D01*
X311377Y122750D01*
X311301Y122702D01*
X311224Y122640D01*
X311148Y122577D01*
X311072Y122501D01*
X311065Y122494D01*
X311058Y122480D01*
X311037Y122459D01*
X311010Y122424D01*
X310982Y122383D01*
X310954Y122327D01*
X310919Y122272D01*
X310885Y122203D01*
X310843Y122126D01*
X310809Y122043D01*
X310781Y121953D01*
X310753Y121849D01*
X310704Y121634D01*
X310697Y121516D01*
X310691Y121391D01*
Y121384D01*
Y121364D01*
Y121336D01*
X310697Y121287D01*
X310704Y121239D01*
X310711Y121176D01*
X310739Y121038D01*
X310781Y120878D01*
X310843Y120719D01*
X310885Y120635D01*
X310933Y120552D01*
X310989Y120476D01*
X311051Y120400D01*
X311058Y120393D01*
X311065Y120386D01*
X311086Y120365D01*
X311120Y120344D01*
X311155Y120316D01*
X311197Y120282D01*
X311245Y120247D01*
X311301Y120212D01*
X311439Y120143D01*
X311592Y120081D01*
X311772Y120039D01*
X311869Y120032D01*
X311966Y120025D01*
X312022D01*
X312057Y120032D01*
X312105Y120039D01*
X312154Y120046D01*
X312278Y120074D01*
X312424Y120115D01*
X312570Y120185D01*
X312646Y120226D01*
X312722Y120275D01*
X312792Y120337D01*
X312861Y120400D01*
X312868Y120407D01*
X312875Y120421D01*
X312896Y120441D01*
X312917Y120469D01*
X312944Y120511D01*
X312972Y120559D01*
X313007Y120615D01*
X313041Y120677D01*
X313069Y120746D01*
X313104Y120830D01*
X313132Y120913D01*
X313159Y121010D01*
X313180Y121114D01*
X313201Y121218D01*
X313208Y121336D01*
X313215Y121461D01*
Y121468D01*
Y121488D01*
Y121523D01*
X313208Y121572D01*
X313201Y121627D01*
X313194Y121696D01*
X313187Y121766D01*
X313173Y121849D01*
X313125Y122015D01*
X313062Y122196D01*
X313020Y122286D01*
X312972Y122369D01*
X312917Y122452D01*
X312854Y122528D01*
X312847Y122535D01*
X312840Y122549D01*
X312819Y122563D01*
X312792Y122591D01*
X312757Y122619D01*
X312715Y122653D01*
X312611Y122730D01*
X312487Y122806D01*
X312334Y122868D01*
X312258Y122896D01*
X312168Y122917D01*
X312078Y122924D01*
X311987Y122931D01*
D02*
G37*
G36*
X-19480Y193355D02*
X-19536D01*
X-19577Y193348D01*
X-19626Y193341D01*
X-19682Y193334D01*
X-19813Y193307D01*
X-19959Y193265D01*
X-20118Y193203D01*
X-20195Y193161D01*
X-20271Y193113D01*
X-20347Y193057D01*
X-20417Y192995D01*
X-20424Y192988D01*
X-20430Y192981D01*
X-20451Y192960D01*
X-20472Y192932D01*
X-20500Y192891D01*
X-20534Y192849D01*
X-20569Y192801D01*
X-20604Y192745D01*
X-20666Y192613D01*
X-20729Y192454D01*
X-20770Y192280D01*
X-20777Y192183D01*
X-20784Y192079D01*
Y192072D01*
Y192052D01*
Y192024D01*
X-20777Y191982D01*
X-20770Y191934D01*
X-20763Y191878D01*
X-20735Y191747D01*
X-20694Y191601D01*
X-20624Y191441D01*
X-20583Y191365D01*
X-20528Y191289D01*
X-20472Y191213D01*
X-20403Y191143D01*
X-20396Y191136D01*
X-20389Y191129D01*
X-20368Y191109D01*
X-20333Y191088D01*
X-20299Y191053D01*
X-20257Y191025D01*
X-20202Y190991D01*
X-20146Y190956D01*
X-20007Y190887D01*
X-19848Y190824D01*
X-19661Y190783D01*
X-19564Y190776D01*
X-19460Y190769D01*
X-19404D01*
X-19369Y190776D01*
X-19321Y190783D01*
X-19265Y190790D01*
X-19134Y190817D01*
X-18988Y190859D01*
X-18836Y190921D01*
X-18759Y190963D01*
X-18683Y191012D01*
X-18607Y191074D01*
X-18537Y191136D01*
X-18530Y191143D01*
X-18523Y191150D01*
X-18503Y191171D01*
X-18482Y191199D01*
X-18454Y191240D01*
X-18426Y191282D01*
X-18392Y191331D01*
X-18357Y191386D01*
X-18288Y191518D01*
X-18232Y191677D01*
X-18191Y191857D01*
X-18184Y191948D01*
X-18177Y192052D01*
Y192059D01*
Y192066D01*
Y192107D01*
X-18184Y192176D01*
X-18198Y192260D01*
X-18211Y192357D01*
X-18239Y192468D01*
X-18281Y192586D01*
X-18329Y192703D01*
X-18336Y192717D01*
X-18357Y192752D01*
X-18399Y192814D01*
X-18447Y192884D01*
X-18516Y192960D01*
X-18593Y193036D01*
X-18690Y193120D01*
X-18801Y193189D01*
X-18808D01*
X-18815Y193196D01*
X-18856Y193217D01*
X-18919Y193244D01*
X-19009Y193272D01*
X-19106Y193300D01*
X-19224Y193328D01*
X-19349Y193348D01*
X-19480Y193355D01*
D02*
G37*
G36*
Y190124D02*
X-19522D01*
X-19557Y190117D01*
X-19598D01*
X-19640Y190110D01*
X-19744Y190089D01*
X-19862Y190055D01*
X-19987Y190006D01*
X-20111Y189937D01*
X-20229Y189840D01*
X-20243Y189826D01*
X-20278Y189791D01*
X-20319Y189729D01*
X-20375Y189645D01*
X-20430Y189548D01*
X-20472Y189424D01*
X-20507Y189292D01*
X-20521Y189146D01*
Y189139D01*
Y189125D01*
Y189105D01*
X-20514Y189070D01*
X-20507Y188994D01*
X-20486Y188890D01*
X-20451Y188779D01*
X-20396Y188654D01*
X-20319Y188536D01*
X-20278Y188474D01*
X-20222Y188418D01*
Y188411D01*
X-20208Y188404D01*
X-20167Y188370D01*
X-20104Y188321D01*
X-20014Y188265D01*
X-19910Y188217D01*
X-19779Y188169D01*
X-19633Y188134D01*
X-19557Y188120D01*
X-19432D01*
X-19397Y188127D01*
X-19362D01*
X-19314Y188134D01*
X-19210Y188155D01*
X-19092Y188189D01*
X-18967Y188245D01*
X-18843Y188314D01*
X-18725Y188411D01*
X-18711Y188425D01*
X-18676Y188460D01*
X-18634Y188522D01*
X-18579Y188605D01*
X-18523Y188702D01*
X-18482Y188820D01*
X-18447Y188952D01*
X-18433Y189098D01*
Y189105D01*
Y189118D01*
Y189139D01*
X-18440Y189174D01*
Y189216D01*
X-18447Y189257D01*
X-18468Y189361D01*
X-18503Y189479D01*
X-18551Y189604D01*
X-18621Y189729D01*
X-18718Y189840D01*
X-18731Y189853D01*
X-18773Y189881D01*
X-18836Y189930D01*
X-18926Y189978D01*
X-19030Y190034D01*
X-19161Y190082D01*
X-19314Y190110D01*
X-19480Y190124D01*
D02*
G37*
%LPD*%
D12*
X168710Y273350D02*
X190710D01*
X168710D02*
Y284350D01*
X190710D01*
Y273350D02*
Y284350D01*
X122390Y15594D02*
Y93656D01*
X67390Y15594D02*
X122390D01*
X67390D02*
Y93656D01*
X122390D01*
X207377Y21084D02*
Y46166D01*
X164795D02*
X207377D01*
X164795Y21084D02*
Y46166D01*
Y21084D02*
X207377D01*
X153968Y48416D02*
X169968D01*
Y76416D01*
X153968D02*
X169968D01*
X153968Y48416D02*
Y76416D01*
X212262Y76865D02*
X219762D01*
X212262Y62865D02*
Y76865D01*
Y62865D02*
X219762D01*
Y76865D01*
X211615Y35166D02*
X222615D01*
Y57166D01*
X211615D02*
X222615D01*
X211615Y35166D02*
Y57166D01*
X292500Y111558D02*
Y122558D01*
Y111558D02*
X314500D01*
Y122558D01*
X292500D02*
X314500D01*
X0Y188500D02*
Y199500D01*
X-22000D02*
X0D01*
X-22000Y188500D02*
Y199500D01*
Y188500D02*
X0D01*
X126195Y72804D02*
X133695D01*
Y86804D01*
X126195D02*
X133695D01*
X126195Y72804D02*
Y86804D01*
M02*
