G04*
G04 #@! TF.GenerationSoftware,Altium Limited,Altium Designer,24.0.1 (36)*
G04*
G04 Layer_Color=8388736*
%FSLAX44Y44*%
%MOMM*%
G71*
G04*
G04 #@! TF.SameCoordinates,CE8C76C4-CE90-42B1-9663-5FE915DE4DC9*
G04*
G04*
G04 #@! TF.FilePolarity,Positive*
G04*
G01*
G75*
%ADD12C,0.2000*%
%ADD50C,0.0500*%
D12*
X168710Y273350D02*
X190710D01*
X168710D02*
Y284350D01*
X190710D01*
Y273350D02*
Y284350D01*
X122390Y15594D02*
Y93656D01*
X67390Y15594D02*
X122390D01*
X67390D02*
Y93656D01*
X122390D01*
X207377Y21084D02*
Y46166D01*
X164795D02*
X207377D01*
X164795Y21084D02*
Y46166D01*
Y21084D02*
X207377D01*
X153968Y48416D02*
X169968D01*
Y76416D01*
X153968D02*
X169968D01*
X153968Y48416D02*
Y76416D01*
X212262Y76865D02*
X219762D01*
X212262Y62865D02*
Y76865D01*
Y62865D02*
X219762D01*
Y76865D01*
X211615Y35166D02*
X222615D01*
Y57166D01*
X211615D02*
X222615D01*
X211615Y35166D02*
Y57166D01*
X292500Y111558D02*
Y122558D01*
Y111558D02*
X314500D01*
Y122558D01*
X292500D02*
X314500D01*
X0Y188500D02*
Y199500D01*
X-22000D02*
X0D01*
X-22000Y188500D02*
Y199500D01*
Y188500D02*
X0D01*
X126195Y72804D02*
X133695D01*
Y86804D01*
X126195D02*
X133695D01*
X126195Y72804D02*
Y86804D01*
D50*
X34399Y154361D02*
X39479D01*
X36939Y151821D02*
Y156901D01*
X2650Y48951D02*
X71230D01*
X2650Y259771D02*
X71230D01*
X2650Y48951D02*
Y259771D01*
X71230Y48951D02*
Y259771D01*
X254363Y154361D02*
X259443D01*
X256903Y151821D02*
Y156901D01*
X222614Y48951D02*
X291194D01*
X222614Y259771D02*
X291194D01*
X222614Y48951D02*
Y259771D01*
X291194Y48951D02*
Y259771D01*
M02*
