G04*
G04 #@! TF.GenerationSoftware,Altium Limited,Altium Designer,24.0.1 (36)*
G04*
G04 Layer_Color=128*
%FSLAX44Y44*%
%MOMM*%
G71*
G04*
G04 #@! TF.SameCoordinates,CE8C76C4-CE90-42B1-9663-5FE915DE4DC9*
G04*
G04*
G04 #@! TF.FilePolarity,Positive*
G04*
G01*
G75*
%ADD51C,0.1270*%
D51*
X344000Y129300D02*
X350000D01*
X347000Y126300D02*
Y132300D01*
X344000Y142000D02*
X350000D01*
X347000Y139000D02*
Y145000D01*
X344000Y154700D02*
X350000D01*
X347000Y151700D02*
Y157700D01*
X344000Y167400D02*
X350000D01*
X347000Y164400D02*
Y170400D01*
X344000Y180100D02*
X350000D01*
X347000Y177100D02*
Y183100D01*
X-57000Y181061D02*
X-51000D01*
X-54000Y178061D02*
Y184061D01*
X-57000Y168361D02*
X-51000D01*
X-54000Y165361D02*
Y171361D01*
X-57000Y155661D02*
X-51000D01*
X-54000Y152661D02*
Y158661D01*
X-57000Y142961D02*
X-51000D01*
X-54000Y139961D02*
Y145961D01*
X-57000Y130261D02*
X-51000D01*
X-54000Y127261D02*
Y133261D01*
X118290Y5000D02*
X124290D01*
X121290Y2000D02*
Y8000D01*
X130990Y5000D02*
X136990D01*
X133990Y2000D02*
Y8000D01*
X143690Y5000D02*
X149690D01*
X146690Y2000D02*
Y8000D01*
X156390Y5000D02*
X162390D01*
X159390Y2000D02*
Y8000D01*
X169090Y5000D02*
X175090D01*
X172090Y2000D02*
Y8000D01*
X169090Y299346D02*
X175090D01*
X172090Y296346D02*
Y302346D01*
X156390Y299346D02*
X162390D01*
X159390Y296346D02*
Y302346D01*
X143690Y299346D02*
X149690D01*
X146690Y296346D02*
Y302346D01*
X130990Y299346D02*
X136990D01*
X133990Y296346D02*
Y302346D01*
X118290Y299346D02*
X124290D01*
X121290Y296346D02*
Y302346D01*
X32439Y104361D02*
X41439D01*
X36939Y99861D02*
Y108861D01*
X32439Y64361D02*
X41439D01*
X36939Y59861D02*
Y68861D01*
X32439Y84361D02*
X41439D01*
X36939Y79861D02*
Y88861D01*
X32439Y164361D02*
X41439D01*
X36939Y159861D02*
Y168861D01*
X32439Y124361D02*
X41439D01*
X36939Y119861D02*
Y128861D01*
X32439Y144361D02*
X41439D01*
X36939Y139861D02*
Y148861D01*
X32439Y224361D02*
X41439D01*
X36939Y219861D02*
Y228861D01*
X32439Y184361D02*
X41439D01*
X36939Y179861D02*
Y188861D01*
X32439Y204361D02*
X41439D01*
X36939Y199861D02*
Y208861D01*
X32439Y244361D02*
X41439D01*
X36939Y239861D02*
Y248861D01*
X252404Y104361D02*
X261404D01*
X256903Y99861D02*
Y108861D01*
X252404Y64361D02*
X261404D01*
X256903Y59861D02*
Y68861D01*
X252404Y84361D02*
X261404D01*
X256903Y79861D02*
Y88861D01*
X252404Y164361D02*
X261404D01*
X256903Y159861D02*
Y168861D01*
X252404Y124361D02*
X261404D01*
X256903Y119861D02*
Y128861D01*
X252404Y144361D02*
X261404D01*
X256903Y139861D02*
Y148861D01*
X252404Y224361D02*
X261404D01*
X256903Y219861D02*
Y228861D01*
X252404Y184361D02*
X261404D01*
X256903Y179861D02*
Y188861D01*
X252404Y204361D02*
X261404D01*
X256903Y199861D02*
Y208861D01*
X252404Y244361D02*
X261404D01*
X256903Y239861D02*
Y248861D01*
X121161Y40895D02*
X124161D01*
X122661Y39395D02*
Y42395D01*
X-21000Y124361D02*
X-18000D01*
X-19500Y122861D02*
Y125861D01*
X188846Y21084D02*
X191846D01*
X190346Y19584D02*
Y22584D01*
X175664Y15274D02*
X178664D01*
X177164Y13774D02*
Y16774D01*
X304500Y102838D02*
X307500D01*
X306000Y101338D02*
Y104338D01*
X324500Y135000D02*
X327500D01*
X326000Y133500D02*
Y136500D01*
X201676Y288225D02*
X204676D01*
X203176Y286725D02*
Y289725D01*
X12444Y125908D02*
X19556D01*
X16000Y122352D02*
Y129464D01*
X65890Y52439D02*
X68890D01*
X67390Y50939D02*
Y53939D01*
X71136Y62570D02*
X74136D01*
X72636Y61070D02*
Y64070D01*
X108640Y39648D02*
X111640D01*
X110140Y38148D02*
Y41148D01*
X3944Y97304D02*
X6944D01*
X5444Y95804D02*
Y98804D01*
X280322Y98069D02*
X287434D01*
X283878Y94513D02*
Y101625D01*
X273218Y144361D02*
X280330D01*
X276774Y140805D02*
Y147917D01*
X10444Y167628D02*
X17556D01*
X14000Y164072D02*
Y171184D01*
X235713Y39665D02*
X238713D01*
X237213Y38165D02*
Y41165D01*
X128445Y90804D02*
X131445D01*
X129945Y89304D02*
Y92304D01*
X41939Y44620D02*
X44939D01*
X43439Y43120D02*
Y46120D01*
X101010Y69602D02*
X104010D01*
X102510Y68102D02*
Y71102D01*
X153690Y31102D02*
X156690D01*
X155190Y29602D02*
Y32602D01*
X159468Y21084D02*
X162468D01*
X160968Y19584D02*
Y22584D01*
X59715Y99188D02*
X62715D01*
X61215Y97688D02*
Y100688D01*
X230750Y117058D02*
X233750D01*
X232250Y115558D02*
Y118558D01*
X203583Y97304D02*
X206583D01*
X205083Y95804D02*
Y98804D01*
X70640Y96393D02*
X73640D01*
X72140Y94894D02*
Y97893D01*
X109640Y69602D02*
X112640D01*
X111140Y68102D02*
Y71102D01*
X215012Y81826D02*
X218011D01*
X216511Y80325D02*
Y83326D01*
X179586Y76304D02*
X182586D01*
X181086Y74804D02*
Y77804D01*
X198821Y275000D02*
X205933D01*
X202377Y271444D02*
Y278556D01*
X108834Y275000D02*
X115946D01*
X112390Y271444D02*
Y278556D01*
X10444Y204361D02*
X17556D01*
X14000Y200805D02*
Y207917D01*
X273218Y181138D02*
X280330D01*
X276774Y177582D02*
Y184694D01*
X233657Y205000D02*
X240769D01*
X237213Y201444D02*
Y208556D01*
X147188Y71916D02*
X150188D01*
X148688Y70416D02*
Y73416D01*
X145190Y31102D02*
X148190D01*
X146690Y29602D02*
Y32602D01*
X145190Y39416D02*
X148190D01*
X146690Y37916D02*
Y40916D01*
X145190Y47162D02*
X148190D01*
X146690Y45662D02*
Y48662D01*
X135468Y31102D02*
X138468D01*
X136968Y29602D02*
Y32602D01*
X135768Y39416D02*
X138768D01*
X137268Y37916D02*
Y40916D01*
X135768Y47162D02*
X138768D01*
X137268Y45662D02*
Y48662D01*
X226908Y39665D02*
X229908D01*
X228408Y38165D02*
Y41165D01*
M02*
