G04*
G04 #@! TF.GenerationSoftware,Altium Limited,Altium Designer,24.0.1 (36)*
G04*
G04 Layer_Color=32896*
%FSLAX44Y44*%
%MOMM*%
G71*
G04*
G04 #@! TF.SameCoordinates,CE8C76C4-CE90-42B1-9663-5FE915DE4DC9*
G04*
G04*
G04 #@! TF.FilePolarity,Positive*
G04*
G01*
G75*
%ADD12C,0.2000*%
%ADD14C,0.2540*%
D12*
X138690Y26805D02*
X154690D01*
X138690Y12305D02*
X154690D01*
D14*
X51521Y119540D02*
X61518D01*
Y124538D01*
X59851Y126205D01*
X53187D01*
X51521Y124538D01*
Y119540D01*
X61518Y134535D02*
Y131203D01*
X59851Y129537D01*
X56519D01*
X54853Y131203D01*
Y134535D01*
X56519Y136201D01*
X58185D01*
Y129537D01*
X61518Y139534D02*
Y144532D01*
X59851Y146198D01*
X58185Y144532D01*
Y141200D01*
X56519Y139534D01*
X54853Y141200D01*
Y146198D01*
X61518Y149530D02*
X59851D01*
Y151197D01*
X61518D01*
Y149530D01*
X51521Y167858D02*
X61518D01*
Y172856D01*
X59851Y174522D01*
X58185D01*
X56519D01*
X54853Y172856D01*
Y167858D01*
Y177855D02*
X59851D01*
X61518Y179521D01*
Y184519D01*
X63184D01*
X64850Y182853D01*
Y181187D01*
X61518Y184519D02*
X54853D01*
X51521Y197848D02*
X58185D01*
X61518Y201180D01*
X58185Y204513D01*
X51521D01*
X61518Y207845D02*
Y211177D01*
Y209511D01*
X51521D01*
Y207845D01*
X54853Y217842D02*
Y221174D01*
X56519Y222840D01*
X61518D01*
Y217842D01*
X59851Y216176D01*
X58185Y217842D01*
Y222840D01*
X51521Y232837D02*
X61518D01*
Y227838D01*
X59851Y226172D01*
X56519D01*
X54853Y227838D01*
Y232837D01*
X61518Y246166D02*
X51521D01*
X61518Y252831D01*
X51521D01*
M02*
