G04*
G04 #@! TF.GenerationSoftware,Altium Limited,Altium Designer,24.0.1 (36)*
G04*
G04 Layer_Physical_Order=1*
G04 Layer_Color=255*
%FSLAX44Y44*%
%MOMM*%
G71*
G04*
G04 #@! TF.SameCoordinates,CE8C76C4-CE90-42B1-9663-5FE915DE4DC9*
G04*
G04*
G04 #@! TF.FilePolarity,Positive*
G04*
G01*
G75*
%ADD12C,0.2000*%
%ADD13C,0.3000*%
%ADD15R,0.6500X0.7000*%
%ADD16R,0.3808X1.6554*%
G04:AMPARAMS|DCode=17|XSize=1.6554mm|YSize=0.3808mm|CornerRadius=0.1904mm|HoleSize=0mm|Usage=FLASHONLY|Rotation=270.000|XOffset=0mm|YOffset=0mm|HoleType=Round|Shape=RoundedRectangle|*
%AMROUNDEDRECTD17*
21,1,1.6554,0.0000,0,0,270.0*
21,1,1.2747,0.3808,0,0,270.0*
1,1,0.3808,0.0000,-0.6373*
1,1,0.3808,0.0000,0.6373*
1,1,0.3808,0.0000,0.6373*
1,1,0.3808,0.0000,-0.6373*
%
%ADD17ROUNDEDRECTD17*%
%ADD18R,0.3000X0.7000*%
%ADD19R,1.4061X1.5082*%
%ADD20R,1.0000X1.1000*%
%ADD21R,1.3000X0.7000*%
%ADD22R,0.5000X0.4000*%
%ADD23R,0.7000X0.6500*%
%ADD24R,0.9000X1.0000*%
%ADD25R,0.9500X0.9500*%
%ADD26R,2.1000X0.8500*%
%ADD36C,0.4000*%
%ADD37C,0.1500*%
%ADD38C,1.0000*%
%ADD39C,1.5000*%
%ADD40C,0.6000*%
%ADD41C,1.2700*%
G36*
X206940Y293012D02*
X206605Y291644D01*
X206204Y291561D01*
X205725Y292040D01*
X204072Y292725D01*
X202281D01*
X200627Y292040D01*
X199361Y290774D01*
X198676Y289120D01*
Y287330D01*
X199361Y285676D01*
X200627Y284410D01*
X202281Y283725D01*
X204072D01*
X205725Y284410D01*
X206991Y285676D01*
X207088Y285695D01*
X223870Y268913D01*
Y122889D01*
X224064Y121914D01*
X224616Y121087D01*
X227750Y117953D01*
X227750Y117953D01*
Y116163D01*
X228435Y114508D01*
X229701Y113243D01*
X231355Y112558D01*
X233145D01*
X234799Y113243D01*
X236065Y114508D01*
X236750Y116163D01*
Y117953D01*
X236065Y119607D01*
X234799Y120872D01*
X233145Y121558D01*
X231355D01*
X231355Y121558D01*
X228968Y123945D01*
Y137522D01*
X229403Y138611D01*
X230238Y138611D01*
X249926D01*
X251377Y137160D01*
X253430Y135975D01*
X255719Y135361D01*
X258088D01*
X260377Y135975D01*
X262430Y137160D01*
X264105Y138835D01*
X265290Y140887D01*
X265903Y143176D01*
Y145546D01*
X265290Y147835D01*
X264105Y149887D01*
X262430Y151563D01*
X260377Y152748D01*
X258088Y153361D01*
X255719D01*
X253430Y152748D01*
X251377Y151563D01*
X249926Y150111D01*
X230238D01*
X229403Y150111D01*
X228968Y151201D01*
Y177522D01*
X229403Y178611D01*
X230238Y178611D01*
X249926D01*
X251377Y177160D01*
X253430Y175975D01*
X255719Y175361D01*
X258088D01*
X260377Y175975D01*
X262430Y177160D01*
X264105Y178835D01*
X265290Y180887D01*
X265903Y183176D01*
Y185546D01*
X265290Y187835D01*
X264105Y189887D01*
X262430Y191563D01*
X260377Y192748D01*
X258088Y193361D01*
X255719D01*
X253430Y192748D01*
X251377Y191563D01*
X249926Y190111D01*
X230238D01*
X229403Y190111D01*
X228968Y191201D01*
Y217522D01*
X229403Y218611D01*
X230238Y218611D01*
X249926D01*
X251377Y217160D01*
X253430Y215975D01*
X255719Y215361D01*
X258088D01*
X260377Y215975D01*
X262430Y217160D01*
X264105Y218835D01*
X265290Y220887D01*
X265903Y223176D01*
Y225546D01*
X265290Y227835D01*
X264105Y229887D01*
X262430Y231563D01*
X260377Y232748D01*
X258088Y233361D01*
X255719D01*
X253430Y232748D01*
X251377Y231563D01*
X249926Y230111D01*
X230238D01*
X229403Y230111D01*
X228968Y231201D01*
Y269968D01*
X228774Y270944D01*
X228221Y271771D01*
X216293Y283699D01*
X217147Y284641D01*
X244257Y262407D01*
X244785Y262125D01*
X245282Y261793D01*
X245481Y261753D01*
X245660Y261658D01*
X246256Y261599D01*
X246843Y261482D01*
X273750D01*
X283851Y251381D01*
X283325Y250111D01*
X263881D01*
X262430Y251563D01*
X260377Y252748D01*
X258088Y253361D01*
X255719D01*
X253430Y252748D01*
X251377Y251563D01*
X249702Y249887D01*
X248517Y247835D01*
X247903Y245546D01*
Y243176D01*
X248517Y240887D01*
X249702Y238835D01*
X251377Y237160D01*
X253430Y235975D01*
X255719Y235361D01*
X258088D01*
X260377Y235975D01*
X262430Y237160D01*
X263881Y238611D01*
X284403D01*
Y249033D01*
X285674Y249559D01*
X289922Y245311D01*
Y230000D01*
X289922Y230000D01*
X290232Y228439D01*
X291116Y227116D01*
X321116Y197117D01*
X322439Y196233D01*
X324000Y195922D01*
X324000Y195922D01*
X353922Y195922D01*
Y183651D01*
X352652Y183311D01*
X352201Y184091D01*
X350991Y185301D01*
X349509Y186157D01*
X348000Y186561D01*
Y180100D01*
X347000D01*
Y179100D01*
X340539D01*
X340943Y177591D01*
X341799Y176109D01*
X343009Y174899D01*
X343728Y174483D01*
Y173017D01*
X343009Y172601D01*
X341799Y171391D01*
X340943Y169909D01*
X340500Y168256D01*
Y166544D01*
X340931Y164936D01*
X324198Y148202D01*
X323645Y147375D01*
X323451Y146400D01*
Y138815D01*
X323451Y138815D01*
X322185Y137549D01*
X321500Y135895D01*
Y134105D01*
X322185Y132451D01*
X323451Y131185D01*
X325105Y130500D01*
X326895D01*
X328549Y131185D01*
X329815Y132451D01*
X330500Y134105D01*
Y135895D01*
X329815Y137549D01*
X328549Y138815D01*
X328549Y138815D01*
Y145344D01*
X339341Y156136D01*
X340364Y155624D01*
X340500Y155499D01*
Y153844D01*
X340943Y152191D01*
X341799Y150709D01*
X343009Y149499D01*
X343728Y149083D01*
Y147617D01*
X343009Y147201D01*
X341799Y145991D01*
X340943Y144509D01*
X340500Y142856D01*
Y141144D01*
X340931Y139536D01*
X328252Y126856D01*
X293714D01*
X292739Y126663D01*
X291912Y126110D01*
X285674Y119871D01*
X284403Y120397D01*
Y130111D01*
X263881D01*
X262430Y131563D01*
X260377Y132748D01*
X258088Y133361D01*
X255719D01*
X253430Y132748D01*
X251377Y131563D01*
X249702Y129887D01*
X248517Y127835D01*
X247903Y125546D01*
Y123176D01*
X248517Y120887D01*
X249702Y118835D01*
X251377Y117160D01*
X253430Y115975D01*
X255719Y115361D01*
X258088D01*
X260377Y115975D01*
X262430Y117160D01*
X263881Y118611D01*
X279895D01*
X280421Y117341D01*
X267174Y104094D01*
X265903Y104620D01*
Y105546D01*
X265290Y107835D01*
X264105Y109887D01*
X262430Y111563D01*
X260377Y112748D01*
X258088Y113361D01*
X255719D01*
X253430Y112748D01*
X251377Y111563D01*
X249926Y110111D01*
X229403D01*
Y103340D01*
X228230Y102854D01*
X224920Y106164D01*
X224093Y106716D01*
X223118Y106910D01*
X80164D01*
X79188Y106716D01*
X78361Y106164D01*
X76838Y104640D01*
X76285Y103813D01*
X76091Y102838D01*
Y92654D01*
X75959Y92556D01*
X74689Y93195D01*
Y96393D01*
X74495Y97369D01*
X73942Y98196D01*
X73115Y98748D01*
X72140Y98942D01*
X71165Y98748D01*
X70338Y98196D01*
X69785Y97369D01*
X69591Y96393D01*
Y91114D01*
X69480Y90947D01*
X69450Y90924D01*
X68159Y90704D01*
X67938Y90753D01*
X64885Y93806D01*
X64268Y94218D01*
X64143Y94505D01*
X64052Y95052D01*
X64047Y95656D01*
X65030Y96639D01*
X65715Y98293D01*
Y100083D01*
X65547Y100489D01*
X69192Y104134D01*
X69745Y104961D01*
X69939Y105936D01*
Y155661D01*
X69745Y156636D01*
X69192Y157463D01*
X64440Y162216D01*
Y167365D01*
X64489Y167611D01*
Y189570D01*
X70802Y195884D01*
X71355Y196711D01*
X71549Y197687D01*
Y259728D01*
X93580Y281758D01*
X123695D01*
X124671Y281952D01*
X125498Y282505D01*
X127501Y284508D01*
X134402D01*
X135377Y284702D01*
X136204Y285255D01*
X144226Y293277D01*
X145834Y292846D01*
X147546D01*
X149199Y293289D01*
X150681Y294144D01*
X151891Y295355D01*
X152307Y296074D01*
X153773D01*
X154189Y295355D01*
X155399Y294144D01*
X156881Y293289D01*
X158534Y292846D01*
X160246D01*
X161899Y293289D01*
X163381Y294144D01*
X164591Y295355D01*
X165007Y296074D01*
X166473D01*
X166889Y295355D01*
X168099Y294144D01*
X168957Y293649D01*
Y283850D01*
X168210D01*
Y273850D01*
X177710D01*
Y283850D01*
X176094D01*
Y294157D01*
X177291Y295355D01*
X178147Y296837D01*
X178590Y298490D01*
Y300201D01*
X178147Y301855D01*
X177291Y303337D01*
X176081Y304547D01*
X174599Y305403D01*
X172946Y305846D01*
X171234D01*
X169581Y305403D01*
X168099Y304547D01*
X166889Y303337D01*
X166473Y302617D01*
X165007D01*
X164591Y303337D01*
X163381Y304547D01*
X161899Y305403D01*
X160246Y305846D01*
X158534D01*
X156881Y305403D01*
X155399Y304547D01*
X154189Y303337D01*
X153773Y302617D01*
X152307D01*
X151891Y303337D01*
X150681Y304547D01*
X149199Y305403D01*
X147546Y305846D01*
X145834D01*
X144181Y305403D01*
X142699Y304547D01*
X141489Y303337D01*
X141073Y302617D01*
X139607D01*
X139191Y303337D01*
X137981Y304547D01*
X136499Y305403D01*
X134846Y305846D01*
X133134D01*
X131481Y305403D01*
X129999Y304547D01*
X128789Y303337D01*
X128373Y302617D01*
X126907D01*
X126491Y303337D01*
X125281Y304547D01*
X123799Y305403D01*
X122290Y305807D01*
Y299346D01*
X121290D01*
Y298346D01*
X114829D01*
X115233Y296837D01*
X116089Y295355D01*
X117299Y294144D01*
X118781Y293289D01*
X120434Y292846D01*
X120438D01*
X120897Y291740D01*
X120107Y290774D01*
X86331D01*
X86255Y290759D01*
X85696Y291942D01*
X106455Y308922D01*
X187542D01*
X206940Y293012D01*
D02*
G37*
G36*
X80792Y286290D02*
X63637Y269136D01*
X63085Y268309D01*
X62891Y267333D01*
Y250111D01*
X43917D01*
X42466Y251563D01*
X40413Y252748D01*
X38124Y253361D01*
X35755D01*
X33466Y252748D01*
X31413Y251563D01*
X29738Y249887D01*
X28553Y247835D01*
X27940Y245546D01*
Y243176D01*
X28553Y240887D01*
X29738Y238835D01*
X31413Y237160D01*
X33466Y235975D01*
X35755Y235361D01*
X38124D01*
X40413Y235975D01*
X42466Y237160D01*
X43917Y238611D01*
X62891D01*
Y210111D01*
X43917D01*
X42466Y211563D01*
X40413Y212748D01*
X38124Y213361D01*
X35755D01*
X33466Y212748D01*
X31413Y211563D01*
X29738Y209887D01*
X28553Y207835D01*
X27940Y205546D01*
Y203176D01*
X28553Y200887D01*
X29738Y198835D01*
X31413Y197160D01*
X33466Y195975D01*
X35755Y195361D01*
X38124D01*
X40413Y195975D01*
X42466Y197160D01*
X43917Y198611D01*
X59711D01*
X60197Y197438D01*
X49669Y186910D01*
X45574D01*
X45326Y187835D01*
X44141Y189887D01*
X42466Y191563D01*
X40413Y192748D01*
X38124Y193361D01*
X35755D01*
X33466Y192748D01*
X31413Y191563D01*
X29962Y190111D01*
X9439D01*
Y178611D01*
X25925D01*
X26411Y177438D01*
X23194Y174221D01*
X22642Y173394D01*
X22448Y172418D01*
Y161223D01*
X16884Y155659D01*
X9181D01*
X8205Y155465D01*
X7378Y154912D01*
X3641Y151175D01*
X3089Y150348D01*
X2895Y149373D01*
Y101119D01*
X2894Y101119D01*
X1629Y99853D01*
X944Y98199D01*
Y96409D01*
X1341Y95450D01*
X264Y94731D01*
X-16951Y111946D01*
Y120546D01*
X-16951Y120546D01*
X-15685Y121812D01*
X-15000Y123466D01*
Y125256D01*
X-15685Y126910D01*
X-16951Y128176D01*
X-18605Y128861D01*
X-20395D01*
X-22049Y128176D01*
X-23315Y126910D01*
X-24000Y125256D01*
Y123466D01*
X-23315Y121812D01*
X-22049Y120546D01*
X-22049Y120546D01*
Y110890D01*
X-21855Y109915D01*
X-21302Y109088D01*
X-917Y88703D01*
X-91Y88150D01*
X885Y87956D01*
X27270D01*
X28245Y86686D01*
X27940Y85546D01*
Y83176D01*
X28553Y80887D01*
X29738Y78835D01*
X31413Y77160D01*
X33466Y75975D01*
X35755Y75361D01*
X38124D01*
X40413Y75975D01*
X42466Y77160D01*
X43917Y78611D01*
X64150D01*
Y75718D01*
X64344Y74743D01*
X64897Y73916D01*
X69615Y69198D01*
X70442Y68645D01*
X71417Y68451D01*
X79635D01*
X80610Y68645D01*
X81437Y69198D01*
X85308Y73068D01*
X86468Y73299D01*
X87594Y74051D01*
X88672Y73379D01*
X89091Y72995D01*
Y71916D01*
X89285Y70941D01*
X89838Y70114D01*
X118161Y41790D01*
X118161Y41790D01*
Y40000D01*
X118847Y38346D01*
X120112Y37080D01*
X121766Y36395D01*
X123556D01*
X125074Y37024D01*
X126344Y36555D01*
Y29940D01*
X121110D01*
Y32744D01*
X120846Y34072D01*
X120094Y35198D01*
X118968Y35951D01*
X117640Y36215D01*
X116312Y35951D01*
X115186Y35198D01*
X115154Y35150D01*
X113626D01*
X113594Y35198D01*
X113481Y35274D01*
X113406Y36550D01*
X113955Y37099D01*
X114640Y38753D01*
Y40543D01*
X113955Y42197D01*
X112689Y43463D01*
X111035Y44148D01*
X109245D01*
X108459Y43823D01*
X108243Y43845D01*
X107062Y44594D01*
X106995Y44931D01*
X106442Y45758D01*
X87783Y64417D01*
X86956Y64970D01*
X85981Y65164D01*
X76406D01*
X75185Y66385D01*
X73531Y67070D01*
X71741D01*
X70087Y66385D01*
X68821Y65119D01*
X68225Y63679D01*
X66962Y63146D01*
X62250Y67858D01*
Y76754D01*
X49750D01*
Y64254D01*
X58645D01*
X59972Y62927D01*
X59486Y61754D01*
X49750D01*
Y48189D01*
X46234D01*
X45988Y48435D01*
X44334Y49120D01*
X42544D01*
X40890Y48435D01*
X39624Y47169D01*
X38939Y45515D01*
Y43725D01*
X39624Y42071D01*
X40890Y40805D01*
X42544Y40120D01*
X44334D01*
X45988Y40805D01*
X46234Y41051D01*
X49750D01*
Y38370D01*
X59486D01*
X59972Y37197D01*
X58645Y35870D01*
X49750D01*
Y24568D01*
X48480Y24083D01*
X30041Y44717D01*
X29948Y44787D01*
X29884Y44884D01*
X29315Y45264D01*
X28770Y45674D01*
X28657Y45703D01*
X28561Y45768D01*
X27891Y45901D01*
X27229Y46072D01*
X27114Y46056D01*
X27000Y46078D01*
X23689D01*
X12080Y57688D01*
X12566Y58861D01*
X20440D01*
Y63361D01*
X9689D01*
Y61737D01*
X8516Y61251D01*
X4078Y65689D01*
Y79000D01*
X4078Y79000D01*
X3768Y80561D01*
X2884Y81884D01*
X-28116Y112884D01*
X-29439Y113768D01*
X-31000Y114078D01*
X-31000Y114078D01*
X-59922Y114078D01*
Y125194D01*
X-58652Y125720D01*
X-57991Y125059D01*
X-56509Y124204D01*
X-55000Y123799D01*
Y130261D01*
X-54000D01*
Y131261D01*
X-47539D01*
X-47943Y132770D01*
X-48799Y134252D01*
X-50009Y135462D01*
X-50729Y135878D01*
Y137344D01*
X-50009Y137760D01*
X-48799Y138970D01*
X-47943Y140452D01*
X-47500Y142105D01*
Y143816D01*
X-47943Y145470D01*
X-48799Y146952D01*
X-50009Y148162D01*
X-50729Y148577D01*
Y150044D01*
X-50009Y150459D01*
X-48799Y151670D01*
X-47943Y153152D01*
X-47500Y154805D01*
Y156517D01*
X-47943Y158170D01*
X-48799Y159652D01*
X-50009Y160862D01*
X-50729Y161278D01*
Y162744D01*
X-50009Y163160D01*
X-48799Y164370D01*
X-47943Y165852D01*
X-47500Y167505D01*
Y169216D01*
X-47943Y170870D01*
X-48799Y172352D01*
X-50009Y173562D01*
X-50729Y173978D01*
Y175444D01*
X-50009Y175860D01*
X-48799Y177070D01*
X-48555Y177492D01*
X-41408D01*
X-40042Y177764D01*
X-38884Y178537D01*
X-26990Y190431D01*
X-22500D01*
Y189000D01*
X-13000D01*
Y199000D01*
X-22500D01*
Y197569D01*
X-25005D01*
X-25491Y198742D01*
X2884Y227116D01*
X2884Y227116D01*
X3768Y228439D01*
X4078Y230000D01*
Y245311D01*
X20250Y261482D01*
X47000D01*
X47584Y261598D01*
X48177Y261656D01*
X48359Y261753D01*
X48561Y261793D01*
X49056Y262124D01*
X49582Y262404D01*
X79938Y287233D01*
X80792Y286290D01*
D02*
G37*
G36*
X-32767Y194748D02*
X-42886Y184629D01*
X-48555D01*
X-48799Y185052D01*
X-50009Y186262D01*
X-51491Y187118D01*
X-53144Y187561D01*
X-54856D01*
X-56509Y187118D01*
X-57991Y186262D01*
X-58652Y185601D01*
X-59922Y186127D01*
Y195922D01*
X-33253Y195922D01*
X-32767Y194748D01*
D02*
G37*
G36*
X59391Y187763D02*
Y170111D01*
X43917D01*
X42466Y171563D01*
X40413Y172748D01*
X38124Y173361D01*
X35755D01*
X33466Y172748D01*
X31413Y171563D01*
X29738Y169887D01*
X28816Y168290D01*
X27546Y168631D01*
Y171363D01*
X32636Y176453D01*
X33466Y175975D01*
X35755Y175361D01*
X38124D01*
X40413Y175975D01*
X42466Y177160D01*
X44141Y178835D01*
X45326Y180887D01*
X45574Y181812D01*
X50725D01*
X51701Y182006D01*
X52527Y182559D01*
X58217Y188249D01*
X59391Y187763D01*
D02*
G37*
G36*
X29738Y158835D02*
X31413Y157160D01*
X33466Y155975D01*
X35755Y155361D01*
X38124D01*
X40413Y155975D01*
X42466Y157160D01*
X43917Y158611D01*
X60835D01*
X64841Y154605D01*
Y131215D01*
X64440Y130111D01*
X63571Y130111D01*
X43917D01*
X42466Y131563D01*
X40413Y132748D01*
X38124Y133361D01*
X35755D01*
X33466Y132748D01*
X31413Y131563D01*
X29738Y129887D01*
X28553Y127835D01*
X27940Y125546D01*
Y123176D01*
X28553Y120887D01*
X29738Y118835D01*
X31413Y117160D01*
X33466Y115975D01*
X35755Y115361D01*
X38124D01*
X40413Y115975D01*
X42466Y117160D01*
X43917Y118611D01*
X63571D01*
X64440Y118611D01*
X64841Y117508D01*
Y106992D01*
X61537Y103688D01*
X60320D01*
X58666Y103003D01*
X57400Y101737D01*
X56715Y100083D01*
Y98293D01*
X57400Y96639D01*
X58216Y95823D01*
X57690Y94553D01*
X44495D01*
X43029Y96018D01*
X42915Y96250D01*
X42892Y96339D01*
X42952Y97646D01*
X44141Y98835D01*
X45326Y100887D01*
X45939Y103176D01*
Y105546D01*
X45326Y107835D01*
X44141Y109887D01*
X42466Y111563D01*
X40413Y112748D01*
X38124Y113361D01*
X35755D01*
X33466Y112748D01*
X31413Y111563D01*
X29962Y110111D01*
X9439D01*
Y102804D01*
X8170Y102125D01*
X7993Y102243D01*
Y147329D01*
X8170Y147448D01*
X9439Y146769D01*
Y138611D01*
X29962D01*
X31413Y137160D01*
X33466Y135975D01*
X35755Y135361D01*
X38124D01*
X40413Y135975D01*
X42466Y137160D01*
X44141Y138835D01*
X45326Y140887D01*
X45939Y143176D01*
Y145546D01*
X45326Y147835D01*
X44141Y149887D01*
X42466Y151563D01*
X40413Y152748D01*
X38124Y153361D01*
X35755D01*
X33466Y152748D01*
X31413Y151563D01*
X29962Y150111D01*
X20237D01*
X19841Y151068D01*
X19816Y151381D01*
X26799Y158365D01*
X27352Y159192D01*
X27534Y160111D01*
X27664Y160189D01*
X28823Y160420D01*
X29738Y158835D01*
D02*
G37*
G36*
X305500Y112058D02*
X315000D01*
Y113489D01*
X320925D01*
X321451Y112219D01*
X311770Y102537D01*
X310500Y103063D01*
Y103733D01*
X309815Y105387D01*
X308549Y106652D01*
X306895Y107338D01*
X305105D01*
X303451Y106652D01*
X302185Y105387D01*
X301500Y103733D01*
Y101943D01*
X301500Y101942D01*
X293340Y93782D01*
X292787Y92955D01*
X292593Y91980D01*
Y89870D01*
X285577Y82854D01*
X284403Y83340D01*
Y90111D01*
X263881D01*
X262916Y91077D01*
X262856Y92383D01*
X262879Y92473D01*
X262993Y92704D01*
X284546Y114257D01*
X286213D01*
X287188Y114451D01*
X288015Y115004D01*
X290980Y117968D01*
X292250Y117442D01*
Y115912D01*
X284123Y107785D01*
X283570Y106958D01*
X283376Y105983D01*
Y101173D01*
X282076Y99872D01*
X281523Y99045D01*
X281329Y98069D01*
X281523Y97094D01*
X282076Y96267D01*
X282902Y95714D01*
X283878Y95520D01*
X284853Y95714D01*
X285680Y96267D01*
X287728Y98314D01*
X288280Y99141D01*
X288474Y100117D01*
Y104927D01*
X295750Y112203D01*
Y117058D01*
X296750D01*
Y118058D01*
X301250D01*
Y121759D01*
X305500D01*
Y112058D01*
D02*
G37*
G36*
X231315Y92559D02*
X232143Y92006D01*
X233118Y91812D01*
X249831D01*
X250357Y90542D01*
X249702Y89888D01*
X248571Y87930D01*
X245364D01*
X245148Y88452D01*
X244000Y88928D01*
X205083D01*
Y92804D01*
X205978D01*
X207632Y93489D01*
X208898Y94755D01*
X209583Y96409D01*
Y98199D01*
X208898Y99853D01*
X208209Y100542D01*
X208735Y101812D01*
X222062D01*
X231315Y92559D01*
D02*
G37*
G36*
X173675Y97139D02*
X169840Y93304D01*
X161445D01*
Y80304D01*
X173445D01*
Y89699D01*
X176813Y93068D01*
X178083Y92542D01*
Y84149D01*
X178014Y83804D01*
Y79597D01*
X177271Y78853D01*
X176586Y77199D01*
Y75409D01*
X176744Y75026D01*
X175718Y74184D01*
X175588Y74271D01*
X174613Y74465D01*
X169718D01*
Y76666D01*
X162968D01*
Y71916D01*
X160968D01*
Y76666D01*
X154218D01*
Y74465D01*
X151237D01*
Y77107D01*
X152303Y78173D01*
X152855Y79000D01*
X153049Y79976D01*
Y80554D01*
X157195D01*
Y85804D01*
X151445D01*
X145695D01*
Y80554D01*
X145751D01*
X146430Y79284D01*
X146333Y79138D01*
X146280Y78875D01*
X145117Y78189D01*
X144882Y78195D01*
X144090Y78353D01*
X134675D01*
X134652Y78369D01*
X134106Y79101D01*
X133945Y80304D01*
X133945D01*
Y87304D01*
X133945Y87304D01*
X133892Y88574D01*
X134445Y89909D01*
Y91699D01*
X133760Y93353D01*
X132494Y94619D01*
X130840Y95304D01*
X129050D01*
X127396Y94619D01*
X126130Y93353D01*
X125445Y91699D01*
Y89909D01*
X125998Y88574D01*
X125945Y87304D01*
X125030Y86447D01*
X121044D01*
Y92656D01*
X114236D01*
Y92407D01*
X112966Y91825D01*
X112371Y92223D01*
X112140Y92269D01*
Y82879D01*
X110140D01*
Y92269D01*
X109909Y92223D01*
X108866Y91526D01*
X108804Y91433D01*
X107277D01*
X107094Y91706D01*
X105968Y92458D01*
X104640Y92723D01*
X103312Y92458D01*
X102186Y91706D01*
X101108Y92379D01*
X100689Y92762D01*
Y94498D01*
X104503Y98312D01*
X173189D01*
X173675Y97139D01*
D02*
G37*
G36*
X126195Y79054D02*
Y76804D01*
X129945D01*
Y75804D01*
X130945D01*
Y72554D01*
X133695D01*
Y73255D01*
X143034D01*
X146175Y70114D01*
X147002Y69561D01*
X147978Y69367D01*
X154218D01*
Y67166D01*
X153311Y66290D01*
X127968D01*
X126820Y65814D01*
X126344Y64666D01*
Y45235D01*
X125074Y44766D01*
X123556Y45395D01*
X121766D01*
X121766Y45395D01*
X103233Y63928D01*
X103724Y65233D01*
X105059Y65787D01*
X106325Y67052D01*
X107010Y68706D01*
Y70497D01*
X106711Y71220D01*
X106995Y71645D01*
X107189Y72621D01*
Y73104D01*
X107321Y73202D01*
X108591Y72563D01*
Y69602D01*
X108785Y68626D01*
X109338Y67799D01*
X110165Y67247D01*
X111140Y67053D01*
X112115Y67247D01*
X112942Y67799D01*
X113495Y68626D01*
X113689Y69602D01*
Y72058D01*
X114236Y73102D01*
X121044D01*
Y79310D01*
X125031D01*
X126195Y79054D01*
D02*
G37*
G36*
X249702Y78835D02*
X251377Y77160D01*
X253430Y75975D01*
X255719Y75361D01*
X258088D01*
X260377Y75975D01*
X262430Y77160D01*
X263881Y78611D01*
X282500D01*
Y67157D01*
X278938Y63594D01*
X270105D01*
X269129Y63400D01*
X268302Y62847D01*
X266701Y61246D01*
X265562Y61904D01*
X265903Y63176D01*
Y65546D01*
X265290Y67835D01*
X264105Y69887D01*
X262430Y71563D01*
X260377Y72748D01*
X258088Y73361D01*
X255719D01*
X253430Y72748D01*
X251377Y71563D01*
X249925Y70111D01*
X245624D01*
Y80793D01*
X248571D01*
X249702Y78835D01*
D02*
G37*
G36*
X244000Y70111D02*
X229403D01*
Y58611D01*
X244000D01*
Y54845D01*
X221865D01*
Y57416D01*
X218115D01*
Y52916D01*
X216115D01*
Y57416D01*
X212365D01*
Y54845D01*
X203176D01*
Y59375D01*
X200426D01*
Y65115D01*
X203176D01*
Y68865D01*
X200426D01*
Y70865D01*
X203176D01*
Y74615D01*
X200426D01*
Y79804D01*
X205083D01*
Y87304D01*
X244000D01*
Y70111D01*
D02*
G37*
G36*
X251377Y57160D02*
X253430Y55975D01*
X255719Y55361D01*
X258088D01*
X259361Y55703D01*
X260019Y54564D01*
X223588Y18133D01*
X195369D01*
X194521Y19403D01*
X194846Y20189D01*
Y21979D01*
X194293Y23314D01*
X194870Y24584D01*
X203877D01*
Y42666D01*
X197895D01*
Y49625D01*
X203426D01*
Y51566D01*
X207868D01*
X209452Y49982D01*
X209452Y49982D01*
X210445Y49319D01*
X211615Y49086D01*
X212115Y48166D01*
X222115D01*
Y53221D01*
X244000D01*
X245148Y53697D01*
X245624Y54845D01*
Y58611D01*
X249926D01*
X251377Y57160D01*
D02*
G37*
G36*
X281962Y57826D02*
X270214Y46078D01*
X266904Y46078D01*
X266790Y46056D01*
X266675Y46072D01*
X266013Y45901D01*
X265343Y45768D01*
X265246Y45703D01*
X265134Y45674D01*
X264588Y45264D01*
X264020Y44884D01*
X263955Y44787D01*
X263862Y44717D01*
X223079Y-922D01*
X177157D01*
X176631Y348D01*
X177291Y1009D01*
X178147Y2491D01*
X178551Y4000D01*
X172090D01*
Y6000D01*
X178551D01*
X178147Y7509D01*
X177291Y8991D01*
X176778Y9504D01*
X177304Y10774D01*
X178059D01*
X179713Y11459D01*
X180979Y12725D01*
X181108Y13035D01*
X224644D01*
X225619Y13229D01*
X226446Y13782D01*
X271160Y58496D01*
X279993D01*
X280969Y58690D01*
X281153Y58813D01*
X281962Y57826D01*
D02*
G37*
G36*
X95591Y42717D02*
Y36255D01*
X95172Y35871D01*
X94094Y35198D01*
X92968Y35951D01*
X91640Y36215D01*
X90312Y35951D01*
X89186Y35198D01*
X89154Y35150D01*
X87626D01*
X87594Y35198D01*
X86468Y35951D01*
X85140Y36215D01*
X83812Y35951D01*
X82686Y35198D01*
X82654Y35150D01*
X81126D01*
X81094Y35198D01*
X79968Y35951D01*
X78640Y36215D01*
X77312Y35951D01*
X76186Y35198D01*
X76154Y35150D01*
X74626D01*
X74594Y35198D01*
X73468Y35951D01*
X72140Y36215D01*
X70812Y35951D01*
X69686Y35198D01*
X68934Y34072D01*
X68670Y32744D01*
Y19998D01*
X68934Y18670D01*
X69686Y17544D01*
X70812Y16791D01*
X72140Y16527D01*
X73468Y16791D01*
X74594Y17544D01*
X74626Y17592D01*
X76154D01*
X76186Y17544D01*
X77312Y16791D01*
X78640Y16527D01*
X79968Y16791D01*
X81094Y17544D01*
X81126Y17592D01*
X82654D01*
X82686Y17544D01*
X83812Y16791D01*
X85140Y16527D01*
X86468Y16791D01*
X87594Y17544D01*
X87626Y17592D01*
X89154D01*
X89186Y17544D01*
X90312Y16791D01*
X91640Y16527D01*
X92968Y16791D01*
X94094Y17544D01*
X94126Y17592D01*
X95654D01*
X95686Y17544D01*
X96812Y16791D01*
X98140Y16527D01*
X99468Y16791D01*
X100594Y17544D01*
X100626Y17592D01*
X102154D01*
X102186Y17544D01*
X103312Y16791D01*
X104640Y16527D01*
X104829Y16565D01*
X110422Y10972D01*
X111166Y10474D01*
X112044Y10300D01*
X115602D01*
X116128Y9030D01*
X116089Y8991D01*
X115233Y7509D01*
X114790Y5856D01*
Y4144D01*
X115233Y2491D01*
X116089Y1009D01*
X116749Y348D01*
X116223Y-922D01*
X70825D01*
X50252Y22100D01*
X50821Y23370D01*
X62250D01*
Y32265D01*
X69192Y39207D01*
X69745Y40034D01*
X69939Y41010D01*
Y48624D01*
X69939Y48624D01*
X71205Y49890D01*
X71890Y51544D01*
Y53334D01*
X71881Y53355D01*
X72587Y54411D01*
X83897D01*
X95591Y42717D01*
D02*
G37*
G36*
X183846Y42416D02*
X177825D01*
Y33625D01*
Y24834D01*
X183846D01*
Y23633D01*
X175196D01*
X174221Y23439D01*
X173394Y22887D01*
X167631Y17124D01*
X163165D01*
X163517Y17269D01*
X164783Y18535D01*
X165468Y20189D01*
Y21979D01*
X164783Y23633D01*
X163517Y24899D01*
X161863Y25584D01*
X160073D01*
X158419Y24899D01*
X157153Y23633D01*
X156468Y21979D01*
Y20189D01*
X157153Y18535D01*
X158419Y17269D01*
X158771Y17124D01*
X150511D01*
X150168Y17466D01*
X149424Y17963D01*
X148546Y18138D01*
X127968D01*
Y22803D01*
X131696D01*
X133062Y23074D01*
X134219Y23848D01*
X138138Y27766D01*
X138334Y27805D01*
X139491Y28579D01*
X139791Y28879D01*
X140565Y30036D01*
X140836Y31402D01*
Y39416D01*
Y45684D01*
X144500Y49348D01*
X154218D01*
Y48166D01*
X158399D01*
Y35968D01*
X158671Y34603D01*
X159445Y33445D01*
X161788Y31102D01*
X162945Y30328D01*
X164311Y30057D01*
X168545D01*
Y24834D01*
X175825D01*
Y33625D01*
Y42416D01*
X168545D01*
Y37194D01*
X165789D01*
X165536Y37447D01*
Y48166D01*
X169718D01*
Y51916D01*
X161968D01*
Y52916D01*
X160968D01*
Y57666D01*
X154218D01*
Y56485D01*
X143022D01*
X141657Y56213D01*
X140499Y55440D01*
X134745Y49686D01*
X133971Y48528D01*
X133699Y47162D01*
Y39416D01*
Y33421D01*
X130218Y29940D01*
X127968D01*
Y64666D01*
X183846D01*
Y42416D01*
D02*
G37*
G36*
Y18133D02*
X180669D01*
X180267Y18535D01*
X183846D01*
Y18133D01*
D02*
G37*
%LPC*%
G36*
X120290Y305807D02*
X118781Y305403D01*
X117299Y304547D01*
X116089Y303337D01*
X115233Y301855D01*
X114829Y300346D01*
X120290D01*
Y305807D01*
D02*
G37*
G36*
X190960Y283600D02*
X187460D01*
Y279850D01*
X190960D01*
Y283600D01*
D02*
G37*
G36*
X185460D02*
X181960D01*
Y279850D01*
X185460D01*
Y283600D01*
D02*
G37*
G36*
X190960Y277850D02*
X187460D01*
Y274100D01*
X190960D01*
Y277850D01*
D02*
G37*
G36*
X185460D02*
X181960D01*
Y274100D01*
X185460D01*
Y277850D01*
D02*
G37*
G36*
X258088Y213361D02*
X255719D01*
X253430Y212748D01*
X251377Y211563D01*
X249702Y209887D01*
X248517Y207835D01*
X247903Y205546D01*
Y203176D01*
X248517Y200887D01*
X249702Y198835D01*
X251377Y197160D01*
X253430Y195975D01*
X255719Y195361D01*
X258088D01*
X260377Y195975D01*
X262430Y197160D01*
X263881Y198611D01*
X284403D01*
Y210111D01*
X263881D01*
X262430Y211563D01*
X260377Y212748D01*
X258088Y213361D01*
D02*
G37*
G36*
X346000Y186561D02*
X344491Y186157D01*
X343009Y185301D01*
X341799Y184091D01*
X340943Y182609D01*
X340539Y181100D01*
X346000D01*
Y186561D01*
D02*
G37*
G36*
X258088Y173361D02*
X255719D01*
X253430Y172748D01*
X251377Y171563D01*
X249702Y169887D01*
X248517Y167835D01*
X247903Y165546D01*
Y163176D01*
X248517Y160887D01*
X249702Y158835D01*
X251377Y157160D01*
X253430Y155975D01*
X255719Y155361D01*
X258088D01*
X260377Y155975D01*
X262430Y157160D01*
X263881Y158611D01*
X284403D01*
Y170111D01*
X263881D01*
X262430Y171563D01*
X260377Y172748D01*
X258088Y173361D01*
D02*
G37*
G36*
X316444Y183624D02*
X290556D01*
X290078Y183426D01*
X289577Y183295D01*
X289517Y183193D01*
X289408Y183148D01*
X289210Y182670D01*
X288948Y182224D01*
X288392Y178224D01*
X288422Y178109D01*
X288376Y178000D01*
Y134750D01*
X288451Y134570D01*
X288419Y134379D01*
X289066Y131629D01*
X289327Y131265D01*
X289498Y130852D01*
X289678Y130778D01*
X289791Y130620D01*
X290233Y130548D01*
X290646Y130376D01*
X316466D01*
X316906Y130559D01*
X317374Y130654D01*
X317463Y130790D01*
X317614Y130852D01*
X317796Y131293D01*
X318059Y131690D01*
X318594Y134440D01*
X318561Y134600D01*
X318624Y134750D01*
Y178000D01*
X318578Y178109D01*
X318608Y178224D01*
X318052Y182224D01*
X317790Y182670D01*
X317592Y183148D01*
X317483Y183193D01*
X317423Y183295D01*
X316922Y183426D01*
X316444Y183624D01*
D02*
G37*
G36*
X214548Y264624D02*
X80164D01*
X79016Y264148D01*
X79016Y264148D01*
X73852Y258984D01*
X73376Y257836D01*
Y110000D01*
X73852Y108852D01*
X75000Y108376D01*
X219762D01*
X220910Y108852D01*
X221385Y110000D01*
Y257787D01*
X220910Y258934D01*
X215696Y264148D01*
X214548Y264624D01*
D02*
G37*
G36*
X38124Y233361D02*
X35755D01*
X33466Y232748D01*
X31413Y231563D01*
X29962Y230111D01*
X9439D01*
Y218611D01*
X29962D01*
X31413Y217160D01*
X33466Y215975D01*
X35755Y215361D01*
X38124D01*
X40413Y215975D01*
X42466Y217160D01*
X44141Y218835D01*
X45326Y220887D01*
X45939Y223176D01*
Y225546D01*
X45326Y227835D01*
X44141Y229887D01*
X42466Y231563D01*
X40413Y232748D01*
X38124Y233361D01*
D02*
G37*
G36*
X14000Y206910D02*
X13025Y206716D01*
X12198Y206164D01*
X2583Y196549D01*
X250D01*
Y198750D01*
X-3250D01*
Y194000D01*
Y189250D01*
X250D01*
Y191451D01*
X3639D01*
X4614Y191645D01*
X5441Y192198D01*
X15802Y202559D01*
X16355Y203386D01*
X16549Y204361D01*
X16355Y205337D01*
X15802Y206164D01*
X14976Y206716D01*
X14000Y206910D01*
D02*
G37*
G36*
X-5250Y198750D02*
X-8750D01*
Y195000D01*
X-5250D01*
Y198750D01*
D02*
G37*
G36*
Y193000D02*
X-8750D01*
Y189250D01*
X-5250D01*
Y193000D01*
D02*
G37*
G36*
X-556Y183624D02*
X-26444D01*
X-26922Y183426D01*
X-27423Y183295D01*
X-27483Y183193D01*
X-27592Y183148D01*
X-27790Y182670D01*
X-28052Y182224D01*
X-28608Y178224D01*
X-28578Y178109D01*
X-28624Y178000D01*
Y134750D01*
X-28549Y134570D01*
X-28581Y134379D01*
X-27934Y131629D01*
X-27673Y131265D01*
X-27502Y130852D01*
X-27322Y130778D01*
X-27209Y130620D01*
X-26767Y130548D01*
X-26354Y130376D01*
X-534D01*
X-94Y130559D01*
X374Y130654D01*
X463Y130790D01*
X614Y130852D01*
X796Y131293D01*
X1059Y131690D01*
X1594Y134440D01*
X1561Y134600D01*
X1624Y134750D01*
Y178000D01*
X1578Y178109D01*
X1608Y178224D01*
X1052Y182224D01*
X790Y182670D01*
X592Y183148D01*
X483Y183193D01*
X423Y183295D01*
X-78Y183426D01*
X-556Y183624D01*
D02*
G37*
G36*
X-47539Y129261D02*
X-53000D01*
Y123799D01*
X-51491Y124204D01*
X-50009Y125059D01*
X-48799Y126270D01*
X-47943Y127752D01*
X-47539Y129261D01*
D02*
G37*
G36*
X38124Y73361D02*
X37940D01*
Y65361D01*
X45939D01*
Y65546D01*
X45326Y67835D01*
X44141Y69887D01*
X42466Y71563D01*
X40413Y72748D01*
X38124Y73361D01*
D02*
G37*
G36*
X20440Y69861D02*
X9689D01*
Y65361D01*
X20440D01*
Y69861D01*
D02*
G37*
G36*
X45939Y63361D02*
X37940D01*
Y55361D01*
X38124D01*
X40413Y55975D01*
X42466Y57160D01*
X44141Y58835D01*
X45326Y60887D01*
X45939Y63176D01*
Y63361D01*
D02*
G37*
G36*
X35940Y73361D02*
X35755D01*
X33466Y72748D01*
X31413Y71563D01*
X29738Y69887D01*
X29723Y69861D01*
X22440D01*
Y64361D01*
Y58861D01*
X29723D01*
X29738Y58835D01*
X31413Y57160D01*
X33466Y55975D01*
X35755Y55361D01*
X35940D01*
Y64361D01*
Y73361D01*
D02*
G37*
G36*
X301250Y116058D02*
X297750D01*
Y112308D01*
X301250D01*
Y116058D01*
D02*
G37*
G36*
X157195Y93054D02*
X152445D01*
Y87804D01*
X157195D01*
Y93054D01*
D02*
G37*
G36*
X150445D02*
X145695D01*
Y87804D01*
X150445D01*
Y93054D01*
D02*
G37*
G36*
X128945Y74804D02*
X126195D01*
Y72554D01*
X128945D01*
Y74804D01*
D02*
G37*
G36*
X217407Y86326D02*
X215616D01*
X213962Y85640D01*
X212697Y84375D01*
X212012Y82721D01*
Y80930D01*
X212697Y79276D01*
X213463Y78511D01*
Y77365D01*
X212012D01*
Y70365D01*
X220012D01*
Y77365D01*
X218560D01*
Y77804D01*
X219060Y78011D01*
X220326Y79276D01*
X221012Y80930D01*
Y82721D01*
X220326Y84375D01*
X219060Y85640D01*
X217407Y86326D01*
D02*
G37*
G36*
X219762Y69115D02*
X217012D01*
Y66865D01*
X219762D01*
Y69115D01*
D02*
G37*
G36*
X215012D02*
X212262D01*
Y66865D01*
X215012D01*
Y69115D01*
D02*
G37*
G36*
X219762Y64865D02*
X217012D01*
Y62615D01*
X219762D01*
Y64865D01*
D02*
G37*
G36*
X215012D02*
X212262D01*
Y62615D01*
X215012D01*
Y64865D01*
D02*
G37*
G36*
X216115Y43916D02*
X212365D01*
Y40416D01*
X216115D01*
Y43916D01*
D02*
G37*
G36*
X221865D02*
X218115D01*
Y39416D01*
Y34916D01*
X221865D01*
Y36867D01*
X228160D01*
X229136Y37061D01*
X229963Y37614D01*
X230211Y37862D01*
X230763Y38689D01*
X230957Y39665D01*
X230763Y40640D01*
X230211Y41467D01*
X229384Y42020D01*
X228408Y42214D01*
X227433Y42020D01*
X227352Y41965D01*
X221865D01*
Y43916D01*
D02*
G37*
G36*
X216115Y38416D02*
X212365D01*
Y34916D01*
X216115D01*
Y38416D01*
D02*
G37*
G36*
X169718Y57666D02*
X162968D01*
Y53916D01*
X169718D01*
Y57666D01*
D02*
G37*
%LPD*%
D12*
X296750Y116808D02*
Y117058D01*
X285925Y105983D02*
X296750Y116808D01*
X285925Y100117D02*
Y105983D01*
X283878Y98069D02*
X285925Y100117D01*
X110794Y26717D02*
Y38994D01*
X91640Y71916D02*
X122661Y40895D01*
X91640Y71916D02*
Y82879D01*
X110794Y26717D02*
X111140Y26371D01*
X110140Y39648D02*
X110794Y38994D01*
X98140Y26371D02*
Y43773D01*
X-4250Y194000D02*
X3639D01*
X14000Y204361D01*
X-19500Y110890D02*
X885Y90505D01*
X-19500Y110890D02*
Y124361D01*
X159390Y5000D02*
Y5278D01*
X175196Y21084D01*
X190346D01*
X177164Y15584D02*
X224644D01*
X295142Y91980D02*
X306000Y102838D01*
X295142Y88814D02*
Y91980D01*
X285049Y78722D02*
X295142Y88814D01*
X293714Y124308D02*
X329308D01*
X347000Y142000D01*
X326000Y135000D02*
Y146400D01*
X347000Y167400D01*
X286213Y116806D02*
X293714Y124308D01*
X283490Y116806D02*
X286213D01*
X261046Y94361D02*
X283490Y116806D01*
X134402Y287057D02*
X146690Y299346D01*
X126445Y287057D02*
X134402D01*
X123695Y284307D02*
X126445Y287057D01*
X65440Y199076D02*
Y267333D01*
X86331Y288225D02*
X121218D01*
X65440Y267333D02*
X86331Y288225D01*
X69000Y197687D02*
Y260784D01*
X92524Y284307D02*
X123695D01*
X69000Y260784D02*
X92524Y284307D01*
X123551Y290557D02*
X132528D01*
X133699Y299055D02*
X133990Y299346D01*
X133699Y291729D02*
Y299055D01*
X132528Y290557D02*
X133699Y291729D01*
X226419Y122889D02*
Y269968D01*
X203176Y288225D02*
X203427Y288475D01*
X207912D01*
X226419Y269968D01*
Y122889D02*
X232250Y117058D01*
X58689Y164361D02*
X67390Y155661D01*
Y105936D02*
Y155661D01*
X60454Y99000D02*
X67390Y105936D01*
X70647Y56960D02*
X84953D01*
X56000Y70504D02*
X68565Y57939D01*
X67390Y41010D02*
Y52439D01*
X68565Y57939D02*
X69668D01*
X70647Y56960D01*
X72636Y62570D02*
X72681Y62615D01*
X85981D01*
X56000Y29620D02*
X67390Y41010D01*
X84953Y56960D02*
X98140Y43773D01*
X85981Y62615D02*
X104640Y43955D01*
Y26371D02*
Y43955D01*
X224644Y15584D02*
X270105Y61045D01*
X5444Y97304D02*
Y149373D01*
X150500Y85860D02*
X151445Y86804D01*
X150500Y79976D02*
Y85860D01*
X148688Y78163D02*
X150500Y79976D01*
X148688Y71916D02*
Y78163D01*
X61940Y190626D02*
X69000Y197687D01*
X50725Y184361D02*
X65440Y199076D01*
X24997Y172418D02*
X36939Y184361D01*
X24997Y160167D02*
Y172418D01*
X17939Y153110D02*
X24997Y160167D01*
X9181Y153110D02*
X17939D01*
X5444Y149373D02*
X9181Y153110D01*
X885Y90505D02*
X28941D01*
X270105Y61045D02*
X279993D01*
X296750Y117058D02*
Y117308D01*
X294500Y119558D02*
X296750Y117308D01*
X129945Y75804D02*
X144090D01*
X147978Y71916D01*
X148688D01*
X104640Y72621D02*
Y82879D01*
X102510Y70491D02*
X104640Y72621D01*
X102510Y69602D02*
Y70491D01*
X66699Y75718D02*
Y88387D01*
X43439Y92004D02*
X63082D01*
X41082Y94361D02*
X43439Y92004D01*
X63082D02*
X66699Y88387D01*
X32797Y94361D02*
X41082D01*
X66699Y75718D02*
X71417Y71000D01*
X28941Y90505D02*
X32797Y94361D01*
X71417Y71000D02*
X79635D01*
X285049Y66101D02*
Y78722D01*
X279993Y61045D02*
X285049Y66101D01*
X121218Y288225D02*
X123551Y290557D01*
X52439Y164361D02*
X58689D01*
X61940Y167611D01*
Y190626D01*
X36939Y184361D02*
X50725D01*
X104640Y19998D02*
Y26371D01*
X61027Y99000D02*
X61215Y99188D01*
X60454Y99000D02*
X61027D01*
X111140Y19998D02*
Y26371D01*
X103447Y100861D02*
X203911D01*
X204318Y98069D02*
X205083Y97304D01*
X204318Y98069D02*
Y100455D01*
X203911Y100861D02*
X204318Y100455D01*
X78640Y102838D02*
X80164Y104361D01*
X223118D02*
X233118Y94361D01*
X80164Y104361D02*
X223118D01*
X98140Y95554D02*
X103447Y100861D01*
X98140Y82879D02*
Y95554D01*
X72140Y82879D02*
Y96393D01*
X111140Y69602D02*
Y82879D01*
X216012Y73865D02*
Y81326D01*
X216511Y81826D01*
X195346Y69865D02*
Y83567D01*
X198583Y86804D01*
Y94807D01*
X196086Y97304D02*
X198583Y94807D01*
X167445Y86804D02*
Y87304D01*
X177445Y97304D01*
X196086D01*
X148688Y71916D02*
X161968D01*
X174613D01*
X176225Y70304D01*
X190266D01*
Y54625D02*
Y70304D01*
X252761Y94361D02*
X252761Y94361D01*
X261046D01*
X233118Y94361D02*
X252761D01*
X78640Y82879D02*
Y102838D01*
X79635Y71000D02*
X85140Y76505D01*
Y82879D01*
X217115Y39416D02*
X228160D01*
X228408Y39665D01*
X195346Y33625D02*
Y54625D01*
D13*
X200426D02*
Y69865D01*
X211615Y52145D02*
X216344D01*
X209135Y54625D02*
X211615Y52145D01*
X200426Y54625D02*
X209135D01*
D15*
X186460Y278850D02*
D03*
X172960D02*
D03*
X310250Y117058D02*
D03*
X296750D02*
D03*
X-17750Y194000D02*
D03*
X-4250D02*
D03*
D16*
X117640Y82879D02*
D03*
D17*
X111140D02*
D03*
X104640D02*
D03*
X98140D02*
D03*
X91640D02*
D03*
X85140D02*
D03*
X78640D02*
D03*
X72140D02*
D03*
Y26371D02*
D03*
X78640D02*
D03*
X85140D02*
D03*
X91640D02*
D03*
X98140D02*
D03*
X104640D02*
D03*
X111140D02*
D03*
X117640D02*
D03*
D18*
X190266Y54625D02*
D03*
X195346D02*
D03*
X200426D02*
D03*
Y69865D02*
D03*
X195346D02*
D03*
X190266D02*
D03*
D19*
X176825Y33625D02*
D03*
X195346D02*
D03*
D20*
X198583Y86804D02*
D03*
X184583D02*
D03*
D21*
X161968Y71916D02*
D03*
Y52916D02*
D03*
D22*
X216012Y65865D02*
D03*
Y73865D02*
D03*
X129945Y83804D02*
D03*
Y75804D02*
D03*
D23*
X217115Y52916D02*
D03*
Y39416D02*
D03*
D24*
X167445Y86804D02*
D03*
X151445D02*
D03*
D25*
X56000Y44620D02*
D03*
Y29620D02*
D03*
Y55504D02*
D03*
Y70504D02*
D03*
D26*
X52439Y244361D02*
D03*
Y204361D02*
D03*
Y164361D02*
D03*
Y124361D02*
D03*
Y84361D02*
D03*
X21439Y224361D02*
D03*
Y184361D02*
D03*
Y104361D02*
D03*
Y64361D02*
D03*
Y144361D02*
D03*
X272404Y244361D02*
D03*
Y204361D02*
D03*
Y164361D02*
D03*
Y124361D02*
D03*
Y84361D02*
D03*
X241404Y224361D02*
D03*
Y184361D02*
D03*
Y104361D02*
D03*
Y64361D02*
D03*
Y144361D02*
D03*
D36*
X172525Y279285D02*
X172960Y278850D01*
X172525Y279285D02*
Y298911D01*
X172090Y299346D02*
X172525Y298911D01*
X310250Y117058D02*
X334758D01*
X347000Y129300D01*
X172090Y297722D02*
Y299346D01*
X-54000Y181061D02*
X-41408D01*
X-28468Y194000D01*
X-17750D01*
Y193750D02*
Y194000D01*
X129945Y83804D02*
Y90804D01*
X129945Y90804D01*
X117640Y82879D02*
X128520D01*
X129445Y83804D01*
X129945D01*
X43439Y44620D02*
X56000D01*
Y55504D01*
X117640Y26371D02*
X131696D01*
X136427Y31102D01*
X136968D01*
X224904Y64361D02*
Y72080D01*
X237185Y84361D01*
X256903D01*
X181086Y76304D02*
Y76416D01*
X181583Y76914D02*
Y83804D01*
X181086Y76416D02*
X181583Y76914D01*
Y83804D02*
X184583Y86804D01*
X161968Y35968D02*
X164311Y33625D01*
X176825D01*
X136968Y31102D02*
X137268Y31402D01*
Y39416D01*
Y47162D01*
X143022Y52916D01*
X161968D01*
Y35968D02*
Y52916D01*
X216344Y52145D02*
X217115Y52916D01*
X216511Y65865D02*
X217115Y65261D01*
Y52916D02*
Y65261D01*
X216012Y65865D02*
X216511D01*
D37*
X112044Y12594D02*
X139096D01*
X146690Y5000D01*
X104640Y19998D02*
X112044Y12594D01*
X111140Y19998D02*
X115294Y15844D01*
X148546D01*
X159390Y5000D01*
D38*
X347000Y129300D02*
D03*
Y142000D02*
D03*
Y154700D02*
D03*
Y167400D02*
D03*
Y180100D02*
D03*
X-54000Y181061D02*
D03*
Y168361D02*
D03*
Y155661D02*
D03*
Y142961D02*
D03*
Y130261D02*
D03*
X121290Y5000D02*
D03*
X133990D02*
D03*
X146690D02*
D03*
X159390D02*
D03*
X172090D02*
D03*
Y299346D02*
D03*
X159390D02*
D03*
X146690D02*
D03*
X133990D02*
D03*
X121290D02*
D03*
D39*
X36939Y104361D02*
D03*
Y64361D02*
D03*
Y84361D02*
D03*
Y164361D02*
D03*
Y124361D02*
D03*
Y144361D02*
D03*
Y224361D02*
D03*
Y184361D02*
D03*
Y204361D02*
D03*
Y244361D02*
D03*
X256903Y104361D02*
D03*
Y64361D02*
D03*
Y84361D02*
D03*
Y164361D02*
D03*
Y124361D02*
D03*
Y144361D02*
D03*
Y224361D02*
D03*
Y184361D02*
D03*
Y204361D02*
D03*
Y244361D02*
D03*
D40*
X122661Y40895D02*
D03*
X-19500Y124361D02*
D03*
X190346Y21084D02*
D03*
X177164Y15274D02*
D03*
X306000Y102838D02*
D03*
X326000Y135000D02*
D03*
X203176Y288225D02*
D03*
X67390Y52439D02*
D03*
X72636Y62570D02*
D03*
X110140Y39648D02*
D03*
X5444Y97304D02*
D03*
X237213Y39665D02*
D03*
X129945Y90804D02*
D03*
X43439Y44620D02*
D03*
X102510Y69602D02*
D03*
X155190Y31102D02*
D03*
X160968Y21084D02*
D03*
X61215Y99188D02*
D03*
X232250Y117058D02*
D03*
X205083Y97304D02*
D03*
X72140Y96393D02*
D03*
X111140Y69602D02*
D03*
X216511Y81826D02*
D03*
X181086Y76304D02*
D03*
X148688Y71916D02*
D03*
X146690Y31102D02*
D03*
Y39416D02*
D03*
Y47162D02*
D03*
X136968Y31102D02*
D03*
X137268Y39416D02*
D03*
Y47162D02*
D03*
X228408Y39665D02*
D03*
D41*
X16000Y125908D02*
D03*
X283878Y98069D02*
D03*
X276774Y144361D02*
D03*
X14000Y167628D02*
D03*
X202377Y275000D02*
D03*
X112390D02*
D03*
X14000Y204361D02*
D03*
X276774Y181138D02*
D03*
X237213Y205000D02*
D03*
M02*
